<svg width="85" height="18" viewBox="0 0 85 18" fill="none" xmlns="http://www.w3.org/2000/svg">
<path fill-rule="evenodd" clip-rule="evenodd" d="M0 3C0 1.34315 1.34315 0 3 0H16C17.6569 0 19 1.34315 19 3V10C19 11.6569 17.6569 13 16 13H15.7723L15.8109 17.2741L8.95524 13.041L9.01904 13H3C1.34315 13 0 11.6569 0 10V3ZM2 5C2 3.34315 3.34315 2 5 2H15C16.6569 2 18 3.34315 18 5V9C18 10.6569 16.6569 12 15 12H14.6463L14.6767 15.3664L9.30755 12H5C3.34315 12 2 10.6569 2 9V5Z" fill="#B1B8B5"/>
<path d="M32.4766 9.8418C32.3535 10.8945 31.9639 11.708 31.3076 12.2822C30.6559 12.8519 29.7878 13.1367 28.7031 13.1367C27.5273 13.1367 26.584 12.7152 25.873 11.8721C25.1667 11.029 24.8135 9.90104 24.8135 8.48828V7.53125C24.8135 6.60612 24.9775 5.79264 25.3057 5.09082C25.6383 4.389 26.1077 3.85124 26.7139 3.47754C27.32 3.09928 28.0218 2.91016 28.8193 2.91016C29.8766 2.91016 30.7243 3.20638 31.3623 3.79883C32.0003 4.38672 32.3717 5.20247 32.4766 6.24609H31.1572C31.0433 5.45312 30.7949 4.87891 30.4121 4.52344C30.0339 4.16797 29.5029 3.99023 28.8193 3.99023C27.9808 3.99023 27.3223 4.30013 26.8438 4.91992C26.3698 5.53971 26.1328 6.42155 26.1328 7.56543V8.5293C26.1328 9.60938 26.3584 10.4684 26.8096 11.1064C27.2607 11.7445 27.8919 12.0635 28.7031 12.0635C29.4323 12.0635 29.9906 11.8994 30.3779 11.5713C30.7699 11.2386 31.0296 10.6621 31.1572 9.8418H32.4766Z" fill="#B1B8B5"/>
<path d="M33.7412 9.2334C33.7412 8.50879 33.8825 7.8571 34.165 7.27832C34.4521 6.69954 34.8486 6.25293 35.3545 5.93848C35.8649 5.62402 36.446 5.4668 37.0977 5.4668C38.1048 5.4668 38.9183 5.81543 39.5381 6.5127C40.1624 7.20996 40.4746 8.13737 40.4746 9.29492V9.38379C40.4746 10.1038 40.3356 10.751 40.0576 11.3252C39.7842 11.8949 39.39 12.3392 38.875 12.6582C38.3646 12.9772 37.7767 13.1367 37.1113 13.1367C36.1087 13.1367 35.2952 12.7881 34.6709 12.0908C34.0511 11.3936 33.7412 10.4707 33.7412 9.32227V9.2334ZM35.0127 9.38379C35.0127 10.2041 35.2018 10.8626 35.5801 11.3594C35.9629 11.8561 36.4733 12.1045 37.1113 12.1045C37.7539 12.1045 38.2643 11.8538 38.6426 11.3525C39.0208 10.8467 39.21 10.1403 39.21 9.2334C39.21 8.4222 39.0163 7.76595 38.6289 7.26465C38.2461 6.75879 37.7357 6.50586 37.0977 6.50586C36.4733 6.50586 35.9697 6.75423 35.5869 7.25098C35.2041 7.74772 35.0127 8.45866 35.0127 9.38379Z" fill="#B1B8B5"/>
<path d="M43.25 5.60352L43.2842 6.42383C43.8265 5.78581 44.5579 5.4668 45.4785 5.4668C46.513 5.4668 47.2171 5.86328 47.5908 6.65625C47.8369 6.30078 48.1559 6.01367 48.5479 5.79492C48.9443 5.57617 49.4115 5.4668 49.9492 5.4668C51.5716 5.4668 52.3965 6.32585 52.4238 8.04395V13H51.1592V8.11914C51.1592 7.59049 51.0384 7.19629 50.7969 6.93652C50.5553 6.6722 50.1497 6.54004 49.5801 6.54004C49.1107 6.54004 48.721 6.68132 48.4111 6.96387C48.1012 7.24186 47.9212 7.61784 47.8711 8.0918V13H46.5996V8.15332C46.5996 7.0778 46.0732 6.54004 45.0205 6.54004C44.1911 6.54004 43.6237 6.89323 43.3184 7.59961V13H42.0537V5.60352H43.25Z" fill="#B1B8B5"/>
<path d="M55.5273 5.60352L55.5615 6.42383C56.1038 5.78581 56.8353 5.4668 57.7559 5.4668C58.7904 5.4668 59.4945 5.86328 59.8682 6.65625C60.1143 6.30078 60.4333 6.01367 60.8252 5.79492C61.2217 5.57617 61.6888 5.4668 62.2266 5.4668C63.849 5.4668 64.6738 6.32585 64.7012 8.04395V13H63.4365V8.11914C63.4365 7.59049 63.3158 7.19629 63.0742 6.93652C62.8327 6.6722 62.4271 6.54004 61.8574 6.54004C61.388 6.54004 60.9984 6.68132 60.6885 6.96387C60.3786 7.24186 60.1986 7.61784 60.1484 8.0918V13H58.877V8.15332C58.877 7.0778 58.3506 6.54004 57.2979 6.54004C56.4684 6.54004 55.901 6.89323 55.5957 7.59961V13H54.3311V5.60352H55.5273Z" fill="#B1B8B5"/>
<path d="M69.6846 13.1367C68.682 13.1367 67.8662 12.8086 67.2373 12.1523C66.6084 11.4915 66.2939 10.6097 66.2939 9.50684V9.27441C66.2939 8.54069 66.4329 7.88672 66.7109 7.3125C66.9935 6.73372 67.3854 6.28255 67.8867 5.95898C68.3926 5.63086 68.9395 5.4668 69.5273 5.4668C70.4889 5.4668 71.2363 5.78353 71.7695 6.41699C72.3027 7.05046 72.5693 7.95736 72.5693 9.1377V9.66406H67.5586C67.5768 10.3932 67.7887 10.9834 68.1943 11.4346C68.6045 11.8812 69.124 12.1045 69.7529 12.1045C70.1995 12.1045 70.5778 12.0133 70.8877 11.8311C71.1976 11.6488 71.4688 11.4072 71.7012 11.1064L72.4736 11.708C71.8538 12.6605 70.9242 13.1367 69.6846 13.1367ZM69.5273 6.50586C69.0169 6.50586 68.5885 6.69271 68.2422 7.06641C67.8958 7.43555 67.6816 7.95508 67.5996 8.625H71.3047V8.5293C71.2682 7.88672 71.0951 7.38997 70.7852 7.03906C70.4753 6.68359 70.056 6.50586 69.5273 6.50586Z" fill="#B1B8B5"/>
<path d="M75.2354 5.60352L75.2764 6.5332C75.8415 5.82227 76.5798 5.4668 77.4912 5.4668C79.0544 5.4668 79.8428 6.34863 79.8564 8.1123V13H78.5918V8.10547C78.5872 7.57227 78.4642 7.17806 78.2227 6.92285C77.9857 6.66764 77.6143 6.54004 77.1084 6.54004C76.6982 6.54004 76.3382 6.64941 76.0283 6.86816C75.7184 7.08691 75.4769 7.37402 75.3037 7.72949V13H74.0391V5.60352H75.2354Z" fill="#B1B8B5"/>
<path d="M83.4795 3.8125V5.60352H84.8604V6.58105H83.4795V11.168C83.4795 11.4642 83.541 11.6875 83.6641 11.8379C83.7871 11.9837 83.9967 12.0566 84.293 12.0566C84.4388 12.0566 84.6393 12.0293 84.8945 11.9746V13C84.5618 13.0911 84.2383 13.1367 83.9238 13.1367C83.3587 13.1367 82.9326 12.9658 82.6455 12.624C82.3584 12.2822 82.2148 11.7969 82.2148 11.168V6.58105H80.8682V5.60352H82.2148V3.8125H83.4795Z" fill="#B1B8B5"/>
</svg>
