<svg width="512" height="512" viewBox="0 0 512 512" fill="none" xmlns="http://www.w3.org/2000/svg">
<path fill-rule="evenodd" clip-rule="evenodd" d="M50 0C22.3858 0 0 22.3858 0 50V462C0 489.614 22.3858 512 50 512H462C489.614 512 512 489.614 512 462V50C512 22.3858 489.614 0 462 0H50ZM458.072 326.34C473.658 305.695 481.451 278.146 481.451 243.693V240.412C481.451 205.139 473.863 177.453 458.688 157.355C443.512 137.121 422.252 127.004 394.908 127.004C373.307 127.004 355.875 135.207 342.613 151.613L340.562 131.105H275.963V438.312H345.074V334.748C358.199 349.65 374.947 357.102 395.318 357.102C421.705 357.102 442.623 346.848 458.072 326.34ZM377.887 180.324C400.855 180.324 412.34 200.012 412.34 239.387V246.77C411.656 284.777 400.309 303.781 378.297 303.781C362.164 303.781 351.09 297.629 345.074 285.324V197.961C350.543 186.203 361.48 180.324 377.887 180.324ZM111.285 357.102C136.168 357.102 155.924 347.736 170.553 329.006L172.604 353H237.408V131.105H167.887V286.76C161.188 298.107 149.908 303.781 134.049 303.781C115.592 303.781 106.363 294.279 106.363 275.275V131.105H37.252V274.865C37.252 301.389 43.4727 321.76 55.9141 335.979C68.4922 350.061 86.9492 357.102 111.285 357.102Z" fill="#40B674"/>
</svg>
