<svg width="115" height="78" viewBox="0 0 115 78" fill="none" xmlns="http://www.w3.org/2000/svg">
<path fill-rule="evenodd" clip-rule="evenodd" d="M38.3364 0.705933V10.248H9.71008V19.7902H0.167969V48.4165H28.7943V57.9586H19.2522V67.5007H0.167969V77.0428H19.2522V67.5007H38.3364V57.9586H47.8785V67.5007H66.9627V57.9586H76.5049V67.5007H95.5891L95.5891 77.0428H114.673V67.5007H95.5891V57.9586H86.047V48.4165H114.673V19.7902H105.131V10.248H76.5049V0.705933H38.3364ZM66.9627 57.9586H47.8785V48.4165H66.9627V57.9586ZM86.047 38.8744L86.047 29.3323H66.9627V38.8744H86.047ZM47.8785 29.3323V38.8744H28.7943V29.3323H47.8785Z" fill="#F3BA63"/>
</svg>
