<svg width="106" height="77" viewBox="0 0 106 77" fill="none" xmlns="http://www.w3.org/2000/svg">
<path fill-rule="evenodd" clip-rule="evenodd" d="M28.8971 0.609009H19.355V10.1511H28.8971V19.6932H19.355V29.2353H9.81286V38.7775H0.270752V67.4038H9.81286V48.3196H19.355L19.355 67.4038L28.8971 67.4038V76.9459H47.9813V67.4038H28.8971V57.8617H76.6076V67.4038H57.5234V76.9459H76.6076V67.4038L86.1497 67.4038V48.3196H95.6919L95.6919 67.4038H105.234V38.7775H95.6919V29.2353H86.1497V19.6932H76.6076V10.1511H86.1497V0.609009H76.6076V10.1511H67.0655V19.6932H38.4392V10.1511H28.8971V0.609009ZM76.6076 29.2353V38.7775H67.0655V29.2353H76.6076ZM28.8971 38.7775H38.4392L38.4392 29.2353H28.8971V38.7775Z" fill="#167341"/>
</svg>
