<svg width="151" height="151" viewBox="0 0 151 151" fill="none" xmlns="http://www.w3.org/2000/svg">
<path fill-rule="evenodd" clip-rule="evenodd" d="M51.7269 37.7059H42.1848V47.248H51.7269V56.7902H42.1848V66.3323H32.6427V75.8744H23.1006V104.501H32.6427V85.4165H42.1848L42.1848 104.501L51.7269 104.501V114.043H70.8111V104.501H51.7269V94.9586H99.4375V104.501H80.3532V114.043H99.4375V104.501L108.98 104.501V85.4165H118.522L118.522 104.501H128.064V75.8744H118.522V66.3323H108.98V56.7902H99.4375V47.248H108.98V37.7059H99.4375V47.248H89.8954V56.7902H61.269V47.248H51.7269V37.7059ZM99.4375 66.3323V75.8744H89.8954V66.3323H99.4375ZM51.7269 75.8744H61.269L61.269 66.3323H51.7269V75.8744Z" fill="#167341"/>
</svg>
