<svg width="77" height="77" viewBox="0 0 77 77" fill="none" xmlns="http://www.w3.org/2000/svg">
<path fill-rule="evenodd" clip-rule="evenodd" d="M28.6263 0.705933H47.7106V10.1605H57.2527V19.7026H66.7948V29.2447H76.3369V48.329H57.2527V57.8711H47.7106V48.329H28.6263V57.8711H19.0842V48.329H0V29.2447H9.54211V19.7026H19.0842V10.1605H28.6263V0.705933ZM19.0842 38.7869H28.6263V29.2448H19.0842V38.7869ZM47.7106 38.7869H57.2527V29.2448H47.7106V38.7869Z" fill="#725F87"/>
<path d="M19.0842 67.4132V57.8711H9.54211V67.4132H0V76.9553H9.54211V67.4132H19.0842Z" fill="#725F87"/>
<path d="M28.6263 67.4132V76.9553H19.0842V67.4132H28.6263Z" fill="#725F87"/>
<path d="M47.7106 67.4132H28.6263V57.8711H47.7106V67.4132Z" fill="#725F87"/>
<path d="M57.2527 67.4132V57.8711H66.7948V67.4132H57.2527Z" fill="#725F87"/>
<path d="M66.7948 67.4132L66.7948 76.9553H76.3369V67.4132H66.7948Z" fill="#725F87"/>
<path d="M57.2527 67.4132V76.9553H47.7106V67.4132H57.2527Z" fill="#725F87"/>
</svg>
