<svg width="151" height="151" viewBox="0 0 151 151" fill="none" xmlns="http://www.w3.org/2000/svg">
<path fill-rule="evenodd" clip-rule="evenodd" d="M66.1564 37.609H85.2406V47.0636H94.7827V56.6057H104.325V66.1478H113.867V85.232H94.7827V94.7742H85.2406V85.232H66.1564V94.7742H56.6143V85.232H37.53V66.1478H47.0721V56.6057H56.6143V47.0636H66.1564V37.609ZM56.6143 75.6899H66.1564V66.1478H56.6143V75.6899ZM85.2406 75.6899H94.7827V66.1478H85.2406V75.6899Z" fill="#725F87"/>
<path d="M56.6143 104.316V94.7742H47.0721V104.316H37.53V113.858H47.0721V104.316H56.6143Z" fill="#725F87"/>
<path d="M66.1564 104.316V113.858H56.6143V104.316H66.1564Z" fill="#725F87"/>
<path d="M85.2406 104.316H66.1564V94.7742H85.2406V104.316Z" fill="#725F87"/>
<path d="M94.7827 104.316V94.7742H104.325V104.316H94.7827Z" fill="#725F87"/>
<path d="M104.325 104.316L104.325 113.858H113.867V104.316H104.325Z" fill="#725F87"/>
<path d="M94.7827 104.316V113.858H85.2406V104.316H94.7827Z" fill="#725F87"/>
</svg>
