<svg width="151" height="151" viewBox="0 0 151 151" fill="none" xmlns="http://www.w3.org/2000/svg">
<path fill-rule="evenodd" clip-rule="evenodd" d="M56.3452 37.7059V47.248H27.7189V56.7902H18.1768V85.4165H46.8031V94.9586H37.261V104.501H18.1768V114.043H37.261V104.501H56.3452V94.9586H65.8873V104.501H84.9715V94.9586H94.5136V104.501H113.598L113.598 114.043H132.682V104.501H113.598V94.9586H104.056V85.4165H132.682V56.7902H123.14V47.248H94.5136V37.7059H56.3452ZM84.9715 94.9586H65.8873V85.4165H84.9715V94.9586ZM104.056 75.8744L104.056 66.3323H84.9715V75.8744H104.056ZM65.8873 66.3323V75.8744H46.8031V66.3323H65.8873Z" fill="#F3BA63"/>
</svg>
