<svg width="49" height="17" viewBox="0 0 49 17" fill="none" xmlns="http://www.w3.org/2000/svg">
<path fill-rule="evenodd" clip-rule="evenodd" d="M6 3C6 4.30622 5.16519 5.41746 4 5.82929V7.00027H10V5.82929C8.83481 5.41746 8 4.30622 8 3C8 1.34315 9.34315 0 11 0C12.6569 0 14 1.34315 14 3C14 4.30622 13.1652 5.41746 12 5.82929V9L8.03821 9.00027L8.01741 11.1769C9.1735 11.5936 10 12.7003 10 14C10 15.6569 8.65685 17 7 17C5.34315 17 4 15.6569 4 14C4 12.6873 4.84315 11.5715 6.01744 11.1646L6.03811 9.00027H2V5.82929C0.834808 5.41746 0 4.30622 0 3C0 1.34315 1.34315 0 3 0C4.65685 0 6 1.34315 6 3ZM3 4C3.55228 4 4 3.55228 4 3C4 2.44772 3.55228 2 3 2C2.44772 2 2 2.44772 2 3C2 3.55228 2.44772 4 3 4ZM11 4C11.5523 4 12 3.55228 12 3C12 2.44772 11.5523 2 11 2C10.4477 2 10 2.44772 10 3C10 3.55228 10.4477 4 11 4ZM8 14C8 14.5523 7.55228 15 7 15C6.44772 15 6 14.5523 6 14C6 13.4477 6.44772 13 7 13C7.55228 13 8 13.4477 8 14Z" fill="#B1B8B5"/>
<path d="M27.6445 7.60449H23.4678V12H22.1553V2.04688H28.3213V3.12695H23.4678V6.53125H27.6445V7.60449Z" fill="#B1B8B5"/>
<path d="M29.21 8.2334C29.21 7.50879 29.3512 6.8571 29.6338 6.27832C29.9209 5.69954 30.3174 5.25293 30.8232 4.93848C31.3337 4.62402 31.9147 4.4668 32.5664 4.4668C33.5736 4.4668 34.387 4.81543 35.0068 5.5127C35.6312 6.20996 35.9434 7.13737 35.9434 8.29492V8.38379C35.9434 9.10384 35.8044 9.75098 35.5264 10.3252C35.2529 10.8949 34.8587 11.3392 34.3438 11.6582C33.8333 11.9772 33.2454 12.1367 32.5801 12.1367C31.5775 12.1367 30.764 11.7881 30.1396 11.0908C29.5199 10.3936 29.21 9.4707 29.21 8.32227V8.2334ZM30.4814 8.38379C30.4814 9.2041 30.6706 9.86263 31.0488 10.3594C31.4316 10.8561 31.9421 11.1045 32.5801 11.1045C33.2227 11.1045 33.7331 10.8538 34.1113 10.3525C34.4896 9.84668 34.6787 9.1403 34.6787 8.2334C34.6787 7.4222 34.485 6.76595 34.0977 6.26465C33.7148 5.75879 33.2044 5.50586 32.5664 5.50586C31.9421 5.50586 31.4385 5.75423 31.0557 6.25098C30.6729 6.74772 30.4814 7.45866 30.4814 8.38379Z" fill="#B1B8B5"/>
<path d="M41.1045 5.73828C40.9131 5.70638 40.7057 5.69043 40.4824 5.69043C39.653 5.69043 39.0902 6.04362 38.7939 6.75V12H37.5293V4.60352H38.7598L38.7803 5.45801C39.195 4.7972 39.7829 4.4668 40.5439 4.4668C40.79 4.4668 40.9769 4.4987 41.1045 4.5625V5.73828Z" fill="#B1B8B5"/>
<path d="M44.3379 8.5752L43.5449 9.40234V12H42.2803V1.5H43.5449V7.85059L44.2217 7.03711L46.5254 4.60352H48.0635L45.1855 7.69336L48.3984 12H46.915L44.3379 8.5752Z" fill="#B1B8B5"/>
</svg>
