<svg width="23" height="25" viewBox="0 0 23 25" fill="none" xmlns="http://www.w3.org/2000/svg">
<g clip-path="url(#clip0)">
<path fill-rule="evenodd" clip-rule="evenodd" d="M12.7848 6.45157C14.6498 6.45157 16.1288 7.09757 17.0698 8.03157L19.7238 5.37757C18.0038 3.70157 15.6078 2.70157 12.7848 2.70157C8.84782 2.70157 5.50482 4.84957 3.81982 8.00357L6.84982 10.4016C7.74682 8.09157 9.97982 6.45157 12.7848 6.45157Z" fill="#E94435"/>
<path fill-rule="evenodd" clip-rule="evenodd" d="M6.42017 12.6912C6.42017 11.8822 6.57417 11.1122 6.85017 10.4022L3.82017 8.00317C3.07317 9.40217 2.64917 10.9962 2.64917 12.6912C2.64917 14.4222 3.05917 16.0282 3.78517 17.4272L6.84517 15.0042C6.57417 14.2972 6.42017 13.5222 6.42017 12.6912Z" fill="#F8BB15"/>
<path fill-rule="evenodd" clip-rule="evenodd" d="M16.4602 18.01C15.5162 18.571 14.2762 18.931 12.6602 18.931C10.0122 18.931 7.75016 17.367 6.84516 15.005L3.78516 17.427C5.43316 20.604 8.72616 22.702 12.6602 22.702C15.4032 22.702 17.7222 21.854 19.4372 20.367L16.4602 18.01Z" fill="#34A751"/>
<path fill-rule="evenodd" clip-rule="evenodd" d="M22.6494 12.6912C22.6494 12.0102 22.5804 11.3452 22.4504 10.7012H12.6494V14.7012H18.7114L18.6674 14.9512C18.4334 16.1482 17.7174 17.2622 16.4604 18.0102L19.4374 20.3672C21.4674 18.6072 22.6494 15.9482 22.6494 12.6912Z" fill="#547DBE"/>
</g>
<defs>
<clipPath id="clip0">
<rect width="22" height="24" fill="white" transform="translate(0.649414 0.701569)"/>
</clipPath>
</defs>
</svg>
