<svg width="39" height="36" viewBox="0 0 39 36" fill="none" xmlns="http://www.w3.org/2000/svg">
<path fill-rule="evenodd" clip-rule="evenodd" d="M2.89834 16.2601C1.10561 14.535 0 12.1707 0 9.5625C0 4.28128 4.53312 0 10.125 0C14.0433 0 17.4417 2.1021 19.125 5.17735C20.8083 2.1021 24.2067 0 28.125 0C33.7169 0 38.25 4.28128 38.25 9.5625C38.25 11.6608 37.5344 13.6012 36.3212 15.178L36.3381 15.1923L20.7026 33.723L19.125 36L17.1551 33.1567L2.89834 16.2601ZM26.0069 18.9154C26.4379 19.0021 26.8791 19.0628 27.3284 19.0958L19.3304 28.5748L18.7332 27.867L26.0069 18.9154Z" fill="#77280C"/>
<path d="M19.1447 9C19.4534 4.60236 23.3561 1.125 28.125 1.125C33.0956 1.125 37.125 4.9026 37.125 9.5625C37.125 11.9449 36.0718 14.0967 34.378 15.631L29.831 20.6606L19.125 33.75L6.77756 18.6537L4.54174 16.1806C2.4603 14.6352 1.125 12.245 1.125 9.5625C1.125 4.9026 5.15444 1.125 10.125 1.125C14.8939 1.125 18.7966 4.60236 19.1053 9H19.1447Z" fill="#DF704D"/>
</svg>
