<svg width="56" height="55" viewBox="0 0 56 55" fill="none" xmlns="http://www.w3.org/2000/svg">
<path fill-rule="evenodd" clip-rule="evenodd" d="M0.681396 27.293V5.33066C0.681396 2.38662 3.06801 0 6.01206 0H27.9744H49.9367C52.8807 0 55.2674 2.38662 55.2674 5.33066V27.293V49.2553C55.2674 52.1994 52.8807 54.586 49.9367 54.586H27.9744H6.01206C3.06801 54.586 0.681396 52.1994 0.681396 49.2553V27.293ZM49.5179 34.7922C51.1796 32.5912 52.0104 29.6541 52.0104 25.981V25.6311C52.0104 21.8705 51.2014 18.9189 49.5835 16.7762C47.9656 14.6189 45.699 13.5403 42.7838 13.5403C40.4808 13.5403 38.6223 14.4149 37.2085 16.164L36.9898 13.9776H30.1026V46.7299H37.4708V35.6886C38.8701 37.2774 40.6557 38.0718 42.8275 38.0718C45.6407 38.0718 47.8708 36.9786 49.5179 34.7922ZM40.9691 19.225C43.4178 19.225 44.6422 21.3239 44.6422 25.5218V26.3089C44.5694 30.3611 43.3595 32.3871 41.0128 32.3871C39.2928 32.3871 38.1122 31.7312 37.4708 30.4194V21.1053C38.0539 19.8517 39.2199 19.225 40.9691 19.225ZM12.5458 38.0718C15.1987 38.0718 17.3049 37.0733 18.8645 35.0764L19.0832 37.6345H25.9922V13.9776H18.5803V30.5724C17.8661 31.7822 16.6635 32.3871 14.9727 32.3871C13.005 32.3871 12.0211 31.3741 12.0211 29.348V13.9776H4.6529V29.3043C4.6529 32.132 5.31611 34.3039 6.64253 35.8198C7.98352 37.3211 9.95129 38.0718 12.5458 38.0718Z" fill="#40B674"/>
</svg>
