<svg width="114" height="31" viewBox="0 0 114 31" fill="none" xmlns="http://www.w3.org/2000/svg">
<path d="M9.45915 19.6103C9.45915 19.001 9.24156 18.5263 8.80639 18.1861C8.37912 17.8459 7.6235 17.4938 6.53952 17.1298C5.45553 16.7658 4.56935 16.4137 3.88098 16.0735C1.6418 14.9737 0.522212 13.4624 0.522212 11.5398C0.522212 10.5824 0.799142 9.7397 1.353 9.01177C1.91478 8.27593 2.70601 7.70624 3.72669 7.30272C4.74738 6.89128 5.89466 6.68556 7.16854 6.68556C8.41077 6.68556 9.52245 6.9071 10.5036 7.35019C11.4926 7.79328 12.2601 8.42626 12.8061 9.24914C13.352 10.0641 13.625 10.9978 13.625 12.0501H9.47102C9.47102 11.3459 9.25343 10.8 8.81826 10.4122C8.39099 10.0245 7.80944 9.8307 7.0736 9.8307C6.32984 9.8307 5.74037 9.99685 5.3052 10.3292C4.87793 10.6536 4.6643 11.069 4.6643 11.5754C4.6643 12.0184 4.90167 12.422 5.37641 12.7859C5.85114 13.142 6.68589 13.5139 7.88065 13.9016C9.07541 14.2814 10.0565 14.6928 10.824 15.1359C12.6913 16.212 13.625 17.6955 13.625 19.5866C13.625 21.0978 13.0553 22.2847 11.9159 23.1471C10.7766 24.0095 9.21387 24.4408 7.22788 24.4408C5.82741 24.4408 4.55748 24.1915 3.41811 23.693C2.28665 23.1867 1.43213 22.4983 0.854528 21.6279C0.284843 20.7497 0 19.7408 0 18.6015H4.17769C4.17769 19.5272 4.41506 20.2116 4.8898 20.6547C5.37245 21.0899 6.15181 21.3075 7.22788 21.3075C7.91625 21.3075 8.45825 21.1611 8.85386 20.8684C9.25739 20.5677 9.45915 20.1483 9.45915 19.6103Z" fill="white"/>
<path d="M20.7104 18.6015L22.8468 11.3617H27.1313L21.8973 26.3516L21.6718 26.8975C20.928 28.5591 19.6146 29.3899 17.7315 29.3899C17.2092 29.3899 16.6593 29.3108 16.0817 29.1525V26.2922H16.604C17.1657 26.2922 17.593 26.2092 17.8858 26.043C18.1864 25.8847 18.408 25.596 18.5504 25.1766L18.8708 24.3221L14.4083 11.3617H18.6809L20.7104 18.6015Z" fill="white"/>
<path d="M31.8549 11.3617L31.9855 12.869C32.8716 11.7059 34.0941 11.1244 35.6528 11.1244C36.99 11.1244 37.9869 11.5239 38.6437 12.3231C39.3083 13.1222 39.6525 14.3249 39.6762 15.9311V24.2034H35.6647V16.0972C35.6647 15.4484 35.5341 14.9737 35.273 14.673C35.0119 14.3644 34.5372 14.2102 33.8488 14.2102C33.0655 14.2102 32.4839 14.5187 32.1042 15.1359V24.2034H28.1045V11.3617H31.8549Z" fill="white"/>
<path d="M47.3314 21.355C47.8931 21.355 48.3283 21.2046 48.6369 20.904C48.9455 20.5954 49.0958 20.1681 49.0879 19.6222H52.8383C52.8383 21.0306 52.3319 22.1857 51.3192 23.0878C50.3143 23.9898 49.0167 24.4408 47.4263 24.4408C45.559 24.4408 44.0873 23.8552 43.0113 22.6842C41.9352 21.5132 41.3971 19.8912 41.3971 17.8182V17.652C41.3971 16.3544 41.6345 15.2111 42.1093 14.222C42.5919 13.2251 43.2842 12.4615 44.1862 11.9314C45.0882 11.3934 46.1564 11.1244 47.3907 11.1244C49.0602 11.1244 50.3855 11.5872 51.3666 12.513C52.3478 13.4387 52.8383 14.6928 52.8383 16.2753H49.0879C49.0879 15.6106 48.9257 15.1003 48.6013 14.7442C48.2769 14.3882 47.8417 14.2102 47.2958 14.2102C46.2593 14.2102 45.654 14.8708 45.4799 16.1922C45.4245 16.6115 45.3968 17.1891 45.3968 17.925C45.3968 19.2147 45.5511 20.1088 45.8597 20.6072C46.1683 21.1057 46.6588 21.355 47.3314 21.355Z" fill="white"/>
<path d="M60.7427 24.4408C58.7726 24.4408 57.1782 23.8552 55.9597 22.6842C54.7412 21.5053 54.132 19.9743 54.132 18.0911V17.7588C54.132 16.4454 54.3733 15.2862 54.856 14.2814C55.3465 13.2765 56.0586 12.5011 56.9923 11.9551C57.9259 11.4013 59.0337 11.1244 60.3155 11.1244C62.1195 11.1244 63.5437 11.6861 64.5881 12.8097C65.6325 13.9253 66.1547 15.484 66.1547 17.4858V19.0406H58.2029C58.3453 19.7606 58.6578 20.3264 59.1405 20.7378C59.6231 21.1492 60.2482 21.355 61.0157 21.355C62.2817 21.355 63.2707 20.9119 63.9828 20.0257L65.8105 22.1857C65.3121 22.8741 64.6039 23.424 63.6861 23.8355C62.7762 24.239 61.7951 24.4408 60.7427 24.4408ZM60.2917 14.2102C59.1207 14.2102 58.4244 14.9856 58.2029 16.5364H62.2381V16.2278C62.254 15.5869 62.0918 15.0924 61.7515 14.7442C61.4113 14.3882 60.9247 14.2102 60.2917 14.2102Z" fill="white"/>
<path d="M67.2704 17.6876C67.2704 15.6541 67.7095 14.0519 68.5878 12.8809C69.466 11.7099 70.6924 11.1244 72.267 11.1244C73.4143 11.1244 74.3796 11.5754 75.1629 12.4774V5.97345H79.1744V24.2034H75.5783L75.3765 22.8266C74.5536 23.9027 73.5092 24.4408 72.2432 24.4408C70.7162 24.4408 69.5056 23.8552 68.6115 22.6842C67.7174 21.5132 67.2704 19.8477 67.2704 17.6876ZM71.27 17.9368C71.27 20.2156 71.9347 21.355 73.2639 21.355C74.1501 21.355 74.7831 20.9831 75.1629 20.2393V15.3495C74.7989 14.5899 74.1738 14.2102 73.2877 14.2102C72.0533 14.2102 71.3848 15.2071 71.2819 17.201L71.27 17.9368Z" fill="white"/>
<path fill-rule="evenodd" clip-rule="evenodd" d="M83.4454 15.5224V3.60064C83.4454 2.00253 84.7409 0.707001 86.339 0.707001H98.2608H110.183C111.781 0.707001 113.076 2.00253 113.076 3.60064V15.5224V27.4442C113.076 29.0424 111.781 30.3379 110.183 30.3379H98.2608H86.339C84.7409 30.3379 83.4454 29.0424 83.4454 27.4442V15.5224ZM109.955 19.5932C110.857 18.3985 111.308 16.8041 111.308 14.8102V14.6203C111.308 12.579 110.869 10.9767 109.991 9.81362C109.113 8.6426 107.882 8.05709 106.3 8.05709C105.05 8.05709 104.041 8.53183 103.273 9.4813L103.155 8.29446H99.4161V26.0734H103.416V20.0798C104.175 20.9423 105.145 21.3735 106.324 21.3735C107.851 21.3735 109.061 20.7801 109.955 19.5932ZM105.315 11.1429C106.644 11.1429 107.309 12.2823 107.309 14.561V14.9883C107.269 17.1879 106.612 18.2877 105.338 18.2877C104.405 18.2877 103.764 17.9316 103.416 17.2195V12.1636C103.732 11.4831 104.365 11.1429 105.315 11.1429ZM89.8857 21.3735C91.3258 21.3735 92.4691 20.8315 93.3157 19.7475L93.4344 21.1361H97.1848V8.29446H93.1614V17.3026C92.7737 17.9593 92.1209 18.2877 91.2031 18.2877C90.135 18.2877 89.6009 17.7378 89.6009 16.638V8.29446H85.6012V16.6142C85.6012 18.1492 85.9612 19.3282 86.6812 20.151C87.4092 20.966 88.4773 21.3735 89.8857 21.3735Z" fill="#40B674"/>
</svg>
