<svg width="24" height="25" viewBox="0 0 24 25" fill="none" xmlns="http://www.w3.org/2000/svg">
<path d="M15.4336 6.24609C15.4336 4.875 15.1348 3.88477 14.5371 3.27539C13.9512 2.66602 12.9785 2.36133 11.6191 2.36133H9.17578V10.5703H11.7598C13.0137 10.5703 13.9395 10.2422 14.5371 9.58594C15.1348 8.92969 15.4336 7.81641 15.4336 6.24609ZM17.209 17.127C17.209 15.5684 16.8164 14.4082 16.0312 13.6465C15.2578 12.8848 13.9863 12.5039 12.2168 12.5039H9.17578V22.0664C10.8633 22.1367 12.1934 22.1719 13.166 22.1719C14.5371 22.1719 15.5508 21.7559 16.207 20.9238C16.875 20.0918 17.209 18.8262 17.209 17.127ZM0.597656 24V22.7168L3.63867 22.2422V2.16797L0.597656 1.71094V0.427734H12.041C15.1699 0.427734 17.4785 0.849609 18.9668 1.69336C20.4551 2.52539 21.1992 3.87891 21.1992 5.75391C21.1992 7.16016 20.7598 8.37305 19.8809 9.39258C19.002 10.4121 17.8242 11.0801 16.3477 11.3965C18.5391 11.6191 20.1973 12.2168 21.3223 13.1895C22.4473 14.1504 23.0098 15.4629 23.0098 17.127C23.0098 19.4121 22.166 21.1465 20.4785 22.3301C18.791 23.5137 16.3711 24.1055 13.2188 24.1055L5.20312 24H0.597656Z" fill="#ccd7d2"/>
</svg>
