<svg width="20" height="25" viewBox="0 0 20 25" fill="none" xmlns="http://www.w3.org/2000/svg">
<path fill-rule="evenodd" clip-rule="evenodd" d="M13.9757 13.4448C14.1847 14.8204 13.8477 16.2758 12.9218 17.4575L9.34901 22.0176C7.56721 24.2917 4.27922 24.6909 2.00507 22.9091C-0.269076 21.1273 -0.668211 17.8393 1.11358 15.5652L4.68639 11.0051C4.80445 10.8544 4.92912 10.7119 5.05967 10.5778C4.85075 9.20223 5.18774 7.74682 6.11358 6.56515L9.68639 2.00507C11.4682 -0.269075 14.7562 -0.668211 17.0303 1.11358C19.3045 2.89537 19.7036 6.18336 17.9218 8.45751L14.349 13.0176C14.2309 13.1683 14.1063 13.3107 13.9757 13.4448ZM11.6481 12.6961C11.4432 12.3161 11.1584 11.9712 10.7968 11.6879C9.79093 10.8998 8.46389 10.8025 7.38733 11.3266C7.5922 11.7066 7.87702 12.0515 8.23856 12.3348C9.24447 13.1229 10.5715 13.2202 11.6481 12.6961ZM11.9993 14.7153C10.3641 15.3007 8.47327 15.0594 7.00507 13.9091C6.56108 13.5612 6.18856 13.1559 5.88978 12.712L2.68791 16.7986C1.58735 18.2033 1.83389 20.2342 3.23856 21.3348C4.64323 22.4353 6.67412 22.1888 7.77468 20.7841L11.3475 16.224C11.7039 15.7692 11.919 15.2487 11.9993 14.7153ZM7.03612 9.30733C8.67135 8.72194 10.5621 8.96325 12.0303 10.1136C12.4743 10.4614 12.8468 10.8667 13.1456 11.3107L16.3475 7.22403C17.448 5.81936 17.2015 3.78847 15.7968 2.68791C14.3922 1.58735 12.3613 1.83389 11.2607 3.23856L7.68791 7.79864C7.33153 8.25349 7.11641 8.774 7.03612 9.30733Z" fill="#ccd7d2"/>
</svg>
