<svg width="23" height="27" viewBox="0 0 23 27" fill="none" xmlns="http://www.w3.org/2000/svg">
<path d="M7.5332 6.33398C7.5332 4.79883 8.01953 3.49805 8.99219 2.43164C9.96484 1.35352 11.3242 0.5625 13.0703 0.0585938V1.41211C10.8906 2.10352 9.80078 3.08789 9.80078 4.36523C9.80078 4.69336 9.91211 4.93945 10.1348 5.10352C10.3691 5.26758 10.6211 5.4375 10.8906 5.61328C11.1719 5.77734 11.4238 5.98828 11.6465 6.24609C11.8809 6.49219 11.998 6.86133 11.998 7.35352C11.998 7.98633 11.7988 8.47266 11.4004 8.8125C11.002 9.14062 10.4922 9.30469 9.87109 9.30469C9.15625 9.30469 8.58789 9.04102 8.16602 8.51367C7.74414 7.98633 7.5332 7.25977 7.5332 6.33398ZM0.273438 6.33398C0.273438 4.79883 0.759766 3.49805 1.73242 2.43164C2.70508 1.35352 4.06445 0.5625 5.81055 0.0585938V1.41211C3.63086 2.10352 2.54102 3.08789 2.54102 4.36523C2.54102 4.69336 2.65234 4.93945 2.875 5.10352C3.10938 5.26758 3.36133 5.4375 3.63086 5.61328C3.91211 5.77734 4.16406 5.98828 4.38672 6.24609C4.62109 6.49219 4.73828 6.86133 4.73828 7.35352C4.73828 7.98633 4.53906 8.47266 4.14062 8.8125C3.74219 9.14062 3.23242 9.30469 2.61133 9.30469C1.89648 9.30469 1.32812 9.04102 0.90625 8.51367C0.484375 7.98633 0.273438 7.25977 0.273438 6.33398Z" fill="#ccd7d2"/>
<path d="M14.8984 20.0293C14.8984 21.5645 14.4121 22.8711 13.4395 23.9492C12.4668 25.0156 11.1074 25.8008 9.36133 26.3047V24.9512C11.541 24.2598 12.6309 23.2754 12.6309 21.998C12.6309 21.6699 12.5137 21.4238 12.2793 21.2598C12.0566 21.0957 11.8047 20.9316 11.5234 20.7676C11.2539 20.5918 11.002 20.3809 10.7676 20.1348C10.5449 19.877 10.4336 19.502 10.4336 19.0098C10.4336 18.377 10.6328 17.8965 11.0312 17.5684C11.4297 17.2285 11.9395 17.0586 12.5605 17.0586C13.2754 17.0586 13.8438 17.3223 14.2656 17.8496C14.6875 18.377 14.8984 19.1035 14.8984 20.0293ZM22.1582 20.0293C22.1582 21.5645 21.6719 22.8711 20.6992 23.9492C19.7266 25.0156 18.3672 25.8008 16.6211 26.3047V24.9512C18.8008 24.2598 19.8906 23.2754 19.8906 21.998C19.8906 21.6699 19.7734 21.4238 19.5391 21.2598C19.3164 21.0957 19.0645 20.9316 18.7832 20.7676C18.5137 20.5918 18.2617 20.3809 18.0273 20.1348C17.8047 19.877 17.6934 19.502 17.6934 19.0098C17.6934 18.377 17.8926 17.8965 18.291 17.5684C18.6895 17.2285 19.1992 17.0586 19.8203 17.0586C20.5352 17.0586 21.1035 17.3223 21.5254 17.8496C21.9473 18.377 22.1582 19.1035 22.1582 20.0293Z" fill="#ccd7d2"/>
</svg>
