<svg width="22" height="23" viewBox="0 0 22 23" fill="none" xmlns="http://www.w3.org/2000/svg">
  <path
    d="M11 2C9.5 2 8.32812 2.55208 7.48438 3.65625C6.64062 4.76042 6.21875 6.17188 6.21875 7.89062C6.20833 10.026 6.89583 11.7188 8.28125 12.9688C8.45833 13.1354 8.52083 13.349 8.46875 13.6094L8.10938 14.3594C7.99479 14.6094 7.82552 14.8047 7.60156 14.9453C7.3776 15.0859 6.90625 15.2865 6.1875 15.5469C6.15625 15.5573 5.4974 15.7708 4.21094 16.1875C2.92448 16.6042 2.23958 16.8333 2.15625 16.875C1.28125 17.2396 0.708333 17.6198 0.4375 18.0156C0.145833 18.6719 0 20.3333 0 23H22C22 20.3333 21.8542 18.6719 21.5625 18.0156C21.2917 17.6198 20.7188 17.2396 19.8438 16.875C19.7604 16.8333 19.0755 16.6042 17.7891 16.1875C16.5026 15.7708 15.8438 15.5573 15.8125 15.5469C15.0938 15.2865 14.6224 15.0859 14.3984 14.9453C14.1745 14.8047 14.0052 14.6094 13.8906 14.3594L13.5312 13.6094C13.4792 13.349 13.5417 13.1354 13.7188 12.9688C15.1042 11.7188 15.7917 10.026 15.7812 7.89062C15.7812 6.17188 15.3594 4.76042 14.5156 3.65625C13.6719 2.55208 12.5 2 11 2Z"
    fill="black" />
</svg>
