<svg width="15" height="14" viewBox="0 0 15 14" fill="none" xmlns="http://www.w3.org/2000/svg">
  <path
    d="M7.39258 0C3.56147 0 0.455078 3.13438 0.455078 7C0.455078 10.8656 3.56147 14 7.39258 14C11.2237 14 14.3301 10.8656 14.3301 7C14.3301 3.13438 11.2237 0 7.39258 0ZM9.95388 9.65938L8.93184 9.65469L7.39258 7.80313L5.85487 9.65312L4.83128 9.65781C4.76314 9.65781 4.70739 9.60312 4.70739 9.53281C4.70739 9.50312 4.71823 9.475 4.73682 9.45156L6.75148 7.02969L4.73682 4.60938C4.7181 4.58647 4.70772 4.5578 4.70739 4.52812C4.70739 4.45937 4.76314 4.40312 4.83128 4.40312L5.85487 4.40781L7.39258 6.25938L8.93029 4.40938L9.95233 4.40469C10.0205 4.40469 10.0762 4.45937 10.0762 4.52969C10.0762 4.55937 10.0654 4.5875 10.0468 4.61094L8.03523 7.03125L10.0483 9.45312C10.0669 9.47656 10.0778 9.50469 10.0778 9.53438C10.0778 9.60313 10.022 9.65938 9.95388 9.65938Z"
    fill="black" />
</svg>
