<svg width="21" height="20" viewBox="0 0 21 20" fill="none" xmlns="http://www.w3.org/2000/svg">
<path fill-rule="evenodd" clip-rule="evenodd" d="M17.0711 17.0711C15.6725 18.4696 13.8907 19.422 11.9509 19.8079C10.0111 20.1937 8.00043 19.9957 6.17317 19.2388C4.3459 18.4819 2.78412 17.2002 1.6853 15.5557C0.58649 13.9112 0 11.9778 0 10C0 8.02219 0.586489 6.08879 1.6853 4.4443C2.78412 2.79981 4.3459 1.51809 6.17316 0.76121C8.00043 0.00433307 10.0111 -0.1937 11.9509 0.192151C13.8907 0.578003 15.6725 1.53041 17.0711 2.92894L10 10L17.0711 17.0711ZM11 4.99998C11 5.55226 10.5523 5.99998 10 5.99998C9.44771 5.99998 9 5.55226 9 4.99998C9 4.44769 9.44771 3.99998 10 3.99998C10.5523 3.99998 11 4.44769 11 4.99998ZM20 9.5C20 9.85675 19.8755 10.1844 19.6675 10.4419C19.9977 10.708 20.2415 11.0769 20.3504 11.5H20.4135V12V14H18.4135H16.4135V12V11.5H16.4765C16.5972 11.0309 16.8838 10.6285 17.2701 10.3589C17.0999 10.1156 17 9.81945 17 9.5C17 8.67157 17.6716 8 18.5 8C19.3284 8 20 8.67157 20 9.5Z" fill="#9EA9A4"/>
</svg>
