<svg width="617" height="531" viewBox="0 0 617 531" fill="none" xmlns="http://www.w3.org/2000/svg">
<path d="M250.605 311.102C222.105 309.602 262.606 348.102 211.106 341.102C185.605 402.102 157.105 316.602 171.606 296.102C171.606 272.354 189.843 253.102 211.106 253.102C259.106 251.602 228.605 263.102 250.605 311.102Z" fill="#EFB4A4"/>
<path d="M250.605 311.102C222.105 309.602 262.606 348.102 211.106 341.102C185.605 402.102 157.105 316.602 171.606 296.102C171.606 272.354 189.843 253.102 211.106 253.102C259.106 251.602 228.605 263.102 250.605 311.102Z" fill="#EFB4A4"/>
<path d="M105.605 338.602C85.6055 338.602 117.605 400.602 59.1055 373.102C30.6055 351.602 20.6055 353.85 20.6055 330.102C20.6055 306.353 37.8425 287.102 59.1055 287.102C80.3684 287.102 79.1055 275.102 105.605 338.602Z" fill="#EFB4A4"/>
<path d="M105.605 338.602C85.6055 338.602 117.605 400.602 59.1055 373.102C30.6055 351.602 20.6055 353.85 20.6055 330.102C20.6055 306.353 37.8425 287.102 59.1055 287.102C80.3684 287.102 79.1055 275.102 105.605 338.602Z" fill="#955646"/>
<path d="M212.105 274.102C200.296 289.54 201.233 279.469 177.605 288.102C173.106 355.102 152.296 269.04 164.106 253.602C175.915 238.163 196.106 224.602 225.106 237.102C265.105 271.602 237.105 261.102 212.105 274.102Z" fill="#5C6A6C"/>
<path d="M74.6055 299.102C60.1055 334.602 61.0402 327.102 40.6056 327.102C29.6055 357.602 -2.89468 371.102 0.60552 299.102C0.60552 281.981 15.6055 265.602 40.6055 265.602C119.606 277.102 102.106 310.602 74.6055 299.102Z" fill="#0D2135"/>
<ellipse cx="122.605" cy="376.102" rx="10" ry="24" fill="#955646"/>
<ellipse cx="122.605" cy="376.102" rx="10" ry="24" fill="#955646"/>
<ellipse cx="114.778" cy="382.003" rx="10" ry="19.0958" transform="rotate(-2.01461 114.778 382.003)" fill="#955646"/>
<ellipse cx="114.778" cy="382.003" rx="10" ry="19.0958" transform="rotate(-2.01461 114.778 382.003)" fill="#955646"/>
<path d="M114.898 370.186C115.269 380.725 113.416 389.345 110.759 389.439C108.102 389.532 105.647 381.064 105.277 370.524C104.906 359.984 102.105 348.602 109.416 351.271C113.105 354.102 114.528 359.646 114.898 370.186Z" fill="#955646"/>
<path d="M114.898 370.186C115.269 380.725 113.416 389.345 110.759 389.439C108.102 389.532 105.647 381.064 105.277 370.524C104.906 359.984 102.105 348.602 109.416 351.271C113.105 354.102 114.528 359.646 114.898 370.186Z" fill="#955646"/>
<ellipse cx="127.705" cy="382.495" rx="10" ry="24" transform="rotate(10.2191 127.705 382.495)" fill="#955646"/>
<ellipse cx="127.705" cy="382.495" rx="10" ry="24" transform="rotate(10.2191 127.705 382.495)" fill="#955646"/>
<ellipse cx="133.506" cy="385.911" rx="10.7778" ry="24" transform="rotate(12.9988 133.506 385.911)" fill="#955646"/>
<ellipse cx="133.506" cy="385.911" rx="10.7778" ry="24" transform="rotate(12.9988 133.506 385.911)" fill="#955646"/>
<ellipse cx="131.637" cy="385.546" rx="12.948" ry="18.1561" transform="rotate(61.9437 131.637 385.546)" fill="#955646"/>
<ellipse cx="131.637" cy="385.546" rx="12.948" ry="18.1561" transform="rotate(61.9437 131.637 385.546)" fill="#955646"/>
<path d="M128.605 424.602C123.605 455.102 123.919 458.102 120.605 458.102C117.291 458.102 118.735 446.102 109.605 428.602C107.605 424.769 113.605 381.102 120.605 389.102C124.878 393.985 147.605 380.102 128.605 424.602Z" fill="#955646"/>
<path d="M309.27 463.038C305.605 463.038 303.557 462.129 299.184 458.103C277.106 447.102 284.105 449.102 293.437 448.457C297.605 447.602 299.15 449.366 303.522 453.393C307.895 457.419 312.605 463.102 309.27 463.038Z" fill="#EFB4A4"/>
<path fill-rule="evenodd" clip-rule="evenodd" d="M297.511 444.935C297.538 444.74 297.549 444.599 297.552 444.535C297.577 443.883 293.805 443.251 289.125 443.124C284.445 442.997 280.631 443.423 280.606 444.076C280.58 444.728 284.915 445.79 288.605 446.602C292.235 449.911 294.41 449.902 295.705 448.853C296.863 449.645 298.167 450.577 299.6 451.673C303.745 454.846 305.241 455.97 308.488 456.175C311.448 456.407 306.678 452.103 302.533 448.93C301.465 448.113 300.635 447.392 299.929 446.779C298.994 445.967 298.276 445.344 297.511 444.935Z" fill="#EFB4A4"/>
<path fill-rule="evenodd" clip-rule="evenodd" d="M299.417 446.579C298.46 446.415 297.362 446.104 296.105 445.602C294.672 445.222 293.139 444.928 291.775 444.667C289.435 444.217 287.593 443.864 287.61 443.341C287.637 442.513 291.66 441.972 296.596 442.133C301.324 442.287 305.175 443.03 305.467 443.82C306.441 444.29 307.26 445.164 308.376 446.354C309.113 447.14 309.98 448.065 311.106 449.102C315.478 453.128 320.441 458.665 317.106 458.602C313.441 458.602 311.861 457.178 307.489 453.151C304.036 449.972 301.251 447.922 299.417 446.579Z" fill="#EFB4A4"/>
<path d="M298.605 450.102C297.846 452.102 292.935 453.732 287.125 451.528C254.605 460.102 256.105 445.102 277.605 444.102C278.884 442.885 282.605 441.602 288.605 446.102C294.105 448.102 299.279 448.325 298.605 450.102Z" fill="#EFB4A4"/>
<path d="M290.605 465.601C290.605 467.81 285.105 465.601 278.105 466.601C270.105 466.101 252.605 463.31 252.605 461.101C265.605 435.102 271.202 459.101 278.105 459.101C285.009 459.101 291.605 461.101 290.605 465.601Z" fill="#EFB4A4"/>
<path d="M263.585 454.102C263.585 458.244 259.331 461.602 254.085 461.602C248.838 461.602 238.105 459.602 244.585 454.102C248.605 448.602 248.838 446.602 254.085 446.602C251.605 449.102 296.105 438.102 263.585 454.102Z" fill="#EFB4A4"/>
<path fill-rule="evenodd" clip-rule="evenodd" d="M268.166 505.956C267.749 506.13 267.326 506.272 266.897 506.378C264.397 507.166 261.265 507.918 257.727 508.627C257.562 508.662 257.396 508.695 257.229 508.726C236.708 512.774 203.213 515.392 199.975 515.126C195.297 514.742 191.987 508.537 192.584 501.266C192.972 496.538 194.916 492.524 197.516 490.4C196.711 487.576 216.801 488.045 233.055 488.424C242.361 488.641 250.41 488.829 252.558 488.352C254.6 484.004 263.165 477.889 270.058 475.097C271.591 473.446 273.982 472.102 277.606 472.102C277.606 472.102 291.825 475.626 299.432 478.27C300.368 478.221 301.268 478.318 302.105 478.602C308.644 480.816 325.106 492.795 321.247 493.963C319.106 495.102 314.984 495.01 308.445 492.795C306.425 492.111 303.329 491.457 300.028 490.834C305.998 492.896 311.684 496.673 308.57 497.2C306.606 498.602 302.405 498.72 295.716 497.011C291.294 497.203 288.056 497.07 285.725 496.711C280.54 500.391 275.43 503.402 272.175 503.995C271.337 504.668 269.963 505.322 268.166 505.956Z" fill="#EFB4A4"/>
<path d="M323.03 495.077L388.117 483.56L437.116 483.923L436.916 510.923L322.919 510.077L323.03 495.077Z" fill="#CCD7D2"/>
<path d="M326.843 449.684L356.843 486.756L351.843 487.756L323.343 450.684L326.843 449.684Z" fill="#E7592F"/>
<path d="M351.842 444.256L389.343 483.756L361.843 488.256L328.343 446.756L351.842 444.256Z" fill="#CCD7D2"/>
<path d="M351.659 444.207L391.055 444.207L436.872 484.467L387.928 483.584L351.659 444.207Z" fill="#CCD7D2"/>
<path d="M381.08 249.968L409.122 231.646L444.958 215.302L421.395 305.194L400.178 397.302L367.886 400.705L336.958 405.302L357.577 325.113L381.08 249.968Z" fill="#CCD7D2"/>
<path d="M375.08 272.968L403.122 254.646L438.958 238.302L420.458 327.302L397.458 428.302H368.958H330.958L351.577 348.113L375.08 272.968Z" fill="#CCD7D2"/>
<path d="M376.958 267.302L399.458 251.802L425.458 241.302L405.458 308.802L391.458 377.802L366.958 379.802L343.458 383.802L359.13 322.336L376.958 267.302Z" fill="black"/>
<path d="M443.958 215.302L616.458 286.302L609.958 413.802L397.458 428.302L443.958 215.302Z" fill="#CCD7D2"/>
<path d="M442.958 424.802L503.458 420.802L498.958 436.302L540.958 452.302H410.458L454.458 436.302L442.958 424.802Z" fill="#CCD7D2"/>
<line x1="295.958" y1="59.1436" x2="295.958" y2="0.164818" stroke="#ECF5F1" stroke-width="5"/>
<ellipse cx="294.249" cy="82.542" rx="26.3062" ry="23.3984" fill="#F3BA63"/>
<path d="M296.207 39.5511L378.264 89.3431H214.149L296.207 39.5511Z" fill="#1A3627"/>
<path d="M378.339 272.723L400.769 260.089L416.743 254.968L415.796 256.805L401.214 261.536L377.615 273.725L378.339 272.723Z" fill="#40B674"/>
<path d="M377.721 274.906L399.917 263.215L415.89 258.095L414.944 259.932L400.362 264.662L377.058 275.853L377.721 274.906Z" fill="#40B674"/>
<path d="M377.248 276.894L400.351 266.006L415.133 261.222L414.187 263.058L400.351 267.331L377.248 277.746L377.248 276.894Z" fill="#40B674"/>
<path d="M377.145 279.188L398.463 269.472L413.645 265.534L412.745 266.947L398.886 270.585L376.458 279.958L377.145 279.188Z" fill="#40B674"/>
<path d="M376.558 280.866L397.653 271.876L412.835 267.939L411.935 269.351L398.076 272.989L375.929 281.595L376.558 280.866Z" fill="#40B674"/>
<path d="M376.109 282.395L398.066 274.022L412.115 270.343L411.216 271.755L398.066 275.041L376.109 283.051L376.109 282.395Z" fill="#40B674"/>
</svg>
