<svg width="35" height="36" viewBox="0 0 35 36" fill="none" xmlns="http://www.w3.org/2000/svg">
<path fill-rule="evenodd" clip-rule="evenodd" d="M10.4163 34.0642C15.5299 34.0642 19.6753 29.9189 19.6753 24.8053C19.6753 19.6917 15.5299 15.5463 10.4163 15.5463C5.30274 15.5463 1.15735 19.6917 1.15735 24.8053C1.15735 29.9189 5.30274 34.0642 10.4163 34.0642ZM10.4163 31.7496C14.2515 31.7496 17.3606 28.6405 17.3606 24.8053C17.3606 20.9701 14.2515 17.8611 10.4163 17.8611C6.58115 17.8611 3.4721 20.9701 3.4721 24.8053C3.4721 28.6405 6.58115 31.7496 10.4163 31.7496Z" fill="#9EA9A4"/>
<rect y="27.12" width="4.6295" height="2.31475" transform="rotate(-90 0 27.12)" fill="#9EA9A4"/>
<rect x="18.5181" y="27.12" width="4.6295" height="2.31475" transform="rotate(-90 18.5181 27.12)" fill="#9EA9A4"/>
<rect x="8.10156" y="13.926" width="4.6295" height="2.31475" fill="#9EA9A4"/>
<rect x="1.07178" y="18.796" width="4.6295" height="2.31475" transform="rotate(-45 1.07178 18.796)" fill="#9EA9A4"/>
<rect x="16.6685" y="15.6111" width="4.6295" height="2.31475" transform="rotate(45 16.6685 15.6111)" fill="#9EA9A4"/>
<rect x="12.9119" y="35.4532" width="4.6295" height="2.31475" transform="rotate(-180 12.9119 35.4532)" fill="#9EA9A4"/>
<rect x="19.9418" y="30.5831" width="4.6295" height="2.31475" transform="rotate(135 19.9418 30.5831)" fill="#9EA9A4"/>
<rect x="4.34521" y="33.7679" width="4.6295" height="2.31475" transform="rotate(-135 4.34521 33.7679)" fill="#9EA9A4"/>
<path fill-rule="evenodd" clip-rule="evenodd" d="M12.1852 10.0964C14.7489 10.0964 16.8272 8.01808 16.8272 5.45438C16.8272 2.89069 14.7489 0.812408 12.1852 0.812408C9.6215 0.812408 7.54321 2.89069 7.54321 5.45438C7.54321 8.01808 9.6215 10.0964 12.1852 10.0964ZM12.1852 8.93587C14.108 8.93587 15.6667 7.37715 15.6667 5.45438C15.6667 3.53162 14.108 1.9729 12.1852 1.9729C10.2625 1.9729 8.70374 3.53162 8.70374 5.45438C8.70374 7.37715 10.2625 8.93587 12.1852 8.93587Z" fill="#9EA9A4"/>
<rect x="6.96301" y="6.6149" width="2.32099" height="1.16049" transform="rotate(-90 6.96301 6.6149)" fill="#9EA9A4"/>
<rect x="16.2468" y="6.6149" width="2.32099" height="1.16049" transform="rotate(-90 16.2468 6.6149)" fill="#9EA9A4"/>
<rect x="11.0247" y="9.15527e-05" width="2.32099" height="1.16049" fill="#9EA9A4"/>
<rect x="7.50024" y="2.44162" width="2.32099" height="1.16049" transform="rotate(-45 7.50024 2.44162)" fill="#9EA9A4"/>
<rect x="15.3195" y="0.844971" width="2.32099" height="1.16049" transform="rotate(45 15.3195 0.844971)" fill="#9EA9A4"/>
<rect x="13.4364" y="10.7927" width="2.32099" height="1.16049" transform="rotate(-180 13.4364 10.7927)" fill="#9EA9A4"/>
<rect x="16.9608" y="8.35114" width="2.32099" height="1.16049" transform="rotate(135 16.9608 8.35114)" fill="#9EA9A4"/>
<rect x="9.14148" y="9.94781" width="2.32099" height="1.16049" transform="rotate(-135 9.14148 9.94781)" fill="#9EA9A4"/>
<path fill-rule="evenodd" clip-rule="evenodd" d="M26.9814 18.626C30.8269 18.626 33.9444 15.5086 33.9444 11.663C33.9444 7.8175 30.8269 4.70007 26.9814 4.70007C23.1359 4.70007 20.0184 7.8175 20.0184 11.663C20.0184 15.5086 23.1359 18.626 26.9814 18.626ZM26.9815 16.8852C29.8656 16.8852 32.2037 14.5472 32.2037 11.663C32.2037 8.77887 29.8656 6.4408 26.9815 6.4408C24.0973 6.4408 21.7592 8.77887 21.7592 11.663C21.7592 14.5472 24.0973 16.8852 26.9815 16.8852Z" fill="#9EA9A4"/>
<rect x="19.1481" y="13.4037" width="3.48148" height="1.74074" transform="rotate(-90 19.1481 13.4037)" fill="#9EA9A4"/>
<rect x="33.074" y="13.4037" width="3.48148" height="1.74074" transform="rotate(-90 33.074 13.4037)" fill="#9EA9A4"/>
<rect x="25.2407" y="3.4816" width="3.48148" height="1.74074" fill="#9EA9A4"/>
<rect x="19.9541" y="7.14395" width="3.48148" height="1.74074" transform="rotate(-45 19.9541 7.14395)" fill="#9EA9A4"/>
<rect x="31.6831" y="4.74887" width="3.48148" height="1.74074" transform="rotate(45 31.6831 4.74887)" fill="#9EA9A4"/>
<rect x="28.8582" y="19.6705" width="3.48148" height="1.74074" transform="rotate(-180 28.8582 19.6705)" fill="#9EA9A4"/>
<rect x="34.1448" y="16.0081" width="3.48148" height="1.74074" transform="rotate(135 34.1448 16.0081)" fill="#9EA9A4"/>
<rect x="22.4158" y="18.4032" width="3.48148" height="1.74074" transform="rotate(-135 22.4158 18.4032)" fill="#9EA9A4"/>
</svg>
