<svg width="1441" height="444" viewBox="0 0 1441 444" fill="none" xmlns="http://www.w3.org/2000/svg">
<g opacity="0.5">
<path d="M699.743 7.81842C700.305 7.93438 700.726 8.04777 701.014 8.15466C700.729 8.26183 700.312 8.37561 699.754 8.49211C698.498 8.75419 696.627 9.01052 694.192 9.2565C689.328 9.74794 682.277 10.1926 673.549 10.5676C656.097 11.3176 631.972 11.788 605.313 11.8008C578.653 11.8135 554.513 11.3662 537.036 10.6329C528.296 10.2662 521.23 9.82831 516.35 9.34153C513.908 9.09788 512.027 8.84334 510.763 8.58247C510.201 8.46651 509.78 8.35312 509.492 8.24623C509.776 8.13906 510.194 8.02528 510.752 7.90878C512.007 7.6467 513.879 7.39037 516.314 7.14439C521.177 6.65295 528.229 6.20829 536.957 5.83325C554.409 5.08328 578.534 4.61287 605.193 4.60013C631.853 4.58738 655.992 5.03471 673.469 5.76798C682.209 6.13467 689.276 6.57258 694.156 7.05936C696.598 7.30301 698.479 7.55755 699.743 7.81842ZM509.13 8.06734C509.13 8.06734 509.131 8.06801 509.132 8.06936C509.131 8.06801 509.13 8.06734 509.13 8.06734ZM509.136 8.42546C509.136 8.42546 509.137 8.42479 509.138 8.42343C509.137 8.42479 509.136 8.42546 509.136 8.42546Z" stroke="#209959"/>
<path d="M887.532 12.8726C887.532 12.8824 887.53 12.9712 887.342 13.139C887.158 13.3039 886.85 13.4915 886.394 13.6927C885.484 14.0935 884.097 14.5003 882.233 14.9063C878.515 15.7167 873.001 16.5032 865.87 17.2555C851.614 18.7596 830.954 20.1207 805.4 21.2702C754.295 23.569 683.644 25.02 605.562 25.0778C527.48 25.1357 456.757 23.7895 405.535 21.5665C379.923 20.455 359.194 19.1245 344.862 17.6417C337.692 16.9 332.138 16.1216 328.378 15.3168C326.494 14.9135 325.086 14.5089 324.156 14.1094C323.689 13.9088 323.372 13.7217 323.179 13.5571C322.982 13.3896 322.976 13.3008 322.975 13.291C322.975 13.2811 322.977 13.1923 323.165 13.0245C323.35 12.8596 323.657 12.6721 324.114 12.4708C325.023 12.07 326.41 11.6632 328.274 11.2572C331.993 10.4468 337.506 9.66028 344.637 8.90798C358.893 7.40395 379.553 6.0428 405.107 4.89333C456.212 2.59451 526.863 1.14354 604.945 1.08567C683.028 1.0278 753.75 2.37399 804.972 4.59698C830.584 5.70853 851.313 7.039 865.646 8.52184C872.815 9.26354 878.369 10.0419 882.129 10.8467C884.013 11.25 885.422 11.6547 886.351 12.0541C886.818 12.2547 887.135 12.4418 887.329 12.6064C887.525 12.7739 887.532 12.8627 887.532 12.8726Z" stroke="#209959"/>
<path d="M1068.6 21.6968C1068.61 21.8702 1068.52 22.1144 1068.18 22.4317C1067.84 22.7476 1067.31 23.0857 1066.54 23.4369C1065.02 24.1379 1062.72 24.8414 1059.66 25.5397C1053.54 26.9344 1044.47 28.286 1032.76 29.5775C1009.34 32.1599 975.408 34.496 933.442 36.4682C849.513 40.4125 733.485 42.8998 605.252 42.9948C477.02 43.0898 360.868 40.7746 276.74 36.9549C234.675 35.045 200.624 32.7593 177.074 30.2117C165.296 28.9376 156.161 27.5995 149.967 26.2139C146.866 25.5201 144.529 24.8201 142.973 24.1214C142.193 23.7713 141.638 23.434 141.284 23.1187C140.928 22.8019 140.828 22.5578 140.824 22.3844C140.819 22.211 140.906 21.9667 141.246 21.6494C141.584 21.3335 142.122 20.9955 142.884 20.6442C144.404 19.9433 146.705 19.2398 149.77 18.5415C155.892 17.1467 164.958 15.7952 176.67 14.5036C200.088 11.9212 234.021 9.58509 275.987 7.6129C359.915 3.66865 475.943 1.18136 604.176 1.08632C732.409 0.991285 848.56 3.3065 932.688 7.12619C974.754 9.03611 1008.8 11.3218 1032.35 13.8695C1044.13 15.1436 1053.27 16.4816 1059.46 17.8673C1062.56 18.561 1064.9 19.2611 1066.46 19.9597C1067.24 20.3098 1067.79 20.6471 1068.14 20.9624C1068.5 21.2792 1068.6 21.5234 1068.6 21.6968Z" stroke="#209959"/>
<path fill-rule="evenodd" clip-rule="evenodd" d="M122.455 15.7799C27.0891 21.18 -30.4546 28.1558 -30.2598 35.7358C-29.8274 52.5524 254.631 65.9746 605.097 65.7151C955.562 65.4555 1239.32 51.6125 1238.89 34.7959C1238.73 28.7914 1202.37 23.2197 1139.72 18.549H1125.7C1150.39 20.2365 1171.53 22.053 1188.63 23.974C1204.72 25.7824 1217.19 27.68 1225.63 29.6423C1229.86 30.6253 1233.03 31.6126 1235.13 32.5892C1236.18 33.0789 1236.9 33.5404 1237.35 33.956C1237.8 34.3722 1237.88 34.6501 1237.89 34.7966C1237.89 34.9432 1237.82 35.2212 1237.4 35.638C1236.97 36.0543 1236.27 36.5168 1235.24 37.0081C1233.2 37.9877 1230.08 38.9797 1225.9 39.9689C1217.56 41.9436 1205.18 43.8597 1189.19 45.6918C1157.2 49.3548 1110.84 52.6686 1053.5 55.4659C938.832 61.0602 780.293 64.5856 605.071 64.7154C429.849 64.8452 271.135 61.5547 156.178 56.1304C98.6969 53.4182 52.1725 50.1732 20.0001 46.5577C3.90805 44.7493 -8.56113 42.8516 -17.0064 40.8894C-21.2371 39.9064 -24.4041 38.9191 -26.4994 37.9425C-27.5501 37.4528 -28.2748 36.9913 -28.7249 36.5757C-29.1756 36.1595 -29.256 35.8816 -29.2598 35.735C-29.2635 35.5885 -29.1974 35.3105 -28.7681 34.8936C-28.3394 34.4774 -27.6385 34.0148 -26.613 33.5236C-24.568 32.5439 -21.4518 31.552 -17.2719 30.5627C-8.92783 28.588 3.44331 26.672 19.4418 24.8398C45.1089 21.9004 80.03 19.1858 122.455 16.7826V15.7799Z" fill="#209959"/>
<path fill-rule="evenodd" clip-rule="evenodd" d="M-82.1572 33.4656C-147.797 39.3526 -185.215 46.1366 -185.037 53.3357C-184.491 75.434 170.085 93.0753 606.931 92.7386C1043.78 92.4019 1397.47 74.2147 1396.92 52.1164C1396.75 45.2438 1362.34 38.8023 1301.86 33.1986V34.2004C1313.69 35.2968 1324.52 36.4251 1334.28 37.5823C1354.35 39.9591 1369.9 42.454 1380.44 45.0355C1385.71 46.3283 1389.68 47.6298 1392.31 48.9236C1393.63 49.5716 1394.56 50.1916 1395.15 50.7662C1395.74 51.3388 1395.91 51.7857 1395.92 52.1172C1395.93 52.4486 1395.78 52.8958 1395.22 53.4693C1394.66 54.0447 1393.76 54.6661 1392.47 55.3162C1389.9 56.614 1386 57.9216 1380.79 59.2224C1370.38 61.8201 1354.95 64.3388 1335 66.7465C1295.13 71.5602 1237.35 75.9145 1165.87 79.5897C1022.93 86.9398 825.318 91.5705 606.906 91.7389C388.495 91.9072 190.657 87.5812 47.3604 80.4518C-24.2912 76.8869 -82.289 72.6219 -122.399 67.8698C-142.46 65.493 -158.012 62.9981 -168.552 60.4166C-173.83 59.1238 -177.795 57.8223 -180.428 56.5285C-181.747 55.8805 -182.677 55.2605 -183.268 54.6859C-183.856 54.1133 -184.029 53.6664 -184.037 53.3349C-184.045 53.0035 -183.895 52.5563 -183.335 51.9828C-182.773 51.4074 -181.873 50.7859 -180.586 50.1359C-178.017 48.8381 -174.116 47.5305 -168.902 46.2297C-158.491 43.632 -143.062 41.1133 -123.119 38.7056C-111.064 37.2502 -97.3707 35.8368 -82.1572 34.4714V33.4656Z" fill="#209959"/>
<path fill-rule="evenodd" clip-rule="evenodd" d="M-208.606 49.3165C-283.482 56.6428 -326.058 65.0496 -325.855 73.9607C-325.22 101.799 92.6802 124.019 607.552 123.589C1122.42 123.159 1539.29 100.243 1538.66 72.4045C1538.46 63.6292 1496.8 55.4123 1423.71 48.2871V49.2895C1438.79 50.7605 1452.53 52.2779 1464.85 53.837C1488.49 56.8311 1506.83 59.9745 1519.25 63.2284C1525.48 64.8575 1530.16 66.5 1533.28 68.1375C1534.84 68.957 1535.95 69.7487 1536.67 70.4959C1537.39 71.2385 1537.65 71.8706 1537.66 72.4053C1537.67 72.94 1537.44 73.5725 1536.76 74.3163C1536.08 75.0646 1535 75.8582 1533.47 76.6802C1530.43 78.3229 1525.82 79.9732 1519.67 81.6125C1507.39 84.8871 1489.2 88.061 1465.7 91.0944C1418.69 97.1596 1350.58 102.646 1266.34 107.277C1097.87 116.538 864.952 122.374 607.529 122.589C350.105 122.804 116.931 117.357 -51.9592 108.377C-136.408 103.887 -204.766 98.5147 -252.042 92.5282C-275.686 89.5341 -294.022 86.3906 -306.45 83.1367C-312.672 81.5077 -317.357 79.8652 -320.475 78.2276C-322.035 77.4082 -323.151 76.6165 -323.869 75.8693C-324.583 75.1267 -324.843 74.4945 -324.855 73.9599C-324.867 73.4252 -324.636 72.7927 -323.956 72.0489C-323.272 71.3005 -322.192 70.507 -320.669 69.685C-317.626 68.0423 -313.017 66.392 -306.869 64.7526C-294.59 61.4781 -276.399 58.3042 -252.892 55.2708C-239.745 53.5742 -224.947 51.923 -208.606 50.3231V49.3165Z" fill="#209959"/>
<path fill-rule="evenodd" clip-rule="evenodd" d="M-385.63 78.0988C-424.484 84.4537 -445.557 91.2753 -445.405 98.3628C-444.686 131.788 27.8349 158.466 610.001 157.95C1192.17 157.434 1663.52 129.92 1662.81 96.4949C1662.63 88.2897 1634.02 80.4912 1582.34 73.4016V74.408C1607.64 77.8807 1627.35 81.5183 1640.88 85.2796C1647.92 87.2359 1653.22 89.2102 1656.76 91.1825C1658.53 92.1688 1659.8 93.128 1660.63 94.044C1661.46 94.9538 1661.79 95.7662 1661.81 96.4958C1661.82 97.2253 1661.52 98.0383 1660.74 98.9496C1659.95 99.867 1658.71 100.828 1656.99 101.818C1653.53 103.796 1648.31 105.78 1641.36 107.749C1627.47 111.682 1606.9 115.493 1580.32 119.135C1527.17 126.418 1450.16 133.005 1354.91 138.565C1164.41 149.685 901.05 156.692 609.98 156.95C318.909 157.208 55.2575 150.668 -135.709 139.886C-231.196 134.495 -308.491 128.044 -361.948 120.856C-388.684 117.261 -409.42 113.486 -423.477 109.578C-430.514 107.622 -435.82 105.647 -439.356 103.675C-441.125 102.689 -442.402 101.73 -443.231 100.814C-444.054 99.9039 -444.389 99.0914 -444.405 98.3619C-444.42 97.6323 -444.12 96.8193 -443.336 95.9081C-442.546 94.9907 -441.311 94.0293 -439.585 93.0399C-436.133 91.0614 -430.913 89.0777 -423.96 87.109C-413.793 84.2299 -400.044 81.416 -382.978 78.6859H-385.63V78.0988Z" fill="#209959"/>
<path fill-rule="evenodd" clip-rule="evenodd" d="M-536.111 115.393C-541.549 118.209 -544.32 121.073 -544.262 123.975C-543.475 163.184 -26.6381 194.48 610.126 193.875C1246.89 193.271 1762.45 160.996 1761.67 121.786C1761.62 119.63 1760.02 117.498 1756.92 115.393H1755.07C1759.02 117.754 1760.63 119.913 1760.67 121.787C1760.7 123.663 1759.18 125.827 1755.32 128.196C1751.54 130.522 1745.83 132.85 1738.22 135.159C1723.03 139.774 1700.52 144.245 1671.45 148.517C1613.32 157.06 1529.08 164.788 1424.9 171.31C1216.53 184.354 928.475 192.573 610.106 192.876C291.738 193.178 3.35889 185.505 -205.518 172.857C-309.96 166.533 -394.505 158.966 -452.977 150.534C-482.221 146.317 -504.903 141.889 -520.281 137.303C-527.978 135.008 -533.786 132.691 -537.662 130.373C-541.611 128.011 -543.224 125.85 -543.262 123.974C-543.299 122.099 -541.773 119.935 -537.919 117.565C-536.741 116.841 -535.376 116.117 -533.826 115.393H-536.111Z" fill="#209959"/>
<path fill-rule="evenodd" clip-rule="evenodd" d="M-615.161 143.509C-618.497 145.959 -620.178 148.439 -620.131 150.944C-619.294 195.615 -68.9631 231.27 609.067 230.581C1287.1 229.893 1836.07 193.121 1835.23 148.45C1835.2 146.79 1834.41 145.143 1832.89 143.509H1831.48C1833.36 145.259 1834.2 146.913 1834.23 148.451C1834.28 150.7 1832.58 153.2 1828.49 155.888C1824.46 158.541 1818.37 161.194 1810.27 163.825C1794.09 169.082 1770.13 174.176 1739.17 179.044C1677.27 188.777 1587.58 197.581 1476.64 205.012C1254.78 219.873 948.049 229.237 609.048 229.581C270.048 229.926 -37.0194 221.185 -259.432 206.775C-370.643 199.57 -460.667 190.949 -522.929 181.342C-554.067 176.537 -578.219 171.492 -594.595 166.268C-602.79 163.653 -608.978 161.012 -613.109 158.368C-617.297 155.689 -619.089 153.192 -619.131 150.943C-619.174 148.695 -617.476 146.196 -613.394 143.509H-615.161Z" fill="#209959"/>
<path fill-rule="evenodd" clip-rule="evenodd" d="M-672.96 177.092C-672.997 177.397 -673.013 177.702 -673.008 178.008C-672.133 228.087 -97.068 268.059 611.435 267.287C1311.05 266.525 1879.17 226.32 1892.47 177.092H1891.42C1890.76 179.173 1888.92 181.372 1885.66 183.67C1881.45 186.646 1875.08 189.621 1866.62 192.57C1849.72 198.464 1824.68 204.175 1792.33 209.632C1727.65 220.543 1633.92 230.412 1518 238.743C1286.17 255.403 965.654 265.901 611.418 266.287C257.182 266.673 -63.6854 256.874 -296.094 240.719C-412.302 232.642 -506.371 222.977 -571.43 212.207C-603.967 206.821 -629.204 201.165 -646.315 195.309C-654.878 192.378 -661.345 189.417 -665.666 186.45C-670.026 183.457 -671.962 180.627 -672.008 178.007C-672.013 177.705 -671.993 177.4 -671.948 177.092H-672.96Z" fill="#209959"/>
<path fill-rule="evenodd" clip-rule="evenodd" d="M-691.351 206.77C-691.389 207.092 -691.405 207.415 -691.4 207.737C-690.51 260.635 -106.63 302.858 612.734 302.044C1323.1 301.24 1899.94 258.77 1913.4 206.77H1912.36C1911.69 209.003 1909.8 211.345 1906.48 213.781C1902.2 216.925 1895.74 220.067 1887.15 223.182C1869.99 229.407 1844.57 235.438 1811.72 241.202C1746.05 252.727 1650.89 263.152 1533.19 271.951C1297.81 289.548 972.382 300.637 612.717 301.044C253.052 301.451 -72.7336 291.099 -308.704 274.035C-426.694 265.503 -522.204 255.294 -588.259 243.918C-621.295 238.229 -646.917 232.255 -664.29 226.069C-672.983 222.974 -679.549 219.846 -683.938 216.712C-688.357 213.555 -690.353 210.551 -690.4 207.736C-690.405 207.417 -690.386 207.095 -690.34 206.77H-691.351Z" fill="#209959"/>
<path fill-rule="evenodd" clip-rule="evenodd" d="M-691.4 240.719C-655.38 293.755 -85.4144 335.282 611.711 334.455C1295.27 333.644 1855.27 292.403 1909.16 240.719H1907.67C1907.22 241.112 1906.74 241.507 1906.22 241.904C1901.94 245.203 1895.47 248.499 1886.88 251.766C1869.71 258.296 1844.28 264.624 1811.42 270.671C1745.71 282.763 1650.49 293.7 1532.72 302.931C1297.19 321.394 971.575 333.028 611.695 333.455C251.815 333.882 -74.165 323.021 -310.276 305.118C-428.336 296.166 -523.902 285.456 -589.994 273.52C-623.049 267.551 -648.684 261.284 -666.065 254.795C-674.761 251.548 -681.33 248.268 -685.72 244.98C-687.653 243.532 -689.127 242.111 -690.178 240.719H-691.4ZM1913.16 234.502C1913.33 233.809 1913.41 233.114 1913.4 232.417C1913.39 231.805 1913.31 231.195 1913.16 230.586V234.502Z" fill="#209959"/>
<path fill-rule="evenodd" clip-rule="evenodd" d="M-661.702 273.546C-577.745 325.259 -37.7957 364.568 615.156 363.742C1254.52 362.933 1784.38 323.918 1883.52 273.546H1881.25C1879.02 274.618 1876.59 275.688 1873.96 276.755C1857.02 283.627 1831.91 290.287 1799.48 296.652C1734.61 309.38 1640.62 320.893 1524.36 330.611C1291.85 350.046 970.409 362.292 615.141 362.742C259.874 363.191 -61.9271 351.758 -295.01 332.913C-411.556 323.489 -505.894 312.215 -571.137 299.652C-603.766 293.369 -629.068 286.772 -646.221 279.943C-651.548 277.822 -656.066 275.688 -659.763 273.546H-661.702ZM1900.17 256.626C1900.17 256.527 1900.17 256.428 1900.17 256.33C1900.17 256.32 1900.17 256.31 1900.17 256.3V256.626Z" fill="#209959"/>
<path fill-rule="evenodd" clip-rule="evenodd" d="M-673.009 270.271C-673.033 270.599 -673.043 270.927 -673.039 271.255C-673.036 271.483 -673.026 271.71 -673.009 271.938V270.271ZM-570.509 317.672C-373.831 360.153 84.5879 389.492 618.329 388.732C1137.98 387.993 1585.47 358.926 1789.19 317.672H1784.08C1720.48 330.254 1634.06 341.684 1529.76 351.492C1296.69 373.412 974.456 387.225 618.316 387.732C262.176 388.239 -60.4138 375.344 -294.066 354.089C-407.876 343.735 -500.556 331.401 -565.727 317.672H-570.509Z" fill="#209959"/>
<path fill-rule="evenodd" clip-rule="evenodd" d="M-438.121 354.755C-195.971 388.633 187.134 410.138 618.074 409.424C1050.97 408.707 1435.07 385.73 1676.24 350.787L1669.1 350.8C1633.54 355.861 1594.96 360.666 1553.64 365.184C1314.39 391.337 983.631 407.819 618.063 408.424C252.494 409.03 -78.6333 393.645 -318.468 368.284C-358.61 364.04 -396.191 359.516 -430.946 354.742L-438.121 354.755Z" fill="#209959"/>
<path fill-rule="evenodd" clip-rule="evenodd" d="M-298.563 381.617C-64.5284 408.544 259.918 424.903 618.329 424.264C982.54 423.615 1311.3 405.538 1545.54 376.993L1537.01 377.015C1534.6 377.303 1532.17 377.591 1529.74 377.878C1296.68 405.33 974.453 422.629 618.318 423.264C264.266 423.895 -56.6235 407.938 -289.932 381.595L-298.563 381.617Z" fill="#209959"/>
<path fill-rule="evenodd" clip-rule="evenodd" d="M-113.681 406.824C94.4059 425.481 346.612 436.14 618.34 435.584C914.131 434.978 1186.54 421.179 1403.93 398.465L1393.65 398.522C1178.01 420.605 909.507 433.988 618.331 434.584C351.209 435.13 102.964 424.838 -103.031 406.766L-113.681 406.824Z" fill="#209959"/>
<path fill-rule="evenodd" clip-rule="evenodd" d="M-100.552 408.184C105.644 429.783 355.559 442.123 624.818 441.479C917.922 440.778 1187.86 424.803 1403.27 398.506L1394.47 398.563C1180.56 424.229 913.967 439.788 624.81 440.479C359.49 441.114 112.967 429.14 -91.4353 408.125L-100.552 408.184Z" fill="#209959"/>
<path d="M1917.5 222C1917.5 237.098 1908.49 251.921 1891.13 266.316C1873.77 280.708 1848.15 294.613 1815.1 307.872C1749.01 334.389 1653.35 358.28 1535.1 378.347C1298.62 418.479 971.899 443.305 611 443.305C250.101 443.305 -76.6196 418.479 -313.105 378.347C-431.352 358.28 -527.014 334.389 -593.103 307.872C-626.15 294.613 -651.774 280.708 -669.127 266.316C-686.486 251.921 -695.5 237.098 -695.5 222C-695.5 206.902 -686.486 192.079 -669.127 177.683C-651.774 163.292 -626.15 149.387 -593.103 136.128C-527.014 109.611 -431.352 85.7203 -313.105 65.6533C-76.6196 25.5205 250.101 0.69519 611 0.69519C971.899 0.69519 1298.62 25.5205 1535.1 65.6533C1653.35 85.7203 1749.01 109.611 1815.1 136.128C1848.15 149.387 1873.77 163.292 1891.13 177.683C1908.49 192.079 1917.5 206.902 1917.5 222Z" stroke="#209959"/>
<path d="M699.743 436.182C700.305 436.066 700.726 435.952 701.014 435.845C700.729 435.738 700.312 435.624 699.754 435.508C698.498 435.246 696.627 434.989 694.192 434.743C689.328 434.252 682.277 433.807 673.549 433.432C656.097 432.682 631.972 432.212 605.313 432.199C578.653 432.186 554.513 432.634 537.036 433.367C528.296 433.734 521.23 434.172 516.35 434.658C513.908 434.902 512.027 435.157 510.763 435.418C510.201 435.533 509.78 435.647 509.492 435.754C509.776 435.861 510.194 435.975 510.752 436.091C512.007 436.353 513.879 436.61 516.314 436.856C521.177 437.347 528.229 437.792 536.957 438.167C554.409 438.917 578.534 439.387 605.193 439.4C631.853 439.413 655.992 438.965 673.469 438.232C682.209 437.865 689.276 437.427 694.156 436.941C696.598 436.697 698.479 436.442 699.743 436.182ZM509.13 435.933C509.13 435.933 509.131 435.932 509.132 435.931C509.131 435.932 509.13 435.933 509.13 435.933ZM509.136 435.575C509.136 435.575 509.137 435.575 509.138 435.577C509.137 435.575 509.136 435.575 509.136 435.575Z" stroke="#157341"/>
<path d="M887.532 431.127C887.532 431.118 887.53 431.029 887.342 430.861C887.158 430.696 886.85 430.509 886.394 430.307C885.484 429.906 884.097 429.5 882.233 429.094C878.515 428.283 873.001 427.497 865.87 426.744C851.614 425.24 830.954 423.879 805.4 422.73C754.295 420.431 683.644 418.98 605.562 418.922C527.48 418.864 456.757 420.21 405.535 422.433C379.923 423.545 359.194 424.875 344.862 426.358C337.692 427.1 332.138 427.878 328.378 428.683C326.494 429.086 325.086 429.491 324.156 429.891C323.689 430.091 323.372 430.278 323.179 430.443C322.982 430.61 322.976 430.699 322.975 430.709C322.975 430.719 322.977 430.808 323.165 430.976C323.35 431.14 323.657 431.328 324.114 431.529C325.023 431.93 326.41 432.337 328.274 432.743C331.993 433.553 337.506 434.34 344.637 435.092C358.893 436.596 379.553 437.957 405.107 439.107C456.212 441.405 526.863 442.856 604.945 442.914C683.028 442.972 753.75 441.626 804.972 439.403C830.584 438.291 851.313 436.961 865.646 435.478C872.815 434.736 878.369 433.958 882.129 433.153C884.013 432.75 885.422 432.345 886.351 431.946C886.818 431.745 887.135 431.558 887.329 431.394C887.525 431.226 887.532 431.137 887.532 431.127Z" stroke="#157341"/>
<path d="M1068.6 422.303C1068.61 422.13 1068.52 421.886 1068.18 421.568C1067.84 421.252 1067.31 420.914 1066.54 420.563C1065.02 419.862 1062.72 419.159 1059.66 418.46C1053.54 417.066 1044.47 415.714 1032.76 414.423C1009.34 411.84 975.408 409.504 933.442 407.532C849.513 403.588 733.485 401.1 605.252 401.005C477.02 400.91 360.868 403.225 276.74 407.045C234.675 408.955 200.624 411.241 177.074 413.788C165.296 415.063 156.161 416.401 149.967 417.786C146.866 418.48 144.529 419.18 142.973 419.879C142.193 420.229 141.638 420.566 141.284 420.881C140.928 421.198 140.828 421.442 140.824 421.616C140.819 421.789 140.906 422.033 141.246 422.351C141.584 422.667 142.122 423.005 142.884 423.356C144.404 424.057 146.705 424.76 149.77 425.459C155.892 426.853 164.958 428.205 176.67 429.496C200.088 432.079 234.021 434.415 275.987 436.387C359.915 440.331 475.943 442.819 604.176 442.914C732.409 443.009 848.56 440.694 932.688 436.874C974.754 434.964 1008.8 432.678 1032.35 430.131C1044.13 428.856 1053.27 427.518 1059.46 426.133C1062.56 425.439 1064.9 424.739 1066.46 424.04C1067.24 423.69 1067.79 423.353 1068.14 423.038C1068.5 422.721 1068.6 422.477 1068.6 422.303Z" stroke="#157341"/>
<path fill-rule="evenodd" clip-rule="evenodd" d="M122.455 428.22C27.0891 422.82 -30.4546 415.844 -30.2598 408.264C-29.8274 391.448 254.631 378.025 605.097 378.285C955.562 378.545 1239.32 392.388 1238.89 409.204C1238.73 415.209 1202.37 420.78 1139.72 425.451H1125.7C1150.39 423.764 1171.53 421.947 1188.63 420.026C1204.72 418.218 1217.19 416.32 1225.63 414.358C1229.86 413.375 1233.03 412.387 1235.13 411.411C1236.18 410.921 1236.9 410.46 1237.35 410.044C1237.8 409.628 1237.88 409.35 1237.89 409.203C1237.89 409.057 1237.82 408.779 1237.4 408.362C1236.97 407.946 1236.27 407.483 1235.24 406.992C1233.2 406.012 1230.08 405.02 1225.9 404.031C1217.56 402.056 1205.18 400.14 1189.19 398.308C1157.2 394.645 1110.84 391.331 1053.5 388.534C938.832 382.94 780.293 379.414 605.071 379.285C429.849 379.155 271.135 382.445 156.178 387.87C98.6969 390.582 52.1725 393.827 20.0001 397.442C3.90805 399.251 -8.56113 401.148 -17.0064 403.111C-21.2371 404.094 -24.4041 405.081 -26.4994 406.058C-27.5501 406.547 -28.2748 407.009 -28.7249 407.424C-29.1756 407.841 -29.256 408.118 -29.2598 408.265C-29.2635 408.412 -29.1974 408.69 -28.7681 409.106C-28.3394 409.523 -27.6385 409.985 -26.613 410.476C-24.568 411.456 -21.4518 412.448 -17.2719 413.437C-8.92783 415.412 3.44331 417.328 19.4418 419.16C45.1089 422.1 80.03 424.814 122.455 427.217V428.22Z" fill="#157341"/>
<path fill-rule="evenodd" clip-rule="evenodd" d="M-82.1572 410.535C-147.797 404.648 -185.215 397.864 -185.037 390.664C-184.491 368.566 170.085 350.925 606.931 351.262C1043.78 351.598 1397.47 369.785 1396.92 391.884C1396.75 398.756 1362.34 405.198 1301.86 410.802V409.8C1313.69 408.703 1324.52 407.575 1334.28 406.418C1354.35 404.041 1369.9 401.546 1380.44 398.965C1385.71 397.672 1389.68 396.37 1392.31 395.076C1393.63 394.428 1394.56 393.808 1395.15 393.234C1395.74 392.661 1395.91 392.214 1395.92 391.883C1395.93 391.551 1395.78 391.104 1395.22 390.531C1394.66 389.955 1393.76 389.334 1392.47 388.684C1389.9 387.386 1386 386.079 1380.79 384.778C1370.38 382.18 1354.95 379.661 1335 377.254C1295.13 372.44 1237.35 368.086 1165.87 364.41C1022.93 357.06 825.318 352.43 606.906 352.261C388.495 352.093 190.657 356.419 47.3604 363.548C-24.2912 367.113 -82.289 371.378 -122.399 376.13C-142.46 378.507 -158.012 381.002 -168.552 383.584C-173.83 384.876 -177.795 386.178 -180.428 387.472C-181.747 388.12 -182.677 388.74 -183.268 389.314C-183.856 389.887 -184.029 390.334 -184.037 390.665C-184.045 390.997 -183.895 391.444 -183.335 392.017C-182.773 392.593 -181.873 393.214 -180.586 393.864C-178.017 395.162 -174.116 396.47 -168.902 397.77C-158.491 400.368 -143.062 402.887 -123.119 405.294C-111.064 406.75 -97.3707 408.163 -82.1572 409.529V410.535Z" fill="#157341"/>
<path fill-rule="evenodd" clip-rule="evenodd" d="M-208.606 394.684C-283.482 387.357 -326.058 378.95 -325.855 370.039C-325.22 342.201 92.6802 319.981 607.552 320.411C1122.42 320.841 1539.29 343.757 1538.66 371.596C1538.46 380.371 1496.8 388.588 1423.71 395.713V394.711C1438.79 393.24 1452.53 391.722 1464.85 390.163C1488.49 387.169 1506.83 384.025 1519.25 380.772C1525.48 379.143 1530.16 377.5 1533.28 375.862C1534.84 375.043 1535.95 374.251 1536.67 373.504C1537.39 372.762 1537.65 372.129 1537.66 371.595C1537.67 371.06 1537.44 370.427 1536.76 369.684C1536.08 368.935 1535 368.142 1533.47 367.32C1530.43 365.677 1525.82 364.027 1519.67 362.387C1507.39 359.113 1489.2 355.939 1465.7 352.906C1418.69 346.84 1350.58 341.354 1266.34 336.723C1097.87 327.462 864.952 321.626 607.529 321.411C350.105 321.196 116.931 326.643 -51.9592 335.623C-136.408 340.113 -204.766 345.485 -252.042 351.472C-275.686 354.466 -294.022 357.609 -306.45 360.863C-312.672 362.492 -317.357 364.135 -320.475 365.772C-322.035 366.592 -323.151 367.384 -323.869 368.131C-324.583 368.873 -324.843 369.505 -324.855 370.04C-324.867 370.575 -324.636 371.207 -323.956 371.951C-323.272 372.699 -322.192 373.493 -320.669 374.315C-317.626 375.958 -313.017 377.608 -306.869 379.247C-294.59 382.522 -276.399 385.696 -252.892 388.729C-239.745 390.426 -224.947 392.077 -208.606 393.677V394.684Z" fill="#157341"/>
<path fill-rule="evenodd" clip-rule="evenodd" d="M-385.63 365.901C-424.484 359.546 -445.557 352.725 -445.405 345.637C-444.686 312.212 27.8349 285.534 610.001 286.05C1192.17 286.566 1663.52 314.08 1662.81 347.505C1662.63 355.71 1634.02 363.509 1582.34 370.598V369.592C1607.64 366.119 1627.35 362.482 1640.88 358.72C1647.92 356.764 1653.22 354.79 1656.76 352.818C1658.53 351.831 1659.8 350.872 1660.63 349.956C1661.46 349.046 1661.79 348.234 1661.81 347.504C1661.82 346.775 1661.52 345.962 1660.74 345.05C1659.95 344.133 1658.71 343.172 1656.99 342.182C1653.53 340.204 1648.31 338.22 1641.36 336.251C1627.47 332.318 1606.9 328.507 1580.32 324.865C1527.17 317.582 1450.16 310.995 1354.91 305.435C1164.41 294.315 901.05 287.308 609.98 287.05C318.909 286.792 55.2575 293.332 -135.709 304.114C-231.196 309.505 -308.491 315.956 -361.948 323.144C-388.684 326.739 -409.42 330.514 -423.477 334.422C-430.514 336.378 -435.82 338.353 -439.356 340.325C-441.125 341.311 -442.402 342.27 -443.231 343.186C-444.054 344.096 -444.389 344.909 -444.405 345.638C-444.42 346.368 -444.12 347.181 -443.336 348.092C-442.546 349.009 -441.311 349.971 -439.585 350.96C-436.133 352.939 -430.913 354.922 -423.96 356.891C-413.793 359.77 -400.044 362.584 -382.979 365.314H-385.63V365.901Z" fill="#157341"/>
<path fill-rule="evenodd" clip-rule="evenodd" d="M-536.111 328.607C-541.549 325.791 -544.32 322.927 -544.262 320.025C-543.475 280.816 -26.6381 249.52 610.126 250.125C1246.89 250.729 1762.45 283.004 1761.67 322.214C1761.62 324.37 1760.02 326.502 1756.92 328.607H1755.07C1759.02 326.246 1760.63 324.087 1760.67 322.213C1760.7 320.337 1759.18 318.173 1755.32 315.804C1751.54 313.478 1745.83 311.15 1738.22 308.841C1723.03 304.226 1700.52 299.755 1671.45 295.483C1613.32 286.94 1529.08 279.212 1424.9 272.69C1216.53 259.646 928.475 251.427 610.106 251.124C291.738 250.822 3.35889 258.495 -205.518 271.143C-309.96 277.467 -394.505 285.034 -452.977 293.466C-482.221 297.683 -504.903 302.111 -520.281 306.697C-527.978 308.992 -533.786 311.309 -537.662 313.627C-541.611 315.989 -543.224 318.15 -543.262 320.026C-543.299 321.901 -541.773 324.065 -537.919 326.435C-536.741 327.159 -535.376 327.883 -533.826 328.607H-536.111Z" fill="#157341"/>
<path fill-rule="evenodd" clip-rule="evenodd" d="M-615.161 300.491C-618.497 298.041 -620.178 295.561 -620.131 293.056C-619.294 248.385 -68.9631 212.73 609.067 213.419C1287.1 214.107 1836.07 250.879 1835.23 295.55C1835.2 297.21 1834.41 298.857 1832.89 300.491H1831.48C1833.36 298.742 1834.2 297.087 1834.23 295.549C1834.28 293.3 1832.58 290.8 1828.49 288.112C1824.46 285.46 1818.37 282.806 1810.27 280.175C1794.09 274.918 1770.13 269.824 1739.17 264.956C1677.27 255.223 1587.58 246.419 1476.64 238.989C1254.78 224.128 948.049 214.763 609.048 214.419C270.048 214.074 -37.0194 222.816 -259.432 237.225C-370.643 244.43 -460.667 253.051 -522.929 262.658C-554.067 267.463 -578.219 272.508 -594.595 277.733C-602.79 280.347 -608.978 282.988 -613.109 285.632C-617.297 288.312 -619.089 290.808 -619.131 293.057C-619.174 295.305 -617.476 297.804 -613.394 300.491H-615.161Z" fill="#157341"/>
<path fill-rule="evenodd" clip-rule="evenodd" d="M-672.96 266.908C-672.997 266.603 -673.013 266.298 -673.008 265.993C-672.133 215.913 -97.068 175.941 611.435 176.713C1311.05 177.475 1879.17 217.68 1892.47 266.908H1891.42C1890.76 264.827 1888.92 262.628 1885.66 260.33C1881.45 257.354 1875.08 254.379 1866.62 251.43C1849.72 245.536 1824.68 239.826 1792.33 234.369C1727.65 223.457 1633.92 213.588 1518 205.257C1286.17 188.597 965.654 178.099 611.418 177.713C257.182 177.327 -63.6854 187.126 -296.094 203.281C-412.302 211.358 -506.371 221.023 -571.43 231.793C-603.967 237.179 -629.204 242.835 -646.315 248.692C-654.878 251.622 -661.345 254.583 -665.666 257.55C-670.026 260.543 -671.962 263.373 -672.008 265.994C-672.013 266.295 -671.993 266.6 -671.948 266.908H-672.96Z" fill="#157341"/>
<path fill-rule="evenodd" clip-rule="evenodd" d="M-691.351 237.229C-691.389 236.908 -691.405 236.585 -691.4 236.263C-690.51 183.365 -106.63 141.142 612.734 141.956C1323.1 142.76 1899.94 185.23 1913.4 237.229H1912.36C1911.69 234.997 1909.8 232.655 1906.48 230.219C1902.2 227.075 1895.74 223.933 1887.15 220.818C1869.99 214.593 1844.57 208.562 1811.72 202.798C1746.05 191.273 1650.89 180.848 1533.19 172.049C1297.81 154.452 972.382 143.363 612.717 142.956C253.052 142.549 -72.7336 152.901 -308.704 169.965C-426.694 178.497 -522.204 188.706 -588.259 200.082C-621.295 205.771 -646.917 211.745 -664.29 217.931C-672.983 221.026 -679.549 224.154 -683.938 227.288C-688.357 230.445 -690.353 233.449 -690.4 236.264C-690.405 236.583 -690.386 236.905 -690.34 237.229H-691.351Z" fill="#157341"/>
<path fill-rule="evenodd" clip-rule="evenodd" d="M-691.4 203.281C-655.38 150.245 -85.4144 108.718 611.711 109.545C1295.27 110.356 1855.27 151.597 1909.16 203.281H1907.67C1907.22 202.888 1906.74 202.493 1906.22 202.096C1901.94 198.797 1895.47 195.501 1886.88 192.234C1869.71 185.704 1844.28 179.376 1811.42 173.329C1745.71 161.237 1650.49 150.3 1532.72 141.069C1297.19 122.606 971.575 110.972 611.695 110.545C251.815 110.118 -74.165 120.979 -310.276 138.882C-428.336 147.834 -523.902 158.544 -589.994 170.48C-623.049 176.449 -648.684 182.716 -666.065 189.205C-674.761 192.452 -681.33 195.732 -685.72 199.02C-687.653 200.468 -689.127 201.889 -690.178 203.281H-691.4ZM1913.16 209.498C1913.33 210.191 1913.41 210.886 1913.4 211.583C1913.39 212.195 1913.31 212.805 1913.16 213.414V209.498Z" fill="#157341"/>
<path fill-rule="evenodd" clip-rule="evenodd" d="M-661.702 170.454C-577.745 118.741 -37.7957 79.4322 615.156 80.2583C1254.52 81.0673 1784.38 120.082 1883.52 170.454H1881.25C1879.02 169.382 1876.59 168.312 1873.96 167.245C1857.02 160.373 1831.91 153.713 1799.48 147.348C1734.61 134.62 1640.62 123.107 1524.36 113.389C1291.85 93.9544 970.409 81.7077 615.141 81.2582C259.874 80.8087 -61.9271 92.2416 -295.01 111.087C-411.556 120.511 -505.894 131.785 -571.137 144.348C-603.766 150.631 -629.068 157.228 -646.221 164.057C-651.548 166.178 -656.066 168.312 -659.763 170.454H-661.702ZM1900.17 187.374C1900.17 187.473 1900.17 187.572 1900.17 187.67C1900.17 187.68 1900.17 187.69 1900.17 187.7V187.374Z" fill="#157341"/>
<path fill-rule="evenodd" clip-rule="evenodd" d="M-673.009 173.729C-673.033 173.401 -673.043 173.073 -673.039 172.745C-673.036 172.517 -673.026 172.29 -673.009 172.062V173.729ZM-570.509 126.328C-373.831 83.8474 84.5879 54.5079 618.329 55.2677C1137.98 56.0075 1585.47 85.0741 1789.19 126.328H1784.08C1720.48 113.746 1634.06 102.316 1529.76 92.5075C1296.69 70.5875 974.456 56.7746 618.316 56.2676C262.176 55.7606 -60.4138 68.6556 -294.066 89.9112C-407.876 100.265 -500.556 112.599 -565.727 126.328H-570.509Z" fill="#157341"/>
<path fill-rule="evenodd" clip-rule="evenodd" d="M-438.121 89.245C-195.971 55.3674 187.134 33.862 618.074 34.5758C1050.97 35.2928 1435.07 58.2697 1676.24 93.2133L1669.1 93.1999C1633.54 88.1388 1594.96 83.3335 1553.64 78.8164C1314.39 52.6626 983.631 36.1812 618.063 35.5758C252.494 34.9703 -78.6333 50.3554 -318.468 75.7156C-358.61 79.9603 -396.191 84.4841 -430.946 89.2585L-438.121 89.245Z" fill="#157341"/>
<path fill-rule="evenodd" clip-rule="evenodd" d="M-298.562 62.383C-64.5271 35.4564 259.919 19.0969 618.329 19.7359C982.538 20.3853 1311.3 38.4619 1545.54 67.0064L1537.01 66.985C1534.6 66.6964 1532.17 66.4089 1529.74 66.1225C1296.68 38.6703 974.453 21.3708 618.318 20.7359C264.267 20.1046 -56.6222 36.0624 -289.931 62.4046L-298.562 62.383Z" fill="#157341"/>
<path fill-rule="evenodd" clip-rule="evenodd" d="M-113.681 37.1756C94.4058 18.5189 346.612 7.86021 618.341 8.4163C914.132 9.02163 1186.54 22.8208 1403.93 45.5347L1393.66 45.4781C1178.01 23.3946 909.508 10.0121 618.331 9.41626C351.209 8.8696 102.964 19.1619 -103.031 37.2342L-113.681 37.1756Z" fill="#157341"/>
<path fill-rule="evenodd" clip-rule="evenodd" d="M-100.55 35.8159C105.645 14.2167 355.56 1.87693 624.818 2.52072C917.922 3.22152 1187.86 19.1971 1403.27 45.4934L1394.47 45.4368C1180.56 19.7712 913.966 4.21205 624.81 3.52069C359.491 2.88632 112.968 14.8599 -91.4336 35.8746L-100.55 35.8159Z" fill="#157341"/>
<path d="M1917.5 222C1917.5 206.902 1908.49 192.079 1891.13 177.683C1873.77 163.292 1848.15 149.387 1815.1 136.128C1749.01 109.611 1653.35 85.7203 1535.1 65.6532C1298.62 25.5204 971.899 0.69516 611 0.69516C250.101 0.69516 -76.6196 25.5204 -313.105 65.6532C-431.352 85.7203 -527.014 109.611 -593.103 136.128C-626.15 149.387 -651.774 163.292 -669.127 177.683C-686.486 192.079 -695.5 206.902 -695.5 222C-695.5 237.098 -686.486 251.921 -669.127 266.316C-651.774 280.708 -626.15 294.613 -593.103 307.872C-527.014 334.389 -431.352 358.28 -313.105 378.347C-76.6196 418.479 250.101 443.305 611 443.305C971.899 443.305 1298.62 418.479 1535.1 378.347C1653.35 358.28 1749.01 334.389 1815.1 307.872C1848.15 294.613 1873.77 280.708 1891.13 266.316C1908.49 251.921 1917.5 237.098 1917.5 222Z" stroke="#157341"/>
<path fill-rule="evenodd" clip-rule="evenodd" d="M-405.654 361.214C-362.521 373.932 -313.027 381.164 -260.564 381.129C-96.6672 381.021 34.1445 310.039 31.6125 222.586C29.0805 135.133 -105.836 64.3251 -269.733 64.4329C-321.396 64.4669 -369.772 71.5432 -411.721 83.9578H-408.121C-367.042 72.1683 -319.939 65.4655 -269.704 65.4325C-187.887 65.3787 -113.352 83.0275 -58.9939 111.556C-4.59201 140.108 29.3624 179.408 30.6125 222.587C31.8627 265.765 0.185242 305.109 -52.5613 333.731C-105.266 362.33 -178.776 380.076 -260.593 380.13C-311.64 380.163 -359.853 373.306 -402.099 361.214H-405.654Z" fill="#53ED97"/>
<path fill-rule="evenodd" clip-rule="evenodd" d="M-236.203 391.282C-198.789 397.882 -158.627 401.461 -116.901 401.435C79.8845 401.313 236.949 321.053 233.912 222.17C230.875 123.286 68.8875 43.2238 -127.898 43.3458C-176.205 43.3757 -222.118 48.2349 -263.857 57.0132H-258.873C-218.483 48.8682 -174.287 44.3741 -127.867 44.3453C-29.5967 44.2844 59.9355 64.2467 125.241 96.5239C190.606 128.83 231.411 173.308 232.912 222.17C234.412 271.032 196.34 315.559 132.962 347.945C69.6417 380.302 -18.6611 400.375 -116.931 400.436C-157.376 400.461 -196.34 397.094 -232.745 390.873V391.282H-236.203Z" fill="#53ED97"/>
<path fill-rule="evenodd" clip-rule="evenodd" d="M-16.6353 416.842C-0.0560989 417.766 16.8057 418.237 33.8912 418.227C264.731 418.093 448.979 330.306 445.421 222.149C441.862 113.991 251.844 26.4207 21.0045 26.5543C8.30914 26.5616 -4.24526 26.8341 -16.6353 27.3605V28.3622C-4.23536 27.8344 8.33004 27.5611 21.0374 27.5537C136.344 27.487 241.407 49.327 318.048 84.6476C394.771 120.005 442.661 168.687 444.421 222.149C446.18 275.611 401.494 324.347 327.101 359.792C252.787 395.2 149.165 417.161 33.8583 417.227C16.7828 417.237 -0.0680752 416.767 -16.6353 415.843V416.842Z" fill="#53ED97"/>
<path fill-rule="evenodd" clip-rule="evenodd" d="M148.894 430.269C163.319 430.836 177.919 431.121 192.665 431.113C455.662 430.971 665.576 337.495 661.522 222.328C657.467 107.162 440.98 13.916 177.983 14.0582C168.211 14.0635 158.512 14.1976 148.894 14.457V15.4576C158.523 15.1974 168.234 15.0628 178.018 15.0576C309.412 14.9865 429.14 38.2458 516.487 75.868C560.162 94.6797 595.695 117.063 620.547 141.875C645.394 166.682 659.52 193.867 660.522 222.329C661.524 250.79 649.313 277.99 626.213 302.823C603.109 327.661 569.153 350.081 526.804 368.94C442.109 406.655 324.023 430.043 192.63 430.114C177.895 430.122 163.306 429.836 148.894 429.27V430.269Z" fill="#53ED97"/>
<path fill-rule="evenodd" clip-rule="evenodd" d="M346.611 440.087C348.405 440.093 350.2 440.096 351.998 440.095C646.837 439.946 882.167 342.269 877.622 221.926C873.134 103.093 636.43 6.59564 346.611 4.33603V5.33505C489.595 6.44669 619.6 30.5126 715.097 68.852C764.074 88.5147 803.925 111.912 831.798 137.85C859.668 163.785 875.499 192.196 876.622 221.927C877.745 251.657 864.06 280.083 838.151 306.045C812.238 332.01 774.156 355.447 726.666 375.158C631.691 414.579 499.283 439.021 351.96 439.096C350.175 439.096 348.392 439.094 346.611 439.087V440.087Z" fill="#53ED97"/>
<path fill-rule="evenodd" clip-rule="evenodd" d="M521.337 443.211C523.232 443.217 525.129 443.22 527.028 443.219C838.46 443.068 1087.04 343.893 1082.25 221.706C1077.51 101.047 827.48 3.06824 521.337 0.780762V1.77972C672.39 2.90515 809.733 27.342 910.621 66.2763C962.359 86.2429 1004.46 110.003 1033.9 136.344C1063.35 162.683 1080.06 191.53 1081.25 221.706C1082.43 251.883 1067.98 280.744 1040.6 307.112C1013.22 333.48 972.99 357.28 922.82 377.296C822.486 417.326 682.612 442.144 526.989 442.22C525.103 442.221 523.219 442.218 521.337 442.211V443.211Z" fill="#53ED97"/>
<path fill-rule="evenodd" clip-rule="evenodd" d="M721.208 443.219C1033.45 437.101 1277.94 340.29 1273.07 221.879C1268.29 105.773 1025.49 10.6546 721.208 1.50217V2.50055C865.203 6.83081 995.387 30.4243 1093.03 66.3617C1147.32 86.3427 1191.5 110.12 1222.4 136.481C1253.3 162.843 1270.82 191.704 1272.07 221.88C1273.31 252.056 1258.15 280.932 1229.42 307.321C1200.69 333.71 1158.47 357.527 1105.83 377.558C1007.19 415.088 872.143 439.256 721.208 442.219V443.219ZM684.576 0.821838C680.504 0.792786 676.421 0.779144 672.33 0.781036C668.738 0.782684 665.155 0.796326 661.579 0.821838H684.576Z" fill="#53ED97"/>
<path fill-rule="evenodd" clip-rule="evenodd" d="M914.471 438.174C1218.92 423.914 1450.35 332.201 1445.49 221.294C1440.73 112.696 1211.03 22.6967 914.471 5.85736V6.85553C1046.15 14.3339 1164.62 36.2443 1256.01 67.788C1313.17 87.5156 1359.68 110.992 1392.21 137.02C1424.75 163.053 1443.18 191.536 1444.49 221.295C1445.79 251.053 1429.86 279.551 1399.6 305.611C1369.36 331.666 1324.9 355.182 1269.48 374.959C1176.64 408.088 1053.15 430.669 914.471 437.172V438.174Z" fill="#53ED97"/>
<path fill-rule="evenodd" clip-rule="evenodd" d="M895.149 440.095C897.092 440.099 899.036 440.101 900.983 440.1C902.337 440.1 903.689 440.098 905.041 440.095H895.149ZM1174.26 422.685C1424.36 389.278 1597.09 311.413 1592.62 220.755C1588.26 132.49 1417.13 56.4817 1174.26 21.8792V22.8812C1250.59 33.7597 1319.81 48.7288 1378.98 66.8797C1443.46 86.6605 1495.94 110.203 1532.65 136.307C1569.38 162.425 1590.15 190.974 1591.62 220.756C1593.08 250.537 1575.14 279.101 1540.99 305.247C1506.86 331.378 1456.7 354.96 1394.17 374.79C1331.87 394.548 1257.35 410.563 1174.26 421.67V422.685Z" fill="#53ED97"/>
<path fill-rule="evenodd" clip-rule="evenodd" d="M1392.58 400.198C1592.03 359.068 1718.64 293.996 1714.44 220.798C1710.22 147.27 1574.94 82.0271 1369.22 41.0637L1369.28 42.0838C1401.17 48.4368 1431.36 55.3732 1459.63 62.8332C1536.58 83.1429 1599.23 107.319 1643.06 134.131C1686.94 160.975 1711.69 190.286 1713.44 220.799C1715.19 251.312 1693.81 280.638 1653.02 307.509C1612.27 334.35 1552.4 358.567 1477.77 378.927C1451.16 386.189 1422.67 392.959 1392.51 399.181L1392.58 400.198Z" fill="#53ED97"/>
<path d="M611.001 0.5C971.582 0.5 1298.02 25.3471 1534.29 65.5152C1652.44 85.6 1748.01 109.511 1814.04 136.052C1847.06 149.323 1872.66 163.24 1890 177.644C1907.34 192.052 1916.35 206.888 1916.35 222C1916.35 237.112 1907.34 251.948 1890 266.356C1872.66 280.76 1847.06 294.677 1814.04 307.948C1748.01 334.489 1652.44 358.4 1534.29 378.485C1298.02 418.653 971.582 443.5 611.001 443.5C250.419 443.5 -76.0142 418.653 -312.291 378.485C-430.434 358.4 -526.012 334.489 -592.043 307.948C-625.061 294.677 -650.662 280.76 -668 266.356C-685.343 251.948 -694.35 237.112 -694.35 222C-694.35 206.888 -685.343 192.052 -668 177.644C-650.662 163.24 -625.061 149.323 -592.043 136.052C-526.012 109.511 -430.434 85.6 -312.291 65.5152C-76.0142 25.3471 250.419 0.5 611.001 0.5Z" stroke="#53ED97"/>
<path fill-rule="evenodd" clip-rule="evenodd" d="M1720.97 339.736C1686.32 350.885 1646.37 357.241 1603.99 357.211C1473.89 357.118 1370.03 296.892 1372.01 222.691C1374 148.491 1481.07 88.4149 1611.18 88.5075C1651.64 88.5363 1689.56 94.3815 1722.55 104.654H1719.11C1686.96 95.0074 1650.25 89.535 1611.15 89.5072C1546.24 89.461 1487.12 104.426 1444.02 128.608C1400.89 152.806 1373.99 186.106 1373.01 222.692C1372.04 259.278 1397.16 292.615 1438.99 316.873C1480.8 341.116 1539.11 356.165 1604.02 356.211C1645.09 356.24 1683.84 350.259 1717.68 339.736H1720.97Z" fill="#40B674"/>
<path fill-rule="evenodd" clip-rule="evenodd" d="M1627.65 361.214C1584.52 373.932 1535.03 381.164 1482.56 381.129C1318.67 381.021 1187.86 310.039 1190.39 222.586C1192.92 135.133 1327.84 64.3251 1491.73 64.4329C1543.4 64.4669 1591.77 71.5432 1633.72 83.9578H1630.12C1589.04 72.1683 1541.94 65.4655 1491.7 65.4325C1409.89 65.3787 1335.35 83.0275 1280.99 111.556C1226.59 140.108 1192.64 179.408 1191.39 222.587C1190.14 265.765 1221.81 305.109 1274.56 333.731C1327.27 362.33 1400.78 380.076 1482.59 380.13C1533.64 380.163 1581.85 373.306 1624.1 361.214H1627.65Z" fill="#40B674"/>
<path fill-rule="evenodd" clip-rule="evenodd" d="M1458.2 391.282C1420.79 397.882 1380.63 401.461 1338.9 401.435C1142.12 401.313 985.051 321.053 988.088 222.17C991.125 123.286 1153.11 43.2238 1349.9 43.3458C1398.2 43.3757 1444.12 48.2349 1485.86 57.0132H1480.87C1440.48 48.8682 1396.29 44.3741 1349.87 44.3453C1251.6 44.2844 1162.06 64.2467 1096.76 96.5239C1031.39 128.83 990.589 173.308 989.088 222.17C987.588 271.032 1025.66 315.559 1089.04 347.945C1152.36 380.302 1240.66 400.375 1338.93 400.436C1379.38 400.461 1418.34 397.094 1454.74 390.873V391.282H1458.2Z" fill="#40B674"/>
<path fill-rule="evenodd" clip-rule="evenodd" d="M1238.64 416.842C1222.06 417.766 1205.19 418.237 1188.11 418.227C957.269 418.093 773.021 330.306 776.58 222.149C780.138 113.991 970.156 26.4207 1201 26.5543C1213.69 26.5616 1226.25 26.8341 1238.64 27.3605V28.3622C1226.24 27.8344 1213.67 27.5611 1200.96 27.5537C1085.66 27.487 980.593 49.327 903.952 84.6476C827.229 120.005 779.339 168.687 777.58 222.149C775.821 275.611 820.506 324.347 894.899 359.792C969.213 395.2 1072.83 417.161 1188.14 417.227C1205.22 417.237 1222.07 416.767 1238.64 415.843V416.842Z" fill="#40B674"/>
<path fill-rule="evenodd" clip-rule="evenodd" d="M1073.11 430.269C1058.68 430.836 1044.08 431.121 1029.34 431.113C766.338 430.971 556.424 337.495 560.478 222.328C564.533 107.162 781.02 13.916 1044.02 14.0582C1053.79 14.0635 1063.49 14.1976 1073.11 14.457V15.4576C1063.48 15.1974 1053.77 15.0628 1043.98 15.0576C912.588 14.9865 792.86 38.2458 705.513 75.868C661.838 94.6797 626.305 117.063 601.453 141.875C576.606 166.682 562.48 193.867 561.478 222.329C560.476 250.79 572.687 277.99 595.787 302.823C618.891 327.661 652.847 350.081 695.196 368.94C779.891 406.655 897.977 430.043 1029.37 430.114C1044.11 430.122 1058.69 429.836 1073.11 429.27V430.269Z" fill="#40B674"/>
<path fill-rule="evenodd" clip-rule="evenodd" d="M875.389 440.087C873.595 440.093 871.8 440.096 870.002 440.095C575.163 439.946 339.833 342.269 344.378 221.926C348.866 103.093 585.57 6.59564 875.389 4.33603V5.33505C732.405 6.44669 602.4 30.5126 506.903 68.852C457.926 88.5147 418.075 111.912 390.202 137.85C362.332 163.785 346.501 192.196 345.378 221.927C344.255 251.657 357.94 280.083 383.849 306.045C409.762 332.01 447.844 355.447 495.334 375.158C590.309 414.579 722.717 439.021 870.04 439.096C871.825 439.096 873.608 439.094 875.389 439.087V440.087Z" fill="#40B674"/>
<path fill-rule="evenodd" clip-rule="evenodd" d="M700.663 443.211C698.768 443.217 696.871 443.22 694.972 443.219C383.54 443.068 134.96 343.893 139.753 221.706C144.485 101.047 394.52 3.06824 700.663 0.780762V1.77972C549.61 2.90515 412.267 27.342 311.379 66.2763C259.641 86.2429 217.541 110.003 188.096 136.344C158.652 162.683 141.936 191.53 140.753 221.706C139.569 251.883 154.021 280.744 181.398 307.112C208.776 333.48 249.01 357.28 299.18 377.296C399.514 417.326 539.388 442.144 695.011 442.22C696.897 442.221 698.781 442.218 700.663 442.211V443.211Z" fill="#40B674"/>
<path fill-rule="evenodd" clip-rule="evenodd" d="M500.792 443.219C188.549 437.101 -55.9352 340.29 -51.0654 221.879C-46.2903 105.773 196.512 10.6546 500.792 1.50217V2.50055C356.797 6.83081 226.613 30.4243 128.969 66.3617C74.6801 86.3427 30.5026 110.12 -0.396057 136.481C-31.2961 162.843 -48.8243 191.704 -50.0654 221.88C-51.3065 252.056 -36.1528 280.932 -7.42218 307.321C21.307 333.71 63.5271 357.527 116.171 377.558C214.807 415.088 349.857 439.256 500.792 442.219V443.219ZM537.424 0.821838C541.496 0.792786 545.579 0.779144 549.67 0.781036C553.262 0.782684 556.845 0.796326 560.421 0.821838H537.424Z" fill="#40B674"/>
<path fill-rule="evenodd" clip-rule="evenodd" d="M307.529 438.174C3.07697 423.914 -228.352 332.201 -223.489 221.294C-218.726 112.696 10.9722 22.6967 307.529 5.85736V6.85553C175.846 14.3339 57.3814 36.2443 -34.0098 67.788C-91.1663 87.5156 -137.679 110.992 -170.211 137.02C-202.749 163.053 -221.184 191.536 -222.489 221.295C-223.794 251.053 -207.858 279.551 -177.604 305.611C-147.356 331.666 -102.905 355.182 -47.4809 374.959C45.3633 408.088 168.849 430.669 307.529 437.172V438.174Z" fill="#40B674"/>
<path fill-rule="evenodd" clip-rule="evenodd" d="M326.851 440.095C324.908 440.099 322.964 440.101 321.017 440.1C319.663 440.1 318.311 440.098 316.959 440.095H326.851ZM47.7386 422.685C-202.357 389.278 -375.088 311.413 -370.615 220.755C-366.26 132.49 -195.135 56.4817 47.7386 21.8792V22.8812C-28.5878 33.7597 -97.812 48.7288 -156.98 66.8797C-221.461 86.6605 -273.943 110.203 -310.652 136.307C-347.382 162.425 -368.146 190.974 -369.615 220.756C-371.085 250.537 -353.139 279.101 -318.988 305.247C-284.856 331.378 -234.7 354.96 -172.173 374.79C-109.873 394.548 -35.3472 410.563 47.7386 421.67V422.685Z" fill="#40B674"/>
<path d="M611 0.5C250.418 0.5 -76.0148 25.3471 -312.292 65.5152C-430.435 85.6 -526.013 109.511 -592.044 136.052C-625.062 149.323 -650.663 163.24 -668.001 177.644C-685.344 192.052 -694.351 206.888 -694.351 222C-694.351 237.112 -685.344 251.948 -668.001 266.356C-650.663 280.76 -625.062 294.677 -592.044 307.948C-526.013 334.489 -430.435 358.4 -312.292 378.485C-76.0148 418.653 250.418 443.5 611 443.5C971.581 443.5 1298.01 418.653 1534.29 378.485C1652.43 358.4 1748.01 334.489 1814.04 307.948C1847.06 294.677 1872.66 280.76 1890 266.356C1907.34 251.948 1916.35 237.112 1916.35 222C1916.35 206.888 1907.34 192.052 1890 177.644C1872.66 163.24 1847.06 149.323 1814.04 136.052C1748.01 109.511 1652.43 85.6 1534.29 65.5152C1298.01 25.3471 971.581 0.5 611 0.5Z" stroke="#40B674"/>
</g>
<path d="M928.584 36.1823C928.584 36.3949 928.401 36.7412 927.697 37.1598C927.027 37.5586 926.023 37.9362 924.738 38.2613C922.176 38.9094 918.609 39.3212 914.649 39.3323C910.689 39.3435 907.12 38.9518 904.555 38.3181C903.268 38.0003 902.262 37.6283 901.589 37.2333C900.883 36.8186 900.698 36.4734 900.697 36.2608C900.697 36.0481 900.88 35.7019 901.584 35.2832C902.254 34.8844 903.258 34.5068 904.543 34.1818C907.105 33.5336 910.672 33.1219 914.632 33.1107C918.591 33.0996 922.161 33.4913 924.726 34.125C926.013 34.4428 927.019 34.8147 927.691 35.2097C928.398 35.6244 928.583 35.9696 928.584 36.1823Z" stroke="#1A3627"/>
<path d="M956.438 40.3378C956.444 41.581 955.472 42.9027 953.369 44.2087C951.294 45.4974 948.256 46.681 944.455 47.6875C936.861 49.6986 926.337 50.9736 914.686 51.0245C903.036 51.0753 892.5 49.8922 884.889 47.9474C881.08 46.9741 878.031 45.817 875.945 44.5466C873.831 43.259 872.848 41.9458 872.843 40.7026C872.837 39.4593 873.809 38.1376 875.912 36.8316C877.986 35.543 881.025 34.3593 884.825 33.3528C892.419 31.3417 902.944 30.0667 914.595 30.0159C926.245 29.965 936.781 31.1482 944.392 33.0929C948.201 34.0662 951.25 35.2233 953.335 36.4938C955.449 37.7814 956.433 39.0946 956.438 40.3378Z" stroke="#1A3627"/>
<path d="M983.523 48.1086C983.533 50.4517 981.791 52.814 978.324 55.0649C974.88 57.3011 969.857 59.3423 963.603 61.0727C951.101 64.5317 933.791 66.719 914.64 66.8026C895.49 66.8862 878.161 64.8499 865.629 61.5002C859.36 59.8244 854.32 57.8272 850.856 55.6211C847.369 53.4005 845.607 51.0536 845.597 48.7104C845.586 46.3672 847.328 44.005 850.796 41.7541C854.24 39.5178 859.262 37.4767 865.517 35.7462C878.019 32.2873 895.329 30.0999 914.48 30.0164C933.63 29.9328 950.959 31.969 963.49 35.3188C969.76 36.9946 974.8 38.9918 978.263 41.1979C981.75 43.4185 983.513 45.7654 983.523 48.1086Z" stroke="#1A3627"/>
<path fill-rule="evenodd" clip-rule="evenodd" d="M842.424 42.8961C828.159 47.6516 819.552 53.7948 819.581 60.47C819.646 75.2793 862.195 87.0991 914.617 86.8704C967.039 86.6416 1009.48 74.4509 1009.42 59.6417C1009.4 54.3542 1003.96 49.4478 994.587 45.3348H992C995.696 46.8149 998.84 48.4022 1001.36 50.0708C1006.09 53.201 1008.4 56.4565 1008.42 59.646C1008.43 62.8355 1006.15 66.1111 1001.45 69.2825C996.78 72.4289 989.954 75.3128 981.424 77.7626C964.38 82.6581 940.759 85.7563 914.613 85.8704C888.466 85.9845 864.819 83.0925 847.732 78.3459C839.182 75.9707 832.331 73.1464 827.637 70.0409C822.906 66.9107 820.595 63.6551 820.581 60.4656C820.567 57.2761 822.85 54.0005 827.554 50.8291C831.239 48.3445 836.27 46.0235 842.424 43.9508V42.8961Z" fill="#1A3627"/>
<path fill-rule="evenodd" clip-rule="evenodd" d="M811.818 58.4709C802 63.6552 796.403 69.6293 796.43 75.9691C796.511 95.4295 849.548 110.965 914.891 110.668C980.234 110.371 1033.14 94.3549 1033.06 74.8945C1033.03 68.8422 1027.88 63.1696 1018.84 58.2348V59.3768C1020.4 60.2448 1021.83 61.1337 1023.13 62.0414C1029.04 66.1621 1032.04 70.5221 1032.06 74.899C1032.08 79.276 1029.11 83.6631 1023.24 87.8372C1017.39 91.9921 1008.86 95.7893 998.219 99.0106C976.951 105.449 947.49 109.52 914.887 109.668C882.284 109.816 852.79 106.013 831.469 99.7678C820.802 96.6433 812.237 92.9237 806.357 88.8221C800.45 84.7015 797.448 80.3415 797.43 75.9645C797.411 71.5876 800.376 67.2004 806.249 63.0263C807.896 61.8555 809.757 60.713 811.818 59.6039V58.4709Z" fill="#1A3627"/>
<path fill-rule="evenodd" clip-rule="evenodd" d="M792.904 72.4296C781.704 78.8814 775.335 86.2846 775.366 94.1321C775.461 118.648 837.97 138.214 914.984 137.836C991.998 137.457 1054.35 117.276 1054.26 92.7605C1054.23 85.0328 1048 77.7967 1037.06 71.5221V72.6782C1039.1 73.8671 1040.96 75.0883 1042.63 76.3381C1049.6 81.5332 1053.24 87.0946 1053.26 92.7655C1053.28 98.4364 1049.69 104.033 1042.76 109.297C1035.85 114.547 1025.78 119.337 1013.23 123.398C988.149 131.515 953.413 136.647 914.98 136.836C876.547 137.025 841.773 132.235 816.63 124.365C804.052 120.428 793.941 115.737 786.989 110.555C780.021 105.359 776.388 99.7981 776.366 94.1271C776.344 88.4562 779.934 82.8594 786.862 77.5959C788.665 76.2262 790.683 74.8878 792.904 73.5856V72.4296Z" fill="#1A3627"/>
<path fill-rule="evenodd" clip-rule="evenodd" d="M766.425 97.7761C760.613 103.372 757.461 109.38 757.484 115.621C757.591 145.056 828.271 168.55 915.351 168.096C1002.43 167.641 1072.94 143.411 1072.83 113.976C1072.8 106.751 1068.52 99.883 1060.79 93.6398V94.934C1068 100.935 1071.8 107.369 1071.83 113.982C1071.85 120.909 1067.73 127.683 1059.89 134.009C1052.06 140.326 1040.65 146.081 1026.46 150.958C998.091 160.708 958.808 166.869 915.347 167.096C871.886 167.322 832.559 161.571 804.119 152.118C789.894 147.39 778.448 141.753 770.572 135.518C762.685 129.275 758.509 122.543 758.484 115.616C758.462 109.667 761.503 103.83 767.329 98.2933H766.425V97.7761Z" fill="#1A3627"/>
<path fill-rule="evenodd" clip-rule="evenodd" d="M743.916 130.619C743.103 133.099 742.688 135.621 742.697 138.176C742.815 172.705 820.123 200.265 915.369 199.733C1010.62 199.2 1087.73 170.778 1087.62 136.249C1087.61 134.35 1087.37 132.472 1086.91 130.619H1085.87C1086.36 132.48 1086.61 134.359 1086.62 136.254C1086.64 144.484 1082.07 152.48 1073.49 159.904C1064.92 167.325 1052.43 174.08 1036.91 179.801C1005.87 191.24 962.904 198.467 915.366 198.733C867.828 198.998 824.809 192.252 793.697 181.16C778.137 175.613 765.608 168.998 756.981 161.673C748.35 154.346 743.725 146.401 743.697 138.171C743.688 135.628 744.119 133.107 744.971 130.619H743.916Z" fill="#1A3627"/>
<path fill-rule="evenodd" clip-rule="evenodd" d="M732.092 155.379C731.593 157.536 731.341 159.72 731.348 161.926C731.474 201.265 813.792 232.663 915.211 232.057C1016.63 231.45 1098.74 199.068 1098.62 159.73C1098.62 158.268 1098.5 156.817 1098.27 155.379H1097.25C1097.49 156.821 1097.62 158.274 1097.62 159.736C1097.65 169.195 1092.74 178.346 1083.6 186.809C1074.46 195.272 1061.16 202.97 1044.63 209.488C1011.58 222.521 965.826 230.754 915.208 231.057C864.59 231.36 818.783 223.673 785.653 211.036C769.085 204.717 755.737 197.178 746.541 188.824C737.346 180.471 732.378 171.379 732.348 161.92C732.341 159.721 732.601 157.539 733.119 155.379H732.092Z" fill="#1A3627"/>
<path fill-rule="evenodd" clip-rule="evenodd" d="M723.446 184.953C723.441 185.221 723.438 185.49 723.439 185.759C723.57 229.861 809.588 265.061 915.565 264.381C1020.21 263.71 1105.19 228.304 1107.18 184.953H1106.18C1105.7 195.04 1100.59 204.765 1091.53 213.768C1081.97 223.264 1068.06 231.895 1050.79 239.202C1016.26 253.812 968.452 263.042 915.562 263.381C862.672 263.721 814.81 255.104 780.191 240.938C762.879 233.853 748.927 225.4 739.31 216.027C729.697 206.658 724.471 196.429 724.439 185.752C724.438 185.486 724.441 185.219 724.446 184.953H723.446Z" fill="#1A3627"/>
<path fill-rule="evenodd" clip-rule="evenodd" d="M720.695 211.088C720.69 211.372 720.687 211.656 720.688 211.94C720.821 258.523 808.157 295.706 915.759 294.989C1022.01 294.281 1108.3 256.881 1110.31 211.088H1109.31C1108.83 221.777 1103.62 232.069 1094.41 241.583C1084.7 251.617 1070.59 260.735 1053.05 268.451C1017.99 283.883 969.454 293.631 915.756 293.989C862.059 294.347 813.465 285.246 778.317 270.282C760.742 262.799 746.574 253.87 736.806 243.966C727.042 234.066 721.72 223.244 721.688 211.933C721.687 211.651 721.69 211.37 721.695 211.088H720.695Z" fill="#1A3627"/>
<path fill-rule="evenodd" clip-rule="evenodd" d="M720.688 240.985C726.076 287.69 811.331 324.26 915.606 323.531C1017.85 322.817 1101.62 286.499 1109.68 240.985H1108.66C1104.85 261.966 1084.51 281.184 1052.97 295.741C1017.89 311.929 969.328 322.156 915.604 322.531C861.879 322.907 813.263 313.359 778.098 297.661C745.124 282.941 724.306 262.981 721.696 240.985H720.688ZM1110.28 235.507C1110.3 234.898 1110.31 234.286 1110.31 233.674C1110.31 233.136 1110.3 232.599 1110.28 232.064V235.507Z" fill="#1A3627"/>
<path fill-rule="evenodd" clip-rule="evenodd" d="M725.13 269.893C737.689 315.433 818.454 350.05 916.122 349.322C1011.76 348.61 1091.01 314.252 1105.84 269.893H1104.79C1098.22 289.104 1079.28 306.551 1051.7 320.126C1017.08 337.164 969.145 347.927 916.119 348.322C863.093 348.717 815.109 338.668 780.403 322.147C751.398 308.34 731.886 290.133 726.172 269.893H725.13Z" fill="#1A3627"/>
<path fill-rule="evenodd" clip-rule="evenodd" d="M723.439 267.005C723.435 267.295 723.434 267.585 723.434 267.876C723.435 268.077 723.436 268.279 723.439 268.481V267.005ZM738.771 308.752C768.19 346.161 836.76 371.999 916.596 371.329C994.325 370.678 1061.26 345.081 1091.73 308.752H1090.43C1080.99 319.807 1068.11 329.877 1052.46 338.537C1017.77 357.748 969.734 369.884 916.594 370.329C863.454 370.775 815.367 359.445 780.585 340.816C763.517 331.675 749.705 320.809 740.051 308.752H738.771Z" fill="#1A3627"/>
<path fill-rule="evenodd" clip-rule="evenodd" d="M758.573 341.408C794.794 371.242 852.099 390.18 916.558 389.551C981.31 388.92 1038.76 368.686 1074.84 337.914L1073.28 337.931C1067.96 342.397 1062.18 346.639 1055.98 350.627C1020.37 373.546 971.082 388.02 916.556 388.551C862.031 389.083 812.688 375.571 776.99 353.348C770.968 349.599 765.338 345.605 760.138 341.391L758.573 341.408Z" fill="#1A3627"/>
<path fill-rule="evenodd" clip-rule="evenodd" d="M779.448 365.063C814.455 388.776 862.986 403.183 916.596 402.62C971.075 402.048 1020.25 386.129 1055.29 360.992L1053.53 361.018C1053.15 361.288 1052.77 361.557 1052.38 361.825C1017.7 385.876 969.694 401.062 916.595 401.62C863.769 402.174 815.936 388.145 781.211 365.037L779.448 365.063Z" fill="#1A3627"/>
<path fill-rule="evenodd" clip-rule="evenodd" d="M807.103 387.262C838.228 403.692 875.953 413.078 916.598 412.588C960.842 412.055 1001.59 399.903 1034.11 379.901L1032.09 379.966C1000.01 399.319 960.03 411.065 916.596 411.588C876.753 412.068 839.786 403.035 809.135 387.196L807.103 387.262Z" fill="#1A3627"/>
<path fill-rule="evenodd" clip-rule="evenodd" d="M809.067 388.459C839.909 407.48 877.291 418.347 917.567 417.78C961.409 417.163 1001.79 403.094 1034.01 379.937L1032.2 380.006C1000.36 402.519 960.656 416.174 917.565 416.78C878.025 417.337 841.309 406.827 810.879 388.391L809.067 388.459Z" fill="#1A3627"/>
<path d="M1110.5 224.5C1110.5 332.1 1023.2 419.328 915.5 419.328C807.804 419.328 720.5 332.1 720.5 224.5C720.5 116.9 807.804 29.6719 915.5 29.6719C1023.2 29.6719 1110.5 116.9 1110.5 224.5Z" stroke="#1A3627"/>
<path d="M928.584 412.818C928.584 412.605 928.401 412.259 927.697 411.84C927.027 411.441 926.023 411.064 924.738 410.739C922.176 410.091 918.609 409.679 914.649 409.668C910.689 409.656 907.12 410.048 904.555 410.682C903.268 411 902.262 411.372 901.589 411.767C900.883 412.181 900.698 412.527 900.697 412.739C900.697 412.952 900.88 413.298 901.584 413.717C902.254 414.116 903.258 414.493 904.543 414.818C907.105 415.466 910.672 415.878 914.632 415.889C918.591 415.9 922.161 415.509 924.726 414.875C926.013 414.557 927.019 414.185 927.691 413.79C928.398 413.376 928.583 413.03 928.584 412.818Z" stroke="#B9FFD8"/>
<path d="M956.438 408.662C956.444 407.419 955.472 406.097 953.369 404.791C951.294 403.503 948.256 402.319 944.455 401.312C936.861 399.301 926.337 398.026 914.686 397.976C903.036 397.925 892.5 399.108 884.889 401.053C881.08 402.026 878.031 403.183 875.945 404.453C873.831 405.741 872.848 407.054 872.843 408.297C872.837 409.541 873.809 410.862 875.912 412.168C877.986 413.457 881.025 414.641 884.825 415.647C892.419 417.658 902.944 418.933 914.595 418.984C926.245 419.035 936.781 417.852 944.392 415.907C948.201 414.934 951.25 413.777 953.335 412.506C955.449 411.219 956.433 409.905 956.438 408.662Z" stroke="#B9FFD8"/>
<path d="M983.523 400.891C983.533 398.548 981.791 396.186 978.324 393.935C974.88 391.699 969.857 389.658 963.603 387.927C951.101 384.468 933.791 382.281 914.64 382.197C895.49 382.114 878.161 384.15 865.629 387.5C859.36 389.176 854.32 391.173 850.856 393.379C847.369 395.599 845.607 397.946 845.597 400.29C845.586 402.633 847.328 404.995 850.796 407.246C854.24 409.482 859.262 411.523 865.517 413.254C878.019 416.713 895.329 418.9 914.48 418.984C933.63 419.067 950.959 417.031 963.49 413.681C969.76 412.005 974.8 410.008 978.263 407.802C981.75 405.581 983.513 403.235 983.523 400.891Z" stroke="#B9FFD8"/>
<path fill-rule="evenodd" clip-rule="evenodd" d="M842.424 406.104C828.159 401.348 819.552 395.205 819.581 388.53C819.646 373.721 862.195 361.901 914.617 362.13C967.039 362.358 1009.48 374.549 1009.42 389.358C1009.4 394.646 1003.96 399.552 994.586 403.665H992C995.696 402.185 998.84 400.598 1001.36 398.929C1006.09 395.799 1008.4 392.543 1008.42 389.354C1008.43 386.164 1006.15 382.889 1001.45 379.718C996.78 376.571 989.954 373.687 981.424 371.237C964.38 366.342 940.759 363.244 914.613 363.13C888.466 363.016 864.819 365.907 847.732 370.654C839.182 373.029 832.331 375.854 827.637 378.959C822.906 382.089 820.595 385.345 820.581 388.534C820.567 391.724 822.85 394.999 827.554 398.171C831.239 400.655 836.27 402.976 842.424 405.049V406.104Z" fill="#B9FFD8"/>
<path fill-rule="evenodd" clip-rule="evenodd" d="M811.818 390.529C802 385.345 796.403 379.371 796.43 373.031C796.511 353.571 849.548 338.035 914.891 338.332C980.234 338.629 1033.14 354.645 1033.06 374.106C1033.03 380.158 1027.88 385.83 1018.84 390.765V389.623C1020.4 388.755 1021.83 387.866 1023.13 386.959C1029.04 382.838 1032.04 378.478 1032.06 374.101C1032.08 369.724 1029.11 365.337 1023.24 361.163C1017.39 357.008 1008.86 353.211 998.219 349.99C976.951 343.551 947.49 339.48 914.887 339.332C882.284 339.184 852.79 342.987 831.469 349.232C820.802 352.357 812.237 356.076 806.357 360.178C800.45 364.299 797.448 368.659 797.43 373.036C797.411 377.412 800.376 381.8 806.249 385.974C807.896 387.145 809.757 388.287 811.818 389.396V390.529Z" fill="#B9FFD8"/>
<path fill-rule="evenodd" clip-rule="evenodd" d="M792.904 376.57C781.704 370.119 775.335 362.715 775.366 354.868C775.461 330.352 837.97 310.786 914.984 311.164C991.998 311.543 1054.35 331.724 1054.26 356.239C1054.23 363.967 1048 371.203 1037.06 377.478V376.322C1039.1 375.133 1040.96 373.912 1042.63 372.662C1049.6 367.467 1053.24 361.905 1053.26 356.234C1053.28 350.564 1049.69 344.967 1042.76 339.703C1035.85 334.453 1025.78 329.663 1013.23 325.602C988.149 317.485 953.413 312.353 914.98 312.164C876.547 311.975 841.773 316.765 816.63 324.635C804.052 328.572 793.941 333.263 786.989 338.445C780.021 343.641 776.388 349.202 776.366 354.873C776.344 360.544 779.934 366.141 786.862 371.404C788.665 372.774 790.683 374.112 792.904 375.414V376.57Z" fill="#B9FFD8"/>
<path fill-rule="evenodd" clip-rule="evenodd" d="M766.425 351.224C760.613 345.628 757.461 339.62 757.484 333.379C757.591 303.944 828.271 280.45 915.351 280.904C1002.43 281.359 1072.94 305.589 1072.83 335.024C1072.8 342.249 1068.52 349.117 1060.79 355.36V354.066C1068 348.065 1071.8 341.631 1071.83 335.018C1071.85 328.091 1067.73 321.317 1059.89 314.991C1052.06 308.674 1040.65 302.918 1026.46 298.042C998.091 288.292 958.808 282.131 915.347 281.904C871.886 281.678 832.559 287.429 804.119 296.882C789.894 301.61 778.448 307.247 770.572 313.482C762.685 319.725 758.509 326.457 758.484 333.384C758.462 339.333 761.503 345.17 767.329 350.707H766.425V351.224Z" fill="#B9FFD8"/>
<path fill-rule="evenodd" clip-rule="evenodd" d="M743.916 318.381C743.103 315.901 742.688 313.379 742.697 310.824C742.815 276.295 820.123 248.735 915.369 249.267C1010.62 249.8 1087.73 278.222 1087.62 312.751C1087.61 314.65 1087.37 316.528 1086.91 318.381H1085.87C1086.36 316.52 1086.61 314.641 1086.62 312.746C1086.64 304.516 1082.07 296.52 1073.49 289.096C1064.92 281.675 1052.43 274.92 1036.91 269.199C1005.87 257.76 962.904 250.533 915.366 250.267C867.828 250.002 824.809 256.748 793.697 267.84C778.137 273.387 765.608 280.002 756.981 287.327C748.35 294.654 743.725 302.599 743.697 310.829C743.688 313.372 744.119 315.893 744.971 318.381H743.916Z" fill="#B9FFD8"/>
<path fill-rule="evenodd" clip-rule="evenodd" d="M732.092 293.621C731.593 291.464 731.341 289.28 731.348 287.074C731.474 247.735 813.792 216.337 915.211 216.943C1016.63 217.55 1098.74 249.932 1098.62 289.27C1098.62 290.732 1098.5 292.183 1098.27 293.621H1097.25C1097.49 292.179 1097.62 290.726 1097.62 289.264C1097.65 279.805 1092.74 270.654 1083.6 262.191C1074.46 253.728 1061.16 246.03 1044.63 239.512C1011.58 226.479 965.826 218.246 915.208 217.943C864.59 217.64 818.783 225.327 785.653 237.964C769.085 244.283 755.737 251.822 746.541 260.176C737.346 268.529 732.378 277.621 732.348 287.08C732.341 289.279 732.601 291.461 733.119 293.621H732.092Z" fill="#B9FFD8"/>
<path fill-rule="evenodd" clip-rule="evenodd" d="M723.446 264.047C723.441 263.779 723.438 263.51 723.439 263.241C723.57 219.139 809.588 183.939 915.565 184.619C1020.21 185.29 1105.19 220.696 1107.18 264.047H1106.18C1105.7 253.96 1100.59 244.235 1091.53 235.232C1081.97 225.736 1068.06 217.105 1050.79 209.798C1016.26 195.188 968.452 185.958 915.562 185.619C862.672 185.279 814.81 193.896 780.191 208.062C762.879 215.147 748.927 223.6 739.31 232.973C729.697 242.342 724.471 252.571 724.439 263.248C724.438 263.514 724.441 263.781 724.446 264.047H723.446Z" fill="#B9FFD8"/>
<path fill-rule="evenodd" clip-rule="evenodd" d="M720.695 237.912C720.69 237.628 720.687 237.344 720.688 237.06C720.821 190.477 808.157 153.294 915.759 154.011C1022.01 154.719 1108.3 192.119 1110.31 237.912H1109.31C1108.83 227.223 1103.62 216.931 1094.41 207.417C1084.7 197.383 1070.59 188.265 1053.05 180.549C1017.99 165.117 969.454 155.369 915.756 155.011C862.059 154.653 813.465 163.754 778.317 178.718C760.742 186.201 746.574 195.13 736.806 205.034C727.042 214.934 721.72 225.756 721.688 237.067C721.687 237.349 721.69 237.63 721.695 237.912H720.695Z" fill="#B9FFD8"/>
<path fill-rule="evenodd" clip-rule="evenodd" d="M720.688 208.015C726.076 161.31 811.331 124.74 915.606 125.469C1017.85 126.183 1101.62 162.501 1109.68 208.015H1108.66C1104.85 187.034 1084.51 167.816 1052.97 153.259C1017.89 137.071 969.328 126.844 915.604 126.469C861.879 126.093 813.263 135.641 778.098 151.339C745.124 166.059 724.306 186.019 721.696 208.015H720.688ZM1110.28 213.493C1110.3 214.102 1110.31 214.714 1110.31 215.326C1110.31 215.864 1110.3 216.401 1110.28 216.936V213.493Z" fill="#B9FFD8"/>
<path fill-rule="evenodd" clip-rule="evenodd" d="M725.13 179.107C737.689 133.567 818.454 98.9504 916.122 99.6779C1011.76 100.39 1091.01 134.748 1105.84 179.107H1104.79C1098.22 159.896 1079.28 142.449 1051.7 128.873C1017.08 111.836 969.145 101.073 916.119 100.678C863.093 100.283 815.109 110.332 780.403 126.853C751.398 140.66 731.886 158.866 726.172 179.107H725.13Z" fill="#B9FFD8"/>
<path fill-rule="evenodd" clip-rule="evenodd" d="M723.439 181.995C723.435 181.705 723.434 181.415 723.434 181.124C723.435 180.923 723.436 180.721 723.439 180.519V181.995ZM738.771 140.248C768.19 102.839 836.76 77.0014 916.596 77.6705C994.325 78.3219 1061.26 103.919 1091.73 140.248H1090.43C1080.99 129.193 1068.11 119.123 1052.46 110.463C1017.77 91.2516 969.734 79.1159 916.594 78.6705C863.454 78.2251 815.367 89.5553 780.585 108.184C763.517 117.325 749.705 128.191 740.051 140.248H738.771Z" fill="#B9FFD8"/>
<path fill-rule="evenodd" clip-rule="evenodd" d="M758.573 107.592C794.794 77.7582 852.099 58.8199 916.558 59.4485C981.31 60.0799 1038.76 80.3141 1074.84 111.086L1073.28 111.069C1067.96 106.603 1062.18 102.361 1055.98 98.3725C1020.37 75.4541 971.082 60.9802 916.556 60.4485C862.031 59.9168 812.688 73.4289 776.99 95.6519C770.968 99.4009 765.338 103.395 760.138 107.609L758.573 107.592Z" fill="#B9FFD8"/>
<path fill-rule="evenodd" clip-rule="evenodd" d="M779.448 83.9364C814.455 60.224 862.986 45.8173 916.596 46.3801C971.075 46.9519 1020.25 62.8708 1055.29 88.0079L1053.53 87.982C1053.15 87.712 1052.76 87.443 1052.38 87.1751C1017.7 63.1242 969.694 47.9374 916.594 47.3801C863.769 46.8256 815.936 60.8551 781.211 83.9624L779.448 83.9364Z" fill="#B9FFD8"/>
<path fill-rule="evenodd" clip-rule="evenodd" d="M807.103 61.7378C838.228 45.3083 875.953 35.9219 916.598 36.4116C960.842 36.9447 1001.59 49.0966 1034.11 69.0991L1032.09 69.0339C1000.01 49.6809 960.03 37.9349 916.596 37.4116C876.753 36.9316 839.786 45.9651 809.135 61.8037L807.103 61.7378Z" fill="#B9FFD8"/>
<path fill-rule="evenodd" clip-rule="evenodd" d="M809.067 60.5406C839.909 41.5197 877.291 30.6529 917.567 31.2198C961.409 31.837 1001.79 45.9055 1034.01 69.0629L1032.2 68.9945C1000.36 46.4814 960.657 32.8264 917.566 32.2198C878.025 31.6632 841.309 42.173 810.879 60.6092L809.067 60.5406Z" fill="#B9FFD8"/>
<path d="M1110.5 224.5C1110.5 116.9 1023.2 29.6719 915.5 29.6719C807.804 29.6719 720.5 116.9 720.5 224.5C720.5 332.1 807.804 419.328 915.5 419.328C1023.2 419.328 1110.5 332.1 1110.5 224.5Z" stroke="#B9FFD8"/>
<path d="M727.182 211.417C727.395 211.416 727.741 211.599 728.16 212.303C728.559 212.974 728.936 213.978 729.261 215.262C729.909 217.824 730.321 221.391 730.332 225.351C730.343 229.311 729.952 232.88 729.318 235.446C729 236.732 728.628 237.738 728.233 238.411C727.819 239.117 727.473 239.302 727.261 239.303C727.048 239.304 726.702 239.12 726.283 238.416C725.884 237.746 725.507 236.742 725.182 235.457C724.534 232.895 724.122 229.328 724.111 225.368C724.1 221.409 724.491 217.839 725.125 215.274C725.443 213.987 725.815 212.981 726.21 212.309C726.624 211.603 726.97 211.417 727.182 211.417Z" stroke="#53ED97"/>
<path d="M731.338 183.562C732.581 183.556 733.903 184.528 735.209 186.631C736.497 188.706 737.681 191.744 738.688 195.545C740.699 203.139 741.974 213.663 742.024 225.314C742.075 236.964 740.892 247.5 738.947 255.111C737.974 258.92 736.817 261.969 735.547 264.055C734.259 266.169 732.946 267.152 731.703 267.157C730.459 267.163 729.138 266.191 727.832 264.088C726.543 262.014 725.359 258.975 724.353 255.175C722.342 247.581 721.067 237.056 721.016 225.405C720.965 213.755 722.148 203.22 724.093 195.608C725.066 191.799 726.223 188.75 727.494 186.665C728.781 184.551 730.095 183.567 731.338 183.562Z" stroke="#53ED97"/>
<path d="M739.109 156.477C741.452 156.467 743.814 158.209 746.065 161.676C748.301 165.12 750.342 170.143 752.073 176.397C755.532 188.899 757.719 206.209 757.803 225.36C757.886 244.51 755.85 261.839 752.5 274.371C750.825 280.64 748.827 285.68 746.621 289.144C744.401 292.63 742.054 294.393 739.711 294.403C737.367 294.413 735.005 292.671 732.754 289.204C730.518 285.76 728.477 280.737 726.746 274.483C723.287 261.981 721.1 244.671 721.016 225.52C720.933 206.37 722.969 189.041 726.319 176.51C727.995 170.24 729.992 165.2 732.198 161.736C734.419 158.25 736.766 156.487 739.109 156.477Z" stroke="#53ED97"/>
<path fill-rule="evenodd" clip-rule="evenodd" d="M733.896 297.576C738.652 311.841 744.795 320.448 751.47 320.419C766.279 320.355 778.099 277.805 777.87 225.383C777.642 172.961 765.451 130.517 750.642 130.581C745.354 130.604 740.448 136.043 736.335 145.414V148.001C737.815 144.304 739.402 141.16 741.071 138.638C744.201 133.907 747.456 131.595 750.646 131.581C753.835 131.567 757.111 133.85 760.282 138.554C763.429 143.22 766.313 150.046 768.762 158.576C773.658 175.62 776.756 199.241 776.87 225.388C776.984 251.534 774.092 275.181 769.346 292.268C766.971 300.818 764.146 307.669 761.041 312.363C757.911 317.094 754.655 319.405 751.465 319.419C748.276 319.433 745 317.15 741.829 312.446C739.344 308.761 737.023 303.73 734.951 297.576H733.896Z" fill="#53ED97"/>
<path fill-rule="evenodd" clip-rule="evenodd" d="M749.471 328.182C754.655 338 760.629 343.597 766.969 343.571C786.43 343.489 801.965 290.452 801.668 225.109C801.371 159.766 785.355 106.861 765.895 106.942C759.842 106.968 754.17 112.115 749.235 121.162H750.377C751.245 119.604 752.134 118.171 753.041 116.87C757.162 110.962 761.522 107.961 765.899 107.942C770.276 107.924 774.663 110.889 778.837 116.762C782.992 122.607 786.789 131.14 790.011 141.781C796.449 163.049 800.52 192.51 800.668 225.113C800.816 257.716 797.013 287.21 790.768 308.531C787.643 319.198 783.924 327.763 779.822 333.643C775.702 339.551 771.341 342.552 766.965 342.571C762.588 342.589 758.2 339.624 754.026 333.751C752.855 332.104 751.713 330.243 750.604 328.182H749.471Z" fill="#53ED97"/>
<path fill-rule="evenodd" clip-rule="evenodd" d="M763.43 347.096C769.881 358.296 777.285 364.664 785.132 364.634C809.648 364.539 829.214 302.03 828.836 225.016C828.457 148.002 808.276 85.6466 783.761 85.7415C776.033 85.7715 768.797 92.0031 762.522 102.936H763.678C764.867 100.902 766.088 99.0414 767.338 97.3651C772.533 90.3965 778.095 86.7635 783.766 86.7415C789.436 86.7196 795.033 90.3094 800.297 97.2375C805.547 104.149 810.337 114.223 814.398 126.77C822.515 151.851 827.647 186.587 827.836 225.02C828.025 263.453 823.235 298.227 815.365 323.37C811.428 335.947 806.737 346.059 801.555 353.011C796.359 359.979 790.798 363.612 785.127 363.634C779.456 363.656 773.86 360.066 768.596 353.138C767.226 351.335 765.888 349.317 764.586 347.096H763.43Z" fill="#53ED97"/>
<path fill-rule="evenodd" clip-rule="evenodd" d="M788.776 373.575C794.372 379.387 800.38 382.539 806.621 382.516C836.056 382.409 859.55 311.729 859.095 224.649C858.641 137.569 834.411 67.0642 804.976 67.1716C797.751 67.198 790.883 71.4771 784.64 79.2076H785.934C791.935 72.0024 798.369 68.1957 804.982 68.1716C811.909 68.1463 818.683 72.2735 825.009 80.1137C831.326 87.9442 837.081 99.349 841.958 113.539C851.708 141.909 857.869 181.192 858.096 224.653C858.322 268.114 852.571 307.441 843.118 335.881C838.389 350.106 832.753 361.552 826.518 369.428C820.275 377.314 813.543 381.491 806.616 381.516C800.667 381.538 794.83 378.497 789.293 372.671V373.575H788.776Z" fill="#53ED97"/>
<path fill-rule="evenodd" clip-rule="evenodd" d="M821.619 396.084C824.099 396.898 826.621 397.312 829.176 397.303C863.705 397.186 891.265 319.878 890.733 224.631C890.2 129.384 861.778 52.2669 827.249 52.3845C825.35 52.391 823.472 52.6309 821.619 53.0945V54.1278C823.48 53.6411 825.359 53.391 827.254 53.3845C835.484 53.3565 843.481 57.9271 850.905 66.5077C858.326 75.0848 865.08 87.5682 870.801 103.09C882.24 134.126 889.467 177.096 889.733 224.634C889.998 272.173 883.252 315.191 872.16 346.303C866.613 361.863 859.998 374.392 852.673 383.02C845.346 391.65 837.401 396.275 829.171 396.303C826.628 396.312 824.107 395.882 821.619 395.03V396.084Z" fill="#53ED97"/>
<path fill-rule="evenodd" clip-rule="evenodd" d="M846.379 407.908C848.536 408.407 850.72 408.659 852.926 408.652C892.265 408.526 923.663 326.208 923.057 224.789C922.451 123.37 890.069 41.2549 850.73 41.3802C849.268 41.3848 847.817 41.503 846.379 41.7313V42.7451C847.821 42.5073 849.274 42.3848 850.736 42.3801C860.195 42.35 869.346 47.2595 877.809 56.4011C886.272 65.5434 893.97 78.8424 900.488 95.37C913.521 128.419 921.754 174.174 922.057 224.792C922.36 275.41 914.673 321.216 902.036 354.347C895.717 370.915 888.178 384.263 879.824 393.459C871.471 402.654 862.379 407.621 852.92 407.652C850.721 407.659 848.539 407.399 846.379 406.881V407.908Z" fill="#53ED97"/>
<path fill-rule="evenodd" clip-rule="evenodd" d="M875.953 416.554C876.221 416.559 876.49 416.562 876.759 416.561C920.861 416.43 956.061 330.412 955.381 224.435C954.71 119.787 919.304 34.8082 875.953 32.8184V33.8194C886.04 34.296 895.765 39.4093 904.768 48.4737C914.264 58.0347 922.895 71.9363 930.201 89.2053C944.812 123.739 954.042 171.548 954.381 224.438C954.72 277.328 946.104 325.19 931.937 359.809C924.853 377.121 916.4 391.073 907.027 400.69C897.658 410.303 887.429 415.529 876.752 415.561C876.486 415.562 876.219 415.559 875.953 415.554V416.554Z" fill="#53ED97"/>
<path fill-rule="evenodd" clip-rule="evenodd" d="M902.088 419.305C902.372 419.31 902.656 419.313 902.94 419.312C949.523 419.179 986.706 331.843 985.989 224.241C985.281 117.985 947.881 31.7019 902.088 29.6876V30.6884C912.777 31.1709 923.069 36.3774 932.583 45.5859C942.617 55.297 951.735 69.4134 959.451 86.9456C974.883 122.007 984.631 170.546 984.989 224.244C985.347 277.941 976.246 326.535 961.282 361.683C953.799 379.258 944.87 393.426 934.966 403.194C925.066 412.958 914.244 418.28 902.933 418.312C902.651 418.313 902.37 418.31 902.088 418.305V419.305Z" fill="#53ED97"/>
<path fill-rule="evenodd" clip-rule="evenodd" d="M931.985 419.312C978.69 413.924 1015.26 328.669 1014.53 224.394C1013.82 122.147 977.499 38.383 931.985 30.323V31.3397C952.966 35.1528 972.184 55.4908 986.741 87.0319C1002.93 122.11 1013.16 170.672 1013.53 224.397C1013.91 278.121 1004.36 326.738 988.661 361.902C973.941 394.876 953.981 415.694 931.985 418.304V419.312ZM926.505 29.7238C925.896 29.6982 925.286 29.6862 924.674 29.6879C924.137 29.6894 923.601 29.7014 923.066 29.7238H926.505Z" fill="#53ED97"/>
<path fill-rule="evenodd" clip-rule="evenodd" d="M960.893 414.87C1006.43 402.312 1041.05 321.546 1040.32 223.878C1039.61 128.243 1005.25 48.9875 960.893 34.1582V35.215C980.104 41.7807 997.551 60.7171 1011.13 88.3039C1028.16 122.924 1038.93 170.855 1039.32 223.881C1039.72 276.907 1029.67 324.891 1013.15 359.597C999.34 388.603 981.133 408.114 960.893 413.828V414.87Z" fill="#53ED97"/>
<path fill-rule="evenodd" clip-rule="evenodd" d="M958.001 416.561C958.292 416.565 958.584 416.566 958.875 416.566C959.079 416.565 959.282 416.564 959.485 416.561H958.001ZM999.752 401.229C1037.16 371.81 1063 303.24 1062.33 223.404C1061.68 145.675 1036.08 78.7395 999.752 48.2675V49.5728C1010.81 59.0078 1020.88 71.8946 1029.54 87.5369C1048.75 122.233 1060.88 170.266 1061.33 223.406C1061.77 276.546 1050.44 324.633 1031.82 359.415C1022.67 376.483 1011.81 390.295 999.752 399.949V401.229Z" fill="#53ED97"/>
<path fill-rule="evenodd" clip-rule="evenodd" d="M1032.41 381.427C1062.24 345.206 1081.18 287.902 1080.55 223.442C1079.92 158.69 1059.69 101.236 1028.91 65.162L1028.93 66.7233C1033.4 72.0425 1037.64 77.8223 1041.63 84.0202C1064.55 119.63 1079.02 168.919 1079.55 223.444C1080.08 277.969 1066.57 327.313 1044.35 363.01C1040.6 369.032 1036.6 374.663 1032.39 379.862L1032.41 381.427Z" fill="#53ED97"/>
<path fill-rule="evenodd" clip-rule="evenodd" d="M1056.06 360.552C1079.78 325.545 1094.18 277.015 1093.62 223.404C1093.05 168.926 1077.13 119.749 1051.99 84.713L1052.02 86.4676C1052.29 86.8506 1052.56 87.2352 1052.82 87.6215C1076.88 122.304 1092.06 170.306 1092.62 223.406C1093.17 276.231 1079.14 324.064 1056.04 358.789L1056.06 360.552Z" fill="#53ED97"/>
<path fill-rule="evenodd" clip-rule="evenodd" d="M1078.26 332.897C1094.69 301.772 1104.08 264.047 1103.59 223.402C1103.06 179.158 1090.9 138.41 1070.9 105.894L1070.97 107.907C1090.32 139.989 1102.06 179.97 1102.59 223.404C1103.07 263.247 1094.03 300.214 1078.2 330.865L1078.26 332.897Z" fill="#53ED97"/>
<path fill-rule="evenodd" clip-rule="evenodd" d="M1079.46 330.933C1098.48 300.091 1109.35 262.709 1108.78 222.433C1108.16 178.591 1094.09 138.214 1070.94 105.994L1071.01 107.799C1093.52 139.641 1107.17 179.344 1107.78 222.435C1108.34 261.975 1097.83 298.691 1079.39 329.121L1079.46 330.933Z" fill="#53ED97"/>
<path d="M915.5 29.5C1023.1 29.5 1110.33 116.804 1110.33 224.5C1110.33 332.196 1023.1 419.5 915.5 419.5C807.9 419.5 720.672 332.196 720.672 224.5C720.672 116.804 807.9 29.5 915.5 29.5Z" stroke="#53ED97"/>
<path d="M1103.82 211.417C1103.61 211.416 1103.26 211.599 1102.84 212.303C1102.44 212.974 1102.06 213.978 1101.74 215.262C1101.09 217.824 1100.68 221.391 1100.67 225.351C1100.66 229.311 1101.05 232.88 1101.68 235.446C1102 236.732 1102.37 237.738 1102.77 238.411C1103.18 239.117 1103.53 239.302 1103.74 239.303C1103.95 239.304 1104.3 239.12 1104.72 238.416C1105.12 237.746 1105.49 236.742 1105.82 235.457C1106.47 232.895 1106.88 229.328 1106.89 225.368C1106.9 221.409 1106.51 217.839 1105.88 215.274C1105.56 213.987 1105.19 212.981 1104.79 212.309C1104.38 211.603 1104.03 211.417 1103.82 211.417Z" stroke="#40B674"/>
<path d="M1099.66 183.562C1098.42 183.556 1097.1 184.528 1095.79 186.631C1094.5 188.706 1093.32 191.744 1092.31 195.545C1090.3 203.139 1089.03 213.663 1088.98 225.314C1088.92 236.964 1090.11 247.5 1092.05 255.111C1093.03 258.92 1094.18 261.969 1095.45 264.055C1096.74 266.169 1098.05 267.152 1099.3 267.157C1100.54 267.163 1101.86 266.191 1103.17 264.088C1104.46 262.014 1105.64 258.975 1106.65 255.175C1108.66 247.581 1109.93 237.056 1109.98 225.405C1110.03 213.755 1108.85 203.22 1106.91 195.608C1105.93 191.799 1104.78 188.75 1103.51 186.665C1102.22 184.551 1100.91 183.567 1099.66 183.562Z" stroke="#40B674"/>
<path d="M1091.89 156.477C1089.55 156.467 1087.19 158.209 1084.93 161.676C1082.7 165.12 1080.66 170.143 1078.93 176.397C1075.47 188.899 1073.28 206.209 1073.2 225.36C1073.11 244.51 1075.15 261.839 1078.5 274.371C1080.18 280.64 1082.17 285.68 1084.38 289.144C1086.6 292.63 1088.95 294.393 1091.29 294.403C1093.63 294.413 1095.99 292.671 1098.25 289.204C1100.48 285.76 1102.52 280.737 1104.25 274.483C1107.71 261.981 1109.9 244.671 1109.98 225.52C1110.07 206.37 1108.03 189.041 1104.68 176.51C1103.01 170.24 1101.01 165.2 1098.8 161.736C1096.58 158.25 1094.23 156.487 1091.89 156.477Z" stroke="#40B674"/>
<path fill-rule="evenodd" clip-rule="evenodd" d="M1097.1 297.576C1092.35 311.841 1086.21 320.448 1079.53 320.419C1064.72 320.355 1052.9 277.805 1053.13 225.383C1053.36 172.961 1065.55 130.517 1080.36 130.581C1085.65 130.604 1090.55 136.043 1094.67 145.414V148.001C1093.19 144.304 1091.6 141.16 1089.93 138.638C1086.8 133.907 1083.54 131.595 1080.35 131.581C1077.16 131.567 1073.89 133.85 1070.72 138.554C1067.57 143.22 1064.69 150.046 1062.24 158.576C1057.34 175.62 1054.24 199.241 1054.13 225.388C1054.02 251.534 1056.91 275.181 1061.65 292.268C1064.03 300.818 1066.85 307.669 1069.96 312.363C1073.09 317.094 1076.35 319.405 1079.53 319.419C1082.72 319.433 1086 317.15 1089.17 312.446C1091.66 308.761 1093.98 303.73 1096.05 297.576H1097.1Z" fill="#40B674"/>
<path fill-rule="evenodd" clip-rule="evenodd" d="M1081.53 328.182C1076.34 338 1070.37 343.597 1064.03 343.571C1044.57 343.489 1029.04 290.452 1029.33 225.109C1029.63 159.766 1045.65 106.861 1065.11 106.942C1071.16 106.968 1076.83 112.115 1081.77 121.162H1080.62C1079.76 119.604 1078.87 118.171 1077.96 116.87C1073.84 110.962 1069.48 107.961 1065.1 107.942C1060.72 107.924 1056.34 110.889 1052.16 116.762C1048.01 122.607 1044.21 131.14 1040.99 141.781C1034.55 163.049 1030.48 192.51 1030.33 225.113C1030.18 257.716 1033.99 287.21 1040.23 308.531C1043.36 319.198 1047.08 327.763 1051.18 333.643C1055.3 339.551 1059.66 342.552 1064.04 342.571C1068.41 342.589 1072.8 339.624 1076.97 333.751C1078.14 332.104 1079.29 330.243 1080.4 328.182H1081.53Z" fill="#40B674"/>
<path fill-rule="evenodd" clip-rule="evenodd" d="M1067.57 347.096C1061.12 358.296 1053.72 364.664 1045.87 364.634C1021.35 364.539 1001.79 302.03 1002.16 225.016C1002.54 148.002 1022.72 85.6466 1047.24 85.7415C1054.97 85.7715 1062.2 92.0031 1068.48 102.936H1067.32C1066.13 100.902 1064.91 99.0414 1063.66 97.3651C1058.47 90.3965 1052.91 86.7635 1047.23 86.7415C1041.56 86.7196 1035.97 90.3094 1030.7 97.2375C1025.45 104.149 1020.66 114.223 1016.6 126.77C1008.48 151.851 1003.35 186.587 1003.16 225.02C1002.98 263.453 1007.76 298.227 1015.64 323.37C1019.57 335.947 1024.26 346.059 1029.45 353.011C1034.64 359.979 1040.2 363.612 1045.87 363.634C1051.54 363.656 1057.14 360.066 1062.4 353.138C1063.77 351.335 1065.11 349.317 1066.41 347.096H1067.57Z" fill="#40B674"/>
<path fill-rule="evenodd" clip-rule="evenodd" d="M1042.22 373.575C1036.63 379.387 1030.62 382.539 1024.38 382.516C994.944 382.409 971.45 311.729 971.905 224.649C972.359 137.569 996.589 67.0642 1026.02 67.1716C1033.25 67.198 1040.12 71.4771 1046.36 79.2076H1045.07C1039.06 72.0024 1032.63 68.1957 1026.02 68.1716C1019.09 68.1463 1012.32 72.2735 1005.99 80.1137C999.674 87.9442 993.919 99.349 989.042 113.539C979.292 141.909 973.131 181.192 972.904 224.653C972.678 268.114 978.429 307.441 987.882 335.881C992.611 350.106 998.247 361.552 1004.48 369.428C1010.73 377.314 1017.46 381.491 1024.38 381.516C1030.33 381.538 1036.17 378.497 1041.71 372.671V373.575H1042.22Z" fill="#40B674"/>
<path fill-rule="evenodd" clip-rule="evenodd" d="M1009.38 396.084C1006.9 396.898 1004.38 397.312 1001.82 397.303C967.295 397.186 939.735 319.878 940.267 224.631C940.8 129.384 969.222 52.2669 1003.75 52.3845C1005.65 52.391 1007.53 52.6309 1009.38 53.0945V54.1278C1007.52 53.6411 1005.64 53.391 1003.75 53.3845C995.516 53.3565 987.519 57.9271 980.095 66.5077C972.674 75.0848 965.92 87.5682 960.199 103.09C948.76 134.126 941.533 177.096 941.267 224.634C941.002 272.173 947.748 315.191 958.84 346.303C964.387 361.863 971.002 374.392 978.327 383.02C985.654 391.65 993.599 396.275 1001.83 396.303C1004.37 396.312 1006.89 395.882 1009.38 395.03V396.084Z" fill="#40B674"/>
<path fill-rule="evenodd" clip-rule="evenodd" d="M984.621 407.908C982.464 408.407 980.28 408.659 978.074 408.652C938.735 408.526 907.337 326.208 907.943 224.789C908.549 123.37 940.931 41.2549 980.27 41.3802C981.732 41.3848 983.183 41.503 984.621 41.7313V42.7451C983.179 42.5073 981.726 42.3848 980.264 42.3801C970.805 42.35 961.654 47.2595 953.191 56.4011C944.728 65.5434 937.03 78.8424 930.512 95.37C917.479 128.419 909.246 174.174 908.943 224.792C908.64 275.41 916.327 321.216 928.964 354.347C935.283 370.915 942.822 384.263 951.176 393.459C959.529 402.654 968.621 407.621 978.08 407.652C980.279 407.659 982.461 407.399 984.621 406.881V407.908Z" fill="#40B674"/>
<path fill-rule="evenodd" clip-rule="evenodd" d="M955.047 416.554C954.779 416.559 954.51 416.562 954.241 416.561C910.139 416.43 874.939 330.412 875.619 224.435C876.29 119.787 911.696 34.8082 955.047 32.8184V33.8194C944.96 34.296 935.235 39.4093 926.232 48.4737C916.736 58.0347 908.105 71.9363 900.799 89.2053C886.188 123.739 876.958 171.548 876.619 224.438C876.28 277.328 884.896 325.19 899.063 359.809C906.147 377.121 914.6 391.073 923.973 400.69C933.342 410.303 943.571 415.529 954.248 415.561C954.514 415.562 954.781 415.559 955.047 415.554V416.554Z" fill="#40B674"/>
<path fill-rule="evenodd" clip-rule="evenodd" d="M928.912 419.305C928.628 419.31 928.344 419.313 928.06 419.312C881.477 419.179 844.294 331.843 845.011 224.241C845.719 117.985 883.119 31.7019 928.912 29.6876V30.6884C918.223 31.1709 907.931 36.3774 898.417 45.5859C888.383 55.297 879.265 69.4134 871.549 86.9456C856.117 122.007 846.369 170.546 846.011 224.244C845.653 277.941 854.754 326.535 869.718 361.683C877.201 379.258 886.13 393.426 896.034 403.194C905.934 412.958 916.756 418.28 928.067 418.312C928.349 418.313 928.63 418.31 928.912 418.305V419.305Z" fill="#40B674"/>
<path fill-rule="evenodd" clip-rule="evenodd" d="M899.015 419.312C852.31 413.924 815.74 328.669 816.469 224.394C817.183 122.147 853.501 38.383 899.015 30.323V31.3397C878.034 35.1528 858.816 55.4908 844.259 87.0319C828.071 122.11 817.844 170.672 817.469 224.397C817.093 278.121 826.641 326.738 842.339 361.902C857.059 394.876 877.019 415.694 899.015 418.304V419.312ZM904.495 29.7238C905.104 29.6982 905.714 29.6862 906.326 29.6879C906.863 29.6894 907.399 29.7014 907.934 29.7238H904.495Z" fill="#40B674"/>
<path fill-rule="evenodd" clip-rule="evenodd" d="M870.107 414.87C824.567 402.312 789.95 321.546 790.678 223.878C791.39 128.243 825.748 48.9875 870.107 34.1582V35.215C850.896 41.7807 833.449 60.7171 819.874 88.3039C802.836 122.924 792.073 170.855 791.678 223.881C791.283 276.907 801.332 324.891 817.853 359.597C831.66 388.603 849.867 408.114 870.107 413.828V414.87Z" fill="#40B674"/>
<path fill-rule="evenodd" clip-rule="evenodd" d="M872.999 416.561C872.708 416.565 872.416 416.566 872.125 416.566C871.921 416.565 871.718 416.564 871.515 416.561H872.999ZM831.248 401.229C793.839 371.81 768.002 303.24 768.671 223.404C769.322 145.675 794.919 78.7395 831.248 48.2675V49.5728C820.194 59.0078 810.124 71.8946 801.463 87.5369C782.252 122.233 770.116 170.266 769.671 223.406C769.225 276.546 780.556 324.633 799.184 359.415C808.326 376.483 819.191 390.295 831.248 399.949V401.229Z" fill="#40B674"/>
<path fill-rule="evenodd" clip-rule="evenodd" d="M798.592 381.427C768.758 345.206 749.82 287.902 750.448 223.442C751.08 158.69 771.314 101.236 802.086 65.162L802.069 66.7233C797.603 72.0425 793.361 77.8223 789.372 84.0202C766.454 119.63 751.98 168.919 751.448 223.444C750.917 277.969 764.429 327.313 786.652 363.01C790.401 369.032 794.395 374.663 798.609 379.862L798.592 381.427Z" fill="#40B674"/>
<path fill-rule="evenodd" clip-rule="evenodd" d="M774.937 360.552C751.224 325.545 736.817 277.015 737.38 223.404C737.952 168.926 753.871 119.749 779.008 84.713L778.982 86.4676C778.712 86.8506 778.443 87.2352 778.175 87.6215C754.124 122.304 738.937 170.306 738.38 223.406C737.826 276.231 751.855 324.064 774.963 358.789L774.937 360.552Z" fill="#40B674"/>
<path fill-rule="evenodd" clip-rule="evenodd" d="M752.738 332.897C736.308 301.772 726.922 264.047 727.412 223.402C727.945 179.158 740.097 138.41 760.099 105.894L760.034 107.907C740.681 139.989 728.935 179.97 728.412 223.404C727.932 263.247 736.965 300.214 752.804 330.865L752.738 332.897Z" fill="#40B674"/>
<path fill-rule="evenodd" clip-rule="evenodd" d="M751.541 330.933C732.52 300.091 721.653 262.709 722.22 222.433C722.837 178.591 736.906 138.214 760.063 105.994L759.995 107.799C737.482 139.641 723.827 179.344 723.22 222.435C722.663 261.975 733.173 298.691 751.609 329.121L751.541 330.933Z" fill="#40B674"/>
<path d="M915.5 29.5C807.9 29.5 720.672 116.804 720.672 224.5C720.672 332.196 807.9 419.5 915.5 419.5C1023.1 419.5 1110.33 332.196 1110.33 224.5C1110.33 116.804 1023.1 29.5 915.5 29.5Z" stroke="#40B674"/>
</svg>
