<svg width="63" height="22" viewBox="0 0 63 22" fill="none" xmlns="http://www.w3.org/2000/svg">
<path fill-rule="evenodd" clip-rule="evenodd" d="M14.6941 8.5659H23.4126L16.3592 13.6905L19.0534 21.9823L12 16.8577L4.94654 21.9823L7.6407 13.6905L0.58728 8.5659H9.30579L12 0.274109L14.6941 8.5659ZM17.2573 10.5659L14.0081 12.9266L15.2492 16.7462L12 14.3856L8.75076 16.7462L9.99184 12.9266L6.74265 10.5659H10.7589L12 6.74624L13.241 10.5659H17.2573Z" fill="#B1B8B5"/>
<path fill-rule="evenodd" clip-rule="evenodd" d="M31.8057 13.2477H29.4678V17.2741H28.1484V7.32098H31.4434C32.5645 7.32098 33.4258 7.57619 34.0273 8.08661C34.6335 8.59703 34.9365 9.33986 34.9365 10.3151C34.9365 10.9349 34.7679 11.475 34.4307 11.9352C34.098 12.3955 33.6331 12.7396 33.0361 12.9675L35.374 17.1921V17.2741H33.9658L31.8057 13.2477ZM29.4678 12.1745H31.4844C32.1361 12.1745 32.6533 12.0059 33.0361 11.6686C33.4235 11.3314 33.6172 10.8802 33.6172 10.3151C33.6172 9.69989 33.4326 9.22821 33.0635 8.90009C32.6989 8.57196 32.1702 8.40562 31.4775 8.40106H29.4678V12.1745Z" fill="#B1B8B5"/>
<path fill-rule="evenodd" clip-rule="evenodd" d="M39.6533 17.4108C38.6507 17.4108 37.835 17.0827 37.2061 16.4265C36.5771 15.7656 36.2627 14.8838 36.2627 13.7809V13.5485C36.2627 12.8148 36.4017 12.1608 36.6797 11.5866C36.9622 11.0078 37.3542 10.5567 37.8555 10.2331C38.3613 9.90497 38.9082 9.74091 39.4961 9.74091C40.4577 9.74091 41.2051 10.0576 41.7383 10.6911C42.2715 11.3246 42.5381 12.2315 42.5381 13.4118V13.9382H37.5273C37.5456 14.6673 37.7575 15.2575 38.1631 15.7087C38.5732 16.1553 39.0928 16.3786 39.7217 16.3786C40.1683 16.3786 40.5466 16.2875 40.8564 16.1052C41.1663 15.9229 41.4375 15.6813 41.6699 15.3806L42.4424 15.9821C41.8226 16.9346 40.8929 17.4108 39.6533 17.4108ZM39.4961 10.78C38.9857 10.78 38.5573 10.9668 38.2109 11.3405C37.8646 11.7097 37.6504 12.2292 37.5684 12.8991H41.2734V12.8034C41.237 12.1608 41.0638 11.6641 40.7539 11.3132C40.444 10.9577 40.0247 10.78 39.4961 10.78Z" fill="#B1B8B5"/>
<path fill-rule="evenodd" clip-rule="evenodd" d="M48.3965 16.4948C48.4421 16.8685 48.5013 17.1283 48.5742 17.2741H49.9004V17.1647C49.7272 16.7637 49.6406 16.2237 49.6406 15.5446V12.1403C49.6224 11.3929 49.3717 10.8073 48.8887 10.3835C48.4056 9.9551 47.738 9.74091 46.8857 9.74091C46.348 9.74091 45.8535 9.84117 45.4023 10.0417C44.9557 10.2422 44.6003 10.5156 44.3359 10.862C44.0762 11.2038 43.9463 11.5593 43.9463 11.9284H45.2178C45.2178 11.6048 45.3704 11.3291 45.6758 11.1013C45.9811 10.8734 46.3594 10.7595 46.8105 10.7595C47.3255 10.7595 47.7152 10.8916 47.9795 11.1559C48.2438 11.4157 48.376 11.7666 48.376 12.2087V12.7897H47.1455C46.0837 12.7897 45.2588 13.0039 44.6709 13.4323C44.0876 13.8561 43.7959 14.4531 43.7959 15.2233C43.7959 15.8568 44.0283 16.3809 44.4932 16.7956C44.9626 17.2057 45.5618 17.4108 46.291 17.4108C47.1068 17.4108 47.8086 17.1055 48.3965 16.4948ZM47.6035 16.0026C47.248 16.2077 46.8721 16.3102 46.4756 16.3102C46.0609 16.3102 45.7214 16.1986 45.457 15.9753C45.1927 15.752 45.0605 15.4421 45.0605 15.0456C45.0605 14.1387 45.8353 13.6852 47.3848 13.6852H48.376V15.2028C48.2165 15.5309 47.959 15.7975 47.6035 16.0026Z" fill="#B1B8B5"/>
<path d="M54.5898 16.3786C55.041 16.3786 55.4352 16.2419 55.7725 15.9684C56.1097 15.695 56.2966 15.3532 56.333 14.9431H57.5293C57.5065 15.3669 57.3607 15.7702 57.0918 16.153C56.8229 16.5358 56.4629 16.8412 56.0117 17.069C55.5651 17.2969 55.0911 17.4108 54.5898 17.4108C53.5827 17.4108 52.7806 17.0759 52.1836 16.4059C51.5911 15.7315 51.2949 14.8109 51.2949 13.6442V13.4323C51.2949 12.7123 51.4271 12.072 51.6914 11.5114C51.9557 10.9509 52.334 10.5156 52.8262 10.2057C53.3229 9.89585 53.9085 9.74091 54.583 9.74091C55.4124 9.74091 56.1006 9.98928 56.6475 10.486C57.1989 10.9828 57.4928 11.6276 57.5293 12.4206H56.333C56.2966 11.9421 56.1143 11.5502 55.7861 11.2448C55.4626 10.9349 55.0615 10.78 54.583 10.78C53.9404 10.78 53.4414 11.0124 53.0859 11.4772C52.735 11.9375 52.5596 12.6052 52.5596 13.4802V13.7194C52.5596 14.5716 52.735 15.2279 53.0859 15.6882C53.4368 16.1485 53.9382 16.3786 54.5898 16.3786Z" fill="#B1B8B5"/>
<path d="M60.667 9.87762V8.08661H59.4023V9.87762H58.0557V10.8552H59.4023V15.4421C59.4023 16.071 59.5459 16.5563 59.833 16.8981C60.1201 17.2399 60.5462 17.4108 61.1113 17.4108C61.4258 17.4108 61.7493 17.3653 62.082 17.2741V16.2487C61.8268 16.3034 61.6263 16.3307 61.4805 16.3307C61.1842 16.3307 60.9746 16.2578 60.8516 16.112C60.7285 15.9616 60.667 15.7383 60.667 15.4421V10.8552H62.0479V9.87762H60.667Z" fill="#B1B8B5"/>
</svg>
