<svg width="14" height="14" viewBox="0 0 14 14" fill="none" xmlns="http://www.w3.org/2000/svg">
<circle cx="7" cy="7" r="7" fill="#9EA9A4"/>
<path fill-rule="evenodd" clip-rule="evenodd" d="M4.60249 12.5394C6.36239 12.5394 7.78908 11.1128 7.78908 9.35285C7.78908 7.59295 6.36239 6.16626 4.60249 6.16626C2.84258 6.16626 1.41589 7.59295 1.41589 9.35285C1.41589 11.1128 2.84258 12.5394 4.60249 12.5394ZM4.60308 11.7438C5.92301 11.7438 6.99302 10.6738 6.99302 9.35387C6.99302 8.03394 5.92301 6.96393 4.60308 6.96393C3.28315 6.96393 2.21313 8.03394 2.21313 9.35387C2.21313 10.6738 3.28315 11.7438 4.60308 11.7438Z" fill="black"/>
<rect x="1.01807" y="10.1505" width="1.5933" height="0.796648" transform="rotate(-90 1.01807 10.1505)" fill="black"/>
<rect x="7.39124" y="10.1505" width="1.5933" height="0.796648" transform="rotate(-90 7.39124 10.1505)" fill="black"/>
<rect x="3.80627" y="5.60956" width="1.5933" height="0.796648" fill="black"/>
<rect x="1.38696" y="7.28558" width="1.5933" height="0.796648" transform="rotate(-45 1.38696 7.28558)" fill="black"/>
<rect x="6.75476" y="6.18945" width="1.5933" height="0.796648" transform="rotate(45 6.75476 6.18945)" fill="black"/>
<rect x="5.46191" y="13.0184" width="1.5933" height="0.796648" transform="rotate(-180 5.46191 13.0184)" fill="black"/>
<rect x="7.88135" y="11.3423" width="1.5933" height="0.796648" transform="rotate(135 7.88135 11.3423)" fill="black"/>
<rect x="2.51343" y="12.4384" width="1.5933" height="0.796648" transform="rotate(-135 2.51343 12.4384)" fill="black"/>
<path fill-rule="evenodd" clip-rule="evenodd" d="M5.21136 4.29107C6.09369 4.29107 6.80895 3.5758 6.80895 2.69348C6.80895 1.81115 6.09369 1.09589 5.21136 1.09589C4.32904 1.09589 3.61377 1.81115 3.61377 2.69348C3.61377 3.5758 4.32904 4.29107 5.21136 4.29107ZM5.21187 3.89211C5.87361 3.89211 6.41006 3.35566 6.41006 2.69392C6.41006 2.03218 5.87361 1.49573 5.21187 1.49573C4.55012 1.49573 4.01367 2.03218 4.01367 2.69392C4.01367 3.35566 4.55012 3.89211 5.21187 3.89211Z" fill="black"/>
<rect x="3.41443" y="3.09332" width="0.798796" height="0.399398" transform="rotate(-90 3.41443 3.09332)" fill="black"/>
<rect x="6.60974" y="3.09332" width="0.798796" height="0.399398" transform="rotate(-90 6.60974 3.09332)" fill="black"/>
<rect x="4.81238" y="0.816772" width="0.798796" height="0.399398" fill="black"/>
<rect x="3.59949" y="1.65704" width="0.798796" height="0.399398" transform="rotate(-45 3.59949 1.65704)" fill="black"/>
<rect x="6.29053" y="1.10767" width="0.798796" height="0.399398" transform="rotate(45 6.29053 1.10767)" fill="black"/>
<rect x="5.64246" y="4.53119" width="0.798796" height="0.399398" transform="rotate(-180 5.64246 4.53119)" fill="black"/>
<rect x="6.85547" y="3.69086" width="0.798796" height="0.399398" transform="rotate(135 6.85547 3.69086)" fill="black"/>
<rect x="4.16431" y="4.24042" width="0.798796" height="0.399398" transform="rotate(-135 4.16431 4.24042)" fill="black"/>
<path fill-rule="evenodd" clip-rule="evenodd" d="M10.3037 7.22643C11.6272 7.22643 12.7001 6.15353 12.7001 4.83004C12.7001 3.50655 11.6272 2.43365 10.3037 2.43365C8.98025 2.43365 7.90735 3.50655 7.90735 4.83004C7.90735 6.15353 8.98025 7.22643 10.3037 7.22643ZM10.3041 6.62803C11.2967 6.62803 12.1014 5.82335 12.1014 4.83074C12.1014 3.83812 11.2967 3.03345 10.3041 3.03345C9.31151 3.03345 8.50684 3.83812 8.50684 4.83074C8.50684 5.82335 9.31151 6.62803 10.3041 6.62803Z" fill="black"/>
<rect x="7.60828" y="5.42981" width="1.19819" height="0.599097" transform="rotate(-90 7.60828 5.42981)" fill="black"/>
<rect x="12.401" y="5.42981" width="1.19819" height="0.599097" transform="rotate(-90 12.401 5.42981)" fill="black"/>
<rect x="9.70508" y="2.01495" width="1.19819" height="0.599097" fill="black"/>
<rect x="7.8855" y="3.27539" width="1.19819" height="0.599097" transform="rotate(-45 7.8855 3.27539)" fill="black"/>
<rect x="11.9222" y="2.45111" width="1.19819" height="0.599097" transform="rotate(45 11.9222 2.45111)" fill="black"/>
<rect x="10.95" y="7.58655" width="1.19819" height="0.599097" transform="rotate(-180 10.95 7.58655)" fill="black"/>
<rect x="12.7694" y="6.32611" width="1.19819" height="0.599097" transform="rotate(135 12.7694 6.32611)" fill="black"/>
<rect x="8.73267" y="7.15051" width="1.19819" height="0.599097" transform="rotate(-135 8.73267 7.15051)" fill="black"/>
</svg>
