<svg width="14" height="14" viewBox="0 0 14 14" fill="none" xmlns="http://www.w3.org/2000/svg">
<circle cx="7" cy="7" r="7" fill="#DF704D"/>
<path fill-rule="evenodd" clip-rule="evenodd" d="M2.76721 7.30416C2.29266 6.84749 2 6.22165 2 5.53125C2 4.13328 3.19994 3 4.68015 3C5.71734 3 6.61693 3.55644 7.0625 4.37048C7.50807 3.55644 8.40766 3 9.44485 3C10.9251 3 12.125 4.13328 12.125 5.53125C12.125 6.08668 11.9356 6.60032 11.6144 7.01771L11.6189 7.0215L7.48009 11.9267L7.0625 12.5294L6.54105 11.7768L2.76721 7.30416ZM8.88419 8.00703C8.99828 8.02996 9.11505 8.04604 9.23399 8.05478L7.11686 10.5639L6.95878 10.3766L8.88419 8.00703Z" fill="#77280C"/>
<path d="M7.06777 5.38235C7.1495 4.21827 8.18254 3.29779 9.44491 3.29779C10.7606 3.29779 11.8273 4.29774 11.8273 5.53125C11.8273 6.16188 11.5485 6.73148 11.1001 7.1376L9.89649 8.46898L7.06256 11.9338L3.79412 7.93775L3.20228 7.2831C2.65131 6.87401 2.29785 6.24133 2.29785 5.53125C2.29785 4.29774 3.36447 3.29779 4.6802 3.29779C5.94257 3.29779 6.97562 4.21827 7.05735 5.38235H7.06777Z" fill="black"/>
</svg>
