<svg width="17" height="16" viewBox="0 0 17 16" fill="none" xmlns="http://www.w3.org/2000/svg">
  <path
    d="M5.5821 14.0001H15.3303C13.8437 13.0001 13.3481 8.09806 13.3481 7.00006C13.3481 6.73606 13.3283 6.47706 13.2887 6.22406L5.5821 14.0001ZM11.814 3.38306C11.1387 2.73185 10.2944 2.28701 9.3789 2.10006C9.39273 1.96101 9.37752 1.82058 9.33426 1.68783C9.291 1.55508 9.22065 1.43295 9.12774 1.32931C9.03482 1.22568 8.92142 1.14285 8.79483 1.08616C8.66824 1.02947 8.53128 1.00018 8.39278 1.00018C8.25428 1.00018 8.11732 1.02947 7.99074 1.08616C7.86415 1.14285 7.75074 1.22568 7.65782 1.32931C7.56491 1.43295 7.49456 1.55508 7.4513 1.68783C7.40804 1.82058 7.39283 1.96101 7.40666 2.10006C6.28664 2.32992 5.27975 2.94324 4.55642 3.83617C3.8331 4.7291 3.4378 5.8468 3.43742 7.00006C3.43742 7.89806 3.10542 11.3421 2.17084 13.1131L11.814 3.38306ZM10.3749 15.0001C10.3749 15.5305 10.1661 16.0392 9.79437 16.4143C9.42264 16.7893 8.91848 17.0001 8.39278 17.0001C7.86708 17.0001 7.36292 16.7893 6.99119 16.4143C6.61947 16.0392 6.41064 15.5305 6.41064 15.0001H10.3749ZM1.08363 15.6251C0.985062 15.7245 0.929687 15.8594 0.929688 16.0001C0.929688 16.1407 0.985062 16.2756 1.08363 16.3751C1.1822 16.4745 1.31589 16.5304 1.45528 16.5304C1.59468 16.5304 1.72837 16.4745 1.82693 16.3751L16.4452 1.62506C16.494 1.57581 16.5328 1.51735 16.5592 1.45301C16.5856 1.38866 16.5992 1.3197 16.5992 1.25006C16.5992 1.18041 16.5856 1.11145 16.5592 1.04711C16.5328 0.982765 16.494 0.924302 16.4452 0.875057C16.3964 0.825811 16.3385 0.786747 16.2747 0.760096C16.2109 0.733444 16.1426 0.719727 16.0736 0.719727C16.0046 0.719727 15.9362 0.733444 15.8724 0.760096C15.8087 0.786747 15.7507 0.825811 15.7019 0.875057L1.08363 15.6251Z"
    fill="black" />
</svg>
