<svg width="40" height="19" viewBox="0 0 40 19" fill="none" xmlns="http://www.w3.org/2000/svg">
<path fill-rule="evenodd" clip-rule="evenodd" d="M20 5C18.8954 5 18 5.89543 18 7H17V12H23V7H22C22 5.89543 21.1046 5 20 5ZM20 6C20.5523 6 21 6.44772 21 7H19C19 6.44772 19.4477 6 20 6Z" fill="black"/>
<path fill-rule="evenodd" clip-rule="evenodd" d="M0 9.5C0 9.5 8.9543 19 20 19C31.0457 19 40 10.9999 40 9.5C40 8.00006 31.0457 0 20 0C8.9543 0 0 7.50006 0 9.5ZM37.7001 9.5C37.5326 9.68987 37.3175 9.9139 37.0512 10.1668C36.1541 11.0186 34.807 12.0737 33.1076 13.1008C29.6967 15.1624 25.0535 17 20 17C24.4183 17 28 13.4183 28 9C28 6.32631 26.6884 3.95897 24.6735 2.5063C27.884 3.19227 30.7822 4.49367 33.1076 5.89918C34.807 6.92628 36.1541 7.98138 37.0512 8.83321C37.3175 9.0861 37.5326 9.31013 37.7001 9.5ZM12 9C12 13.4183 15.5817 17 20 17C15.0302 17 10.4188 14.8507 6.95513 12.5779C5.24039 11.4526 3.8508 10.3259 2.89297 9.48296C2.74417 9.35202 2.60604 9.22814 2.47898 9.11243C2.61501 8.95941 2.77675 8.78982 2.96617 8.60559C3.8455 7.75031 5.17645 6.71935 6.87049 5.72472C9.20436 4.35443 12.1335 3.10738 15.3885 2.46207C13.3386 3.91063 12 6.299 12 9ZM20 15C23.3137 15 26 12.3137 26 9C26 5.68629 23.3137 3 20 3C16.6863 3 14 5.68629 14 9C14 12.3137 16.6863 15 20 15Z" fill="black"/>
</svg>
