<svg width="114" height="30" viewBox="0 0 114 30" fill="none" xmlns="http://www.w3.org/2000/svg">
<path d="M9.92058 19.2724C9.92058 18.6632 9.70299 18.1885 9.26781 17.8482C8.84055 17.508 8.08493 17.1559 7.00094 16.7919C5.91696 16.428 5.03078 16.0759 4.34241 15.7356C2.10323 14.6358 0.983638 13.1246 0.983638 11.2019C0.983638 10.2445 1.26057 9.40184 1.81443 8.67391C2.3762 7.93807 3.16743 7.36838 4.18812 6.96486C5.20881 6.55342 6.35609 6.3477 7.62997 6.3477C8.8722 6.3477 9.98388 6.56924 10.965 7.01233C11.954 7.45542 12.7215 8.0884 13.2675 8.91128C13.8134 9.72625 14.0864 10.6599 14.0864 11.7122H9.93245C9.93245 11.008 9.71486 10.4621 9.27968 10.0744C8.85242 9.68669 8.27086 9.49284 7.53502 9.49284C6.79126 9.49284 6.2018 9.65899 5.76662 9.99131C5.33936 10.3157 5.12573 10.7311 5.12573 11.2375C5.12573 11.6806 5.36309 12.0841 5.83783 12.4481C6.31257 12.8041 7.14732 13.176 8.34208 13.5637C9.53683 13.9435 10.518 14.3549 11.2854 14.798C13.1528 15.8741 14.0864 17.3577 14.0864 19.2487C14.0864 20.7599 13.5167 21.9468 12.3773 22.8092C11.238 23.6717 9.6753 24.1029 7.68931 24.1029C6.28883 24.1029 5.01891 23.8537 3.87954 23.3552C2.74808 22.8488 1.89355 22.1604 1.31595 21.2901C0.746269 20.4118 0.461426 19.403 0.461426 18.2636H4.63912C4.63912 19.1894 4.87649 19.8738 5.35123 20.3169C5.83388 20.752 6.61324 20.9696 7.68931 20.9696C8.37768 20.9696 8.91967 20.8232 9.31529 20.5305C9.71881 20.2298 9.92058 19.8105 9.92058 19.2724Z" fill="#1E1E1E"/>
<path d="M21.1719 18.2636L23.3082 11.0239H27.5927L22.3587 26.0137L22.1332 26.5597C21.3895 28.2212 20.076 29.052 18.1929 29.052C17.6707 29.052 17.1208 28.9729 16.5432 28.8147V25.9544H17.0654C17.6272 25.9544 18.0544 25.8713 18.3472 25.7051C18.6478 25.5469 18.8694 25.2581 19.0118 24.8387L19.3323 23.9842L14.8697 11.0239H19.1424L21.1719 18.2636Z" fill="#1E1E1E"/>
<path d="M32.3163 11.0239L32.4469 12.5312C33.3331 11.3681 34.5555 10.7865 36.1142 10.7865C37.4514 10.7865 38.4484 11.1861 39.1051 11.9852C39.7697 12.7844 40.1139 13.987 40.1376 15.5932V23.8655H36.1261V15.7594C36.1261 15.1106 35.9956 14.6358 35.7345 14.3352C35.4733 14.0266 34.9986 13.8723 34.3102 13.8723C33.5269 13.8723 32.9454 14.1809 32.5656 14.798V23.8655H28.5659V11.0239H32.3163Z" fill="#1E1E1E"/>
<path d="M47.7928 21.0171C48.3546 21.0171 48.7897 20.8668 49.0983 20.5661C49.4069 20.2575 49.5572 19.8303 49.5493 19.2843H53.2998C53.2998 20.6927 52.7934 21.8479 51.7806 22.7499C50.7757 23.6519 49.4781 24.1029 47.8877 24.1029C46.0204 24.1029 44.5488 23.5174 43.4727 22.3464C42.3966 21.1753 41.8586 19.5533 41.8586 17.4803V17.3141C41.8586 16.0165 42.0959 14.8732 42.5707 13.8842C43.0533 12.8872 43.7457 12.1237 44.6477 11.5936C45.5497 11.0555 46.6178 10.7865 47.8521 10.7865C49.5216 10.7865 50.8469 11.2494 51.8281 12.1751C52.8092 13.1008 53.2998 14.3549 53.2998 15.9374H49.5493C49.5493 15.2728 49.3871 14.7624 49.0627 14.4064C48.7383 14.0503 48.3031 13.8723 47.7572 13.8723C46.7207 13.8723 46.1154 14.533 45.9413 15.8543C45.8859 16.2737 45.8582 16.8513 45.8582 17.5871C45.8582 18.8768 46.0125 19.7709 46.3211 20.2694C46.6297 20.7679 47.1203 21.0171 47.7928 21.0171Z" fill="#1E1E1E"/>
<path d="M61.2041 24.1029C59.234 24.1029 57.6397 23.5174 56.4212 22.3464C55.2027 21.1674 54.5934 19.6364 54.5934 17.7533V17.421C54.5934 16.1075 54.8347 14.9484 55.3174 13.9435C55.808 12.9386 56.5201 12.1632 57.4537 11.6173C58.3874 11.0634 59.4951 10.7865 60.7769 10.7865C62.5809 10.7865 64.0051 11.3483 65.0495 12.4718C66.0939 13.5874 66.6162 15.1462 66.6162 17.148V18.7028H58.6643C58.8067 19.4228 59.1193 19.9885 59.6019 20.3999C60.0846 20.8114 60.7096 21.0171 61.4771 21.0171C62.7431 21.0171 63.7321 20.574 64.4442 19.6878L66.272 21.8479C65.7735 22.5363 65.0653 23.0862 64.1475 23.4976C63.2376 23.9011 62.2565 24.1029 61.2041 24.1029ZM60.7531 13.8723C59.5821 13.8723 58.8858 14.6477 58.6643 16.1985H62.6996V15.8899C62.7154 15.249 62.5532 14.7545 62.213 14.4064C61.8727 14.0503 61.3861 13.8723 60.7531 13.8723Z" fill="#1E1E1E"/>
<path d="M67.7318 17.3497C67.7318 15.3163 68.1709 13.714 69.0492 12.543C69.9275 11.372 71.1539 10.7865 72.7284 10.7865C73.8757 10.7865 74.841 11.2375 75.6243 12.1395V5.63559H79.6358V23.8655H76.0397L75.8379 22.4888C75.0151 23.5649 73.9706 24.1029 72.7047 24.1029C71.1776 24.1029 69.967 23.5174 69.0729 22.3464C68.1788 21.1753 67.7318 19.5098 67.7318 17.3497ZM71.7315 17.599C71.7315 19.8777 72.3961 21.0171 73.7254 21.0171C74.6115 21.0171 75.2445 20.6452 75.6243 19.9015V15.0117C75.2603 14.2521 74.6353 13.8723 73.7491 13.8723C72.5148 13.8723 71.8462 14.8692 71.7433 16.8631L71.7315 17.599Z" fill="#1E1E1E"/>
<rect x="85.4865" y="2.63257" width="26.4458" height="25.8034" fill="#1E1E1E"/>
<path fill-rule="evenodd" clip-rule="evenodd" d="M83.9068 15.1846V3.26278C83.9068 1.66467 85.2023 0.369141 86.8004 0.369141H98.7222H110.644C112.242 0.369141 113.538 1.66467 113.538 3.26278V15.1846V27.1064C113.538 28.7045 112.242 30 110.644 30H98.7222H86.8004C85.2023 30 83.9068 28.7045 83.9068 27.1064V15.1846ZM110.417 19.2554C111.319 18.0606 111.77 16.4663 111.77 14.4724V14.2825C111.77 12.2411 111.331 10.6389 110.452 9.47576C109.574 8.30474 108.344 7.71923 106.761 7.71923C105.511 7.71923 104.502 8.19397 103.735 9.14344L103.616 7.9566H99.8775V25.7355H103.877V19.742C104.637 20.6044 105.606 21.0356 106.785 21.0356C108.312 21.0356 109.523 20.4422 110.417 19.2554ZM105.776 10.805C107.105 10.805 107.77 11.9444 107.77 14.2231V14.6504C107.73 16.85 107.074 17.9498 105.8 17.9498C104.866 17.9498 104.225 17.5938 103.877 16.8817V11.8257C104.194 11.1453 104.827 10.805 105.776 10.805ZM90.3471 21.0356C91.7872 21.0356 92.9305 20.4936 93.7771 19.4097L93.8958 20.7983H97.6462V7.9566H93.6228V16.9648C93.2351 17.6215 92.5824 17.9498 91.6645 17.9498C90.5964 17.9498 90.0623 17.3999 90.0623 16.3001V7.9566H86.0626V16.2764C86.0626 17.8114 86.4226 18.9903 87.1426 19.8132C87.8706 20.6281 88.9387 21.0356 90.3471 21.0356Z" fill="#40B674"/>
</svg>
